<?xml version='1.0' encoding='UTF-8' standalone='no'?>
<!-- Created with Fritzing (http://www.fritzing.org/) -->
<svg xmlns="http://www.w3.org/2000/svg" xmlns:svg="http://www.w3.org/2000/svg" viewBox="0 0 141.732 70.8661" width="1.9685in" y="0in" height="0.984252in"  version="1.2" baseProfile="tiny" x="0in">
 <g transform="matrix(-1, 0, 0, 1, 141.732, 0)">
  <g partID="57660">
   <g  id="board">
    <rect fill-opacity="0.5" stroke="black" stroke-width="0.5" width="141.156" height="70.2901" y="0.288"  id="boardoutline" fill="none" x="0.288"/>
   </g>
  </g>
  <g partID="854746800">
   <g transform="translate(2.88,2.88)">
    <g  id="groundplane">
     <polygon stroke="none" stroke-width="0" points="0,0,0,11.376,64.944,11.376,64.944,11.52,65.376,11.52,65.376,11.664,65.664,11.664,65.664,11.808,67.392,11.808,67.392,11.664,67.824,11.664,67.824,11.52,68.4,11.52,68.4,11.376,68.832,11.376,68.832,11.232,69.408,11.232,69.408,11.088,69.84,11.088,69.84,10.944,70.416,10.944,70.416,10.8,70.848,10.8,70.848,10.656,71.424,10.656,71.424,10.512,71.856,10.512,71.856,10.368,72.288,10.368,72.288,10.224,72.864,10.224,72.864,10.08,73.296,10.08,73.296,9.936,73.872,9.936,73.872,9.792,74.304,9.792,74.304,9.648,74.88,9.648,74.88,9.504,75.312,9.504,75.312,9.36,75.888,9.36,75.888,9.216,76.32,9.216,76.32,9.072,76.896,9.072,76.896,8.928,77.328,8.928,77.328,8.784,77.904,8.784,77.904,8.64,78.336,8.64,78.336,8.496,78.912,8.496,78.912,8.352,79.344,8.352,79.344,8.208,79.92,8.208,79.92,8.064,80.352,8.064,80.352,7.92,80.928,7.92,80.928,7.776,81.36,7.776,81.36,7.632,81.792,7.632,81.792,7.488,82.368,7.488,82.368,7.344,82.8,7.344,82.8,7.2,83.376,7.2,83.376,7.056,83.808,7.056,83.808,6.912,84.384,6.912,84.384,6.768,84.816,6.768,84.816,6.624,85.392,6.624,85.392,6.48,85.824,6.48,85.824,6.336,86.4,6.336,86.4,6.192,86.832,6.192,86.832,6.048,87.408,6.048,87.408,5.904,87.84,5.904,87.84,5.76,88.416,5.76,88.416,5.616,88.848,5.616,88.848,5.472,89.424,5.472,89.424,5.328,89.856,5.328,89.856,5.184,90.432,5.184,90.432,5.04,90.864,5.04,90.864,4.896,91.296,4.896,91.296,4.752,91.872,4.752,91.872,4.608,92.304,4.608,92.304,4.464,92.88,4.464,92.88,4.32,93.312,4.32,93.312,4.176,93.888,4.176,93.888,4.032,94.32,4.032,94.32,3.888,94.896,3.888,94.896,3.744,95.328,3.744,95.328,3.6,95.904,3.6,95.904,3.456,96.336,3.456,96.336,3.312,96.912,3.312,96.912,3.168,97.344,3.168,97.344,3.024,97.92,3.024,97.92,2.88,98.352,2.88,98.352,2.736,98.928,2.736,98.928,2.592,99.36,2.592,99.36,2.448,99.792,2.448,99.792,2.304,100.368,2.304,100.368,2.16,100.8,2.16,100.8,2.016,101.376,2.016,101.376,1.872,101.808,1.872,101.808,1.728,102.384,1.728,102.384,1.584,102.816,1.584,102.816,1.44,103.392,1.44,103.392,0"  fill="black"/>
     <polygon stroke="none" stroke-width="0" points="0,11.376,0,17.856,43.488,17.856,43.488,18,43.92,18,43.92,18.144,44.208,18.144,44.208,18.288,44.496,18.288,44.496,18.432,44.64,18.432,44.64,18.576,44.928,18.576,44.928,18.72,45.072,18.72,45.072,18.864,45.216,18.864,45.216,19.008,45.36,19.008,45.36,19.296,45.504,19.296,45.504,19.44,45.648,19.44,45.648,19.728,45.792,19.728,45.792,19.872,45.936,19.872,45.936,20.304,46.08,20.304,46.08,21.024,46.224,21.024,46.224,21.744,46.08,21.744,46.08,22.464,45.936,22.464,45.936,22.896,45.792,22.896,45.792,23.04,45.648,23.04,45.648,23.328,45.504,23.328,45.504,23.616,45.36,23.616,45.36,23.76,45.216,23.76,45.216,23.904,45.072,23.904,45.072,24.048,44.928,24.048,44.928,24.192,44.64,24.192,44.64,24.336,44.496,24.336,44.496,24.48,44.208,24.48,44.208,24.624,43.92,24.624,43.92,24.768,43.632,24.768,43.632,24.912,42.912,24.912,42.912,25.056,42.768,25.056,42.768,25.344,42.624,25.344,42.624,25.776,42.48,25.776,42.48,26.064,42.336,26.064,42.336,26.496,42.192,26.496,42.192,26.784,42.048,26.784,42.048,27.216,41.904,27.216,41.904,27.504,41.76,27.504,41.76,27.936,41.616,27.936,41.616,28.224,41.472,28.224,41.472,28.656,41.328,28.656,41.328,28.944,41.184,28.944,41.184,29.376,41.04,29.376,41.04,29.664,40.896,29.664,40.896,30.096,40.752,30.096,40.752,30.384,40.608,30.384,40.608,30.816,40.464,30.816,40.464,31.104,40.32,31.104,40.32,31.536,40.176,31.536,40.176,31.824,40.032,31.824,40.032,32.256,39.888,32.256,39.888,32.544,39.744,32.544,39.744,32.976,39.6,32.976,39.6,33.264,39.456,33.264,39.456,33.696,39.312,33.696,39.312,33.984,39.168,33.984,39.168,34.416,39.024,34.416,39.024,34.704,38.88,34.704,38.88,35.136,38.736,35.136,38.736,35.568,38.592,35.568,38.592,35.856,38.448,35.856,38.448,36.288,38.304,36.288,38.304,36.576,38.16,36.576,38.16,37.008,38.016,37.008,38.016,37.296,37.872,37.296,37.872,37.728,37.728,37.728,37.728,38.016,37.584,38.016,37.584,38.448,37.44,38.448,37.44,38.736,37.296,38.736,37.296,39.168,37.152,39.168,37.152,39.456,37.008,39.456,37.008,39.888,36.864,39.888,36.864,40.176,36.72,40.176,36.72,40.608,36.576,40.608,36.576,40.896,36.432,40.896,36.432,41.328,36.288,41.328,36.288,41.616,36.144,41.616,36.144,42.048,36,42.048,36,42.336,35.856,42.336,35.856,42.768,35.712,42.768,35.712,43.056,35.568,43.056,35.568,43.488,35.424,43.488,35.424,43.776,35.28,43.776,35.28,44.208,35.136,44.208,35.136,44.496,34.992,44.496,34.992,44.928,34.848,44.928,34.848,45.216,34.704,45.216,34.704,45.648,34.56,45.648,34.56,45.936,34.416,45.936,34.416,46.368,34.272,46.368,34.272,46.656,34.128,46.656,34.128,46.8,45.936,46.8,45.936,53.568,44.928,53.568,44.928,55.008,45.216,55.008,45.216,55.152,45.36,55.152,45.36,55.296,45.504,55.296,45.504,55.44,45.648,55.44,45.648,55.584,45.792,55.584,45.792,55.872,60.768,55.872,60.768,54,61.776,54,61.776,52.416,61.632,52.416,61.632,52.272,61.488,52.272,61.488,52.128,61.344,52.128,61.344,51.84,61.2,51.84,61.2,51.696,61.056,51.696,61.056,51.264,60.912,51.264,60.912,50.688,60.768,50.688,60.768,49.68,60.912,49.68,60.912,49.104,61.056,49.104,61.056,48.672,61.2,48.672,61.2,48.528,61.344,48.528,61.344,48.24,61.488,48.24,61.488,48.096,61.632,48.096,61.632,47.952,61.776,47.952,61.776,47.808,61.92,47.808,61.92,47.664,62.064,47.664,62.064,47.52,62.208,47.52,62.208,47.376,62.496,47.376,62.496,45.936,62.352,45.936,62.352,45.792,62.208,45.792,62.208,45.648,62.064,45.648,62.064,45.504,61.776,45.504,61.776,45.216,61.632,45.216,61.632,45.072,61.488,45.072,61.488,44.928,61.344,44.928,61.344,44.64,61.2,44.64,61.2,44.496,61.056,44.496,61.056,44.064,60.912,44.064,60.912,43.488,60.768,43.488,60.768,42.48,60.912,42.48,60.912,41.904,61.056,41.904,61.056,41.472,61.2,41.472,61.2,41.328,61.344,41.328,61.344,41.04,61.488,41.04,61.488,40.896,61.632,40.896,61.632,40.752,61.776,40.752,61.776,40.608,61.92,40.608,61.92,40.464,62.064,40.464,62.064,40.32,62.208,40.32,62.208,40.176,62.496,40.176,62.496,40.032,62.64,40.032,62.64,24.336,61.2,24.336,61.2,18.432,63.072,18.432,63.072,16.992,62.784,16.992,62.784,16.848,62.496,16.848,62.496,16.704,62.352,16.704,62.352,16.56,62.208,16.56,62.208,16.416,62.064,16.416,62.064,16.272,61.92,16.272,61.92,16.128,61.776,16.128,61.776,15.984,61.632,15.984,61.632,15.696,61.488,15.696,61.488,15.408,61.344,15.408,61.344,14.976,61.2,14.976,61.2,13.68,61.344,13.68,61.344,13.104,61.488,13.104,61.488,12.96,61.632,12.96,61.632,12.672,61.776,12.672,61.776,12.384,61.92,12.384,61.92,12.24,62.064,12.24,62.064,12.096,62.208,12.096,62.208,11.952,62.496,11.952,62.496,11.808,62.64,11.808,62.64,11.664,62.928,11.664,62.928,11.52,63.36,11.52,63.36,11.376"  fill="black"/>
     <polygon stroke="none" stroke-width="0" points="0,17.856,0,25.056,24.624,25.056,24.624,17.856"  fill="black"/>
     <polygon stroke="none" stroke-width="0" points="31.824,17.856,31.824,24.912,31.68,24.912,31.68,25.056,39.456,25.056,39.456,24.768,39.6,24.768,39.6,23.328,39.456,23.328,39.456,23.04,39.312,23.04,39.312,22.752,39.168,22.752,39.168,22.32,39.024,22.32,39.024,20.448,39.168,20.448,39.168,20.016,39.312,20.016,39.312,19.728,39.456,19.728,39.456,19.44,39.6,19.44,39.6,19.296,39.744,19.296,39.744,19.152,39.888,19.152,39.888,18.864,40.032,18.864,40.032,18.72,40.32,18.72,40.32,18.576,40.464,18.576,40.464,18.432,40.608,18.432,40.608,18.288,40.896,18.288,40.896,18.144,41.184,18.144,41.184,18,41.616,18,41.616,17.856"  fill="black"/>
     <polygon stroke="none" stroke-width="0" points="0,25.056,0,25.2,39.312,25.2,39.312,25.056"  fill="black"/>
     <polygon stroke="none" stroke-width="0" points="0,25.056,0,25.2,39.312,25.2,39.312,25.056"  fill="black"/>
     <polygon stroke="none" stroke-width="0" points="0,25.2,0,29.232,7.488,29.232,7.488,29.376,8.208,29.376,8.208,29.52,8.64,29.52,8.64,29.664,9.072,29.664,9.072,29.808,9.36,29.808,9.36,29.952,9.648,29.952,9.648,30.096,9.936,30.096,9.936,30.24,10.224,30.24,10.224,30.384,10.368,30.384,10.368,30.528,10.512,30.528,10.512,30.672,10.8,30.672,10.8,30.816,10.944,30.816,10.944,30.96,11.088,30.96,11.088,31.104,11.232,31.104,11.232,31.248,11.376,31.248,11.376,31.392,11.52,31.392,11.52,31.536,11.664,31.536,11.664,31.824,11.808,31.824,11.808,31.968,11.952,31.968,11.952,32.112,12.096,32.112,12.096,32.4,12.24,32.4,12.24,32.688,12.384,32.688,12.384,32.976,12.528,32.976,12.528,33.264,12.672,33.264,12.672,33.552,12.816,33.552,12.816,34.128,12.96,34.128,12.96,34.704,13.104,34.704,13.104,36.864,12.96,36.864,12.96,37.44,12.816,37.44,12.816,38.016,12.672,38.016,12.672,38.304,18.432,38.304,18.432,38.448,19.152,38.448,19.152,38.592,19.584,38.592,19.584,38.736,19.872,38.736,19.872,38.88,20.16,38.88,20.16,39.024,20.448,39.024,20.448,39.168,20.736,39.168,20.736,39.312,20.88,39.312,20.88,39.456,21.168,39.456,21.168,39.6,21.312,39.6,21.312,39.744,21.456,39.744,21.456,39.888,21.6,39.888,21.6,40.032,21.744,40.032,21.744,40.176,21.888,40.176,21.888,40.32,22.032,40.32,22.032,40.464,22.176,40.464,22.176,40.608,22.32,40.608,22.32,40.752,22.464,40.752,22.464,40.896,22.608,40.896,22.608,41.184,22.752,41.184,22.752,41.328,22.896,41.328,22.896,41.616,23.04,41.616,23.04,41.904,23.184,41.904,23.184,42.192,23.328,42.192,23.328,42.624,23.472,42.624,23.472,43.056,23.616,43.056,23.616,43.776,23.76,43.776,23.76,45.792,23.616,45.792,23.616,46.512,23.472,46.512,23.472,46.944,23.328,46.944,23.328,47.376,23.184,47.376,23.184,47.664,23.04,47.664,23.04,47.952,22.896,47.952,22.896,48.24,22.752,48.24,22.752,48.384,22.608,48.384,22.608,48.672,22.464,48.672,22.464,48.816,22.32,48.816,22.32,48.96,22.176,48.96,22.176,49.104,22.032,49.104,22.032,49.392,21.888,49.392,21.888,49.536,21.6,49.536,21.6,49.68,21.456,49.68,21.456,49.824,21.312,49.824,21.312,49.968,21.168,49.968,21.168,50.112,20.88,50.112,20.88,50.256,20.736,50.256,20.736,50.4,20.448,50.4,20.448,50.544,20.16,50.544,20.16,50.688,19.872,50.688,19.872,50.832,19.584,50.832,19.584,50.976,19.152,50.976,19.152,51.12,18.576,51.12,18.576,51.264,17.424,51.264,17.424,51.408,28.944,51.408,28.944,51.12,29.088,51.12,29.088,50.832,29.232,50.832,29.232,50.4,29.376,50.4,29.376,50.112,29.52,50.112,29.52,49.68,29.664,49.68,29.664,49.392,29.808,49.392,29.808,48.96,29.952,48.96,29.952,48.672,30.096,48.672,30.096,48.24,30.24,48.24,30.24,47.952,30.384,47.952,30.384,47.52,30.528,47.52,30.528,47.232,30.672,47.232,30.672,46.8,30.816,46.8,30.816,46.512,30.96,46.512,30.96,46.08,31.104,46.08,31.104,45.792,31.248,45.792,31.248,45.36,31.392,45.36,31.392,45.072,31.536,45.072,31.536,44.64,31.68,44.64,31.68,44.352,31.824,44.352,31.824,43.92,31.968,43.92,31.968,43.632,32.112,43.632,32.112,43.2,32.256,43.2,32.256,42.912,32.4,42.912,32.4,42.48,32.544,42.48,32.544,42.192,32.688,42.192,32.688,41.76,32.832,41.76,32.832,41.472,32.976,41.472,32.976,41.04,33.12,41.04,33.12,40.752,33.264,40.752,33.264,40.32,33.408,40.32,33.408,39.888,33.552,39.888,33.552,39.6,33.696,39.6,33.696,39.168,33.84,39.168,33.84,38.88,33.984,38.88,33.984,38.448,34.128,38.448,34.128,38.16,34.272,38.16,34.272,37.728,34.416,37.728,34.416,37.44,34.56,37.44,34.56,37.008,34.704,37.008,34.704,36.72,34.848,36.72,34.848,36.288,34.992,36.288,34.992,36,35.136,36,35.136,35.568,35.28,35.568,35.28,35.28,35.424,35.28,35.424,34.848,35.568,34.848,35.568,34.56,35.712,34.56,35.712,34.128,35.856,34.128,35.856,33.84,36,33.84,36,33.408,36.144,33.408,36.144,33.12,36.288,33.12,36.288,32.688,36.432,32.688,36.432,32.4,36.576,32.4,36.576,31.968,36.72,31.968,36.72,31.68,36.864,31.68,36.864,31.248,37.008,31.248,37.008,30.96,37.152,30.96,37.152,30.528,37.296,30.528,37.296,30.24,37.44,30.24,37.44,29.808,37.584,29.808,37.584,29.52,37.728,29.52,37.728,29.088,37.872,29.088,37.872,28.8,38.016,28.8,38.016,28.368,38.16,28.368,38.16,28.08,38.304,28.08,38.304,27.648,38.448,27.648,38.448,27.36,38.592,27.36,38.592,26.928,38.736,26.928,38.736,26.64,38.88,26.64,38.88,26.208,39.024,26.208,39.024,25.776,39.168,25.776,39.168,25.488,39.312,25.488,39.312,25.2"  fill="black"/>
     <polygon stroke="none" stroke-width="0" points="0,29.232,0,31.824,1.44,31.824,1.44,31.68,1.584,31.68,1.584,31.536,1.728,31.536,1.728,31.248,1.872,31.248,1.872,31.104,2.016,31.104,2.016,30.96,2.304,30.96,2.304,30.816,2.448,30.816,2.448,30.672,2.592,30.672,2.592,30.528,2.736,30.528,2.736,30.384,3.024,30.384,3.024,30.24,3.168,30.24,3.168,30.096,3.456,30.096,3.456,29.952,3.744,29.952,3.744,29.808,4.032,29.808,4.032,29.664,4.464,29.664,4.464,29.52,4.896,29.52,4.896,29.376,5.76,29.376,5.76,29.232"  fill="black"/>
     <polygon stroke="none" stroke-width="0" points="12.528,38.304,12.528,38.592,12.384,38.592,12.384,38.88,12.24,38.88,12.24,39.168,12.096,39.168,12.096,39.456,11.952,39.456,11.952,39.6,13.392,39.6,13.392,39.456,13.536,39.456,13.536,39.312,13.824,39.312,13.824,39.168,13.968,39.168,13.968,39.024,14.256,39.024,14.256,38.88,14.544,38.88,14.544,38.736,14.976,38.736,14.976,38.592,15.408,38.592,15.408,38.448,15.984,38.448,15.984,38.304"  fill="black"/>
     <polygon stroke="none" stroke-width="0" points="0,39.744,0,42.336,5.616,42.336,5.616,42.192,4.896,42.192,4.896,42.048,4.464,42.048,4.464,41.904,4.032,41.904,4.032,41.76,3.744,41.76,3.744,41.616,3.456,41.616,3.456,41.472,3.168,41.472,3.168,41.328,3.024,41.328,3.024,41.184,2.736,41.184,2.736,41.04,2.592,41.04,2.592,40.896,2.448,40.896,2.448,40.752,2.16,40.752,2.16,40.608,2.016,40.608,2.016,40.464,1.872,40.464,1.872,40.32,1.728,40.32,1.728,40.176,1.584,40.176,1.584,39.888,1.44,39.888,1.44,39.744"  fill="black"/>
     <polygon stroke="none" stroke-width="0" points="10.512,40.896,10.512,41.04,10.368,41.04,10.368,41.184,10.224,41.184,10.224,41.328,9.936,41.328,9.936,41.472,9.648,41.472,9.648,41.616,9.36,41.616,9.36,41.76,9.072,41.76,9.072,41.904,8.64,41.904,8.64,42.048,8.208,42.048,8.208,42.192,7.488,42.192,7.488,42.336,11.232,42.336,11.232,42.048,11.376,42.048,11.376,41.76,11.52,41.76,11.52,41.472,11.664,41.472,11.664,41.184,11.808,41.184,11.808,41.04,11.952,41.04,11.952,40.896"  fill="black"/>
     <polygon stroke="none" stroke-width="0" points="0,42.336,0,42.48,11.088,42.48,11.088,42.336"  fill="black"/>
     <polygon stroke="none" stroke-width="0" points="0,42.336,0,42.48,11.088,42.48,11.088,42.336"  fill="black"/>
     <polygon stroke="none" stroke-width="0" points="0,42.48,0,49.968,7.344,49.968,7.344,50.112,8.208,50.112,8.208,50.256,8.64,50.256,8.64,50.4,9.072,50.4,9.072,50.544,9.36,50.544,9.36,50.688,9.792,50.688,9.792,50.832,9.936,50.832,9.936,50.976,10.224,50.976,10.224,51.12,10.368,51.12,10.368,51.264,10.656,51.264,10.656,51.408,16.992,51.408,16.992,51.264,15.84,51.264,15.84,51.12,15.264,51.12,15.264,50.976,14.832,50.976,14.832,50.832,14.544,50.832,14.544,50.688,14.256,50.688,14.256,50.544,13.968,50.544,13.968,50.4,13.68,50.4,13.68,50.256,13.536,50.256,13.536,50.112,13.392,50.112,13.392,49.968,13.104,49.968,13.104,49.824,12.96,49.824,12.96,49.68,12.816,49.68,12.816,49.536,12.672,49.536,12.672,49.392,12.528,49.392,12.528,49.248,12.384,49.248,12.384,49.104,12.24,49.104,12.24,48.96,12.096,48.96,12.096,48.816,11.952,48.816,11.952,48.528,11.808,48.528,11.808,48.384,11.664,48.384,11.664,48.096,11.52,48.096,11.52,47.808,11.376,47.808,11.376,47.52,11.232,47.52,11.232,47.232,11.088,47.232,11.088,46.8,10.944,46.8,10.944,46.368,10.8,46.368,10.8,45.504,10.656,45.504,10.656,44.064,10.8,44.064,10.8,43.344,10.944,43.344,10.944,42.768,11.088,42.768,11.088,42.48"  fill="black"/>
     <polygon stroke="none" stroke-width="0" points="34.128,46.8,34.128,47.088,33.984,47.088,33.984,47.376,33.84,47.376,33.84,47.808,33.696,47.808,33.696,48.096,33.552,48.096,33.552,48.528,33.408,48.528,33.408,48.96,33.264,48.96,33.264,49.248,33.12,49.248,33.12,49.68,32.976,49.68,32.976,49.968,32.832,49.968,32.832,50.4,32.688,50.4,32.688,50.688,32.544,50.688,32.544,51.12,32.4,51.12,32.4,51.408,32.256,51.408,32.256,51.84,32.112,51.84,32.112,52.128,31.968,52.128,31.968,52.56,31.824,52.56,31.824,52.848,31.68,52.848,31.68,53.28,31.536,53.28,31.536,53.568,31.392,53.568,31.392,54,31.248,54,31.248,54.288,31.104,54.288,31.104,55.728,39.6,55.728,39.6,55.584,39.744,55.584,39.744,55.44,39.888,55.44,39.888,55.152,40.032,55.152,40.032,55.008,40.176,55.008,40.176,53.568,39.168,53.568,39.168,46.8"  fill="black"/>
     <polygon stroke="none" stroke-width="0" points="0,49.968,0,52.704,1.44,52.704,1.44,52.416,1.584,52.416,1.584,52.272,1.728,52.272,1.728,52.128,1.872,52.128,1.872,51.984,2.016,51.984,2.016,51.84,2.16,51.84,2.16,51.696,2.304,51.696,2.304,51.552,2.448,51.552,2.448,51.408,2.736,51.408,2.736,51.264,2.88,51.264,2.88,51.12,3.024,51.12,3.024,50.976,3.312,50.976,3.312,50.832,3.6,50.832,3.6,50.688,3.888,50.688,3.888,50.544,4.176,50.544,4.176,50.4,4.608,50.4,4.608,50.256,5.04,50.256,5.04,50.112,5.904,50.112,5.904,49.968"  fill="black"/>
     <polygon stroke="none" stroke-width="0" points="10.8,51.408,10.8,51.552,28.944,51.552,28.944,51.408"  fill="black"/>
     <polygon stroke="none" stroke-width="0" points="10.8,51.408,10.8,51.552,28.944,51.552,28.944,51.408"  fill="black"/>
     <polygon stroke="none" stroke-width="0" points="10.944,51.552,10.944,51.696,11.088,51.696,11.088,51.84,11.232,51.84,11.232,51.984,11.376,51.984,11.376,52.128,11.52,52.128,11.52,52.272,11.664,52.272,11.664,52.416,11.808,52.416,11.808,52.56,11.952,52.56,11.952,52.848,12.096,52.848,12.096,52.992,12.24,52.992,12.24,53.28,12.384,53.28,12.384,53.568,12.528,53.568,12.528,53.856,12.672,53.856,12.672,54.144,12.816,54.144,12.816,54.576,12.96,54.576,12.96,55.152,14.112,55.152,14.112,55.296,18,55.296,18,55.44,22.032,55.44,22.032,55.584,27.36,55.584,27.36,55.152,27.504,55.152,27.504,54.864,27.648,54.864,27.648,54.432,27.792,54.432,27.792,54,27.936,54,27.936,53.712,28.08,53.712,28.08,53.28,28.224,53.28,28.224,52.992,28.368,52.992,28.368,52.56,28.512,52.56,28.512,52.272,28.656,52.272,28.656,51.84,28.8,51.84,28.8,51.552"  fill="black"/>
     <g  id="connector0pad">
      <circle stroke="none" stroke-width="0" cx="5.92011"  fill="black" cy="4.6575" r="2.7"/>
     </g>
    </g>
   </g>
  </g>
  <g partID="854746810">
   <g transform="translate(2.88,2.88)">
    <g  id="groundplane">
     <polygon stroke="none" stroke-width="0" points="132.48,0,132.48,0.576,132.336,0.576,132.336,1.008,132.192,1.008,132.192,1.296,132.048,1.296,132.048,1.584,131.904,1.584,131.904,1.872,131.76,1.872,131.76,2.016,131.616,2.016,131.616,2.16,131.472,2.16,131.472,2.304,131.328,2.304,131.328,2.448,131.184,2.448,131.184,2.592,131.04,2.592,131.04,2.736,130.752,2.736,130.752,2.88,130.464,2.88,130.464,3.024,130.176,3.024,130.176,3.168,129.6,3.168,129.6,3.312,135.936,3.312,135.936,0"  fill="black"/>
     <polygon stroke="none" stroke-width="0" points="124.704,1.728,124.704,1.872,124.56,1.872,124.56,2.016,124.416,2.016,124.416,2.16,124.272,2.16,124.272,2.304,124.128,2.304,124.128,2.448,123.984,2.448,123.984,2.592,123.84,2.592,123.84,2.736,123.552,2.736,123.552,2.88,123.264,2.88,123.264,3.024,122.976,3.024,122.976,3.168,122.4,3.168,122.4,3.312,128.304,3.312,128.304,3.168,127.728,3.168,127.728,3.024,127.44,3.024,127.44,2.88,127.152,2.88,127.152,2.736,127.008,2.736,127.008,2.592,126.72,2.592,126.72,2.448,126.576,2.448,126.576,2.304,126.432,2.304,126.432,2.16,126.288,2.16,126.288,2.016,126.144,2.016,126.144,1.728"  fill="black"/>
     <polygon stroke="none" stroke-width="0" points="118.08,2.448,118.08,3.312,121.104,3.312,121.104,3.168,120.528,3.168,120.528,3.024,120.24,3.024,120.24,2.88,119.952,2.88,119.952,2.736,119.808,2.736,119.808,2.592,119.52,2.592,119.52,2.448"  fill="black"/>
     <polygon stroke="none" stroke-width="0" points="109.296,2.88,109.296,3.024,108.864,3.024,108.864,3.168,108.288,3.168,108.288,3.312,107.856,3.312,107.856,3.456,107.28,3.456,107.28,3.6,106.848,3.6,106.848,3.744,106.272,3.744,106.272,3.888,105.84,3.888,105.84,4.032,105.264,4.032,105.264,4.176,104.832,4.176,104.832,4.32,104.256,4.32,104.256,4.464,103.824,4.464,103.824,4.608,103.248,4.608,103.248,4.752,102.816,4.752,102.816,4.896,102.24,4.896,102.24,5.04,101.808,5.04,101.808,5.184,101.376,5.184,101.376,5.328,100.8,5.328,100.8,5.472,100.368,5.472,100.368,5.616,99.792,5.616,99.792,5.76,99.36,5.76,99.36,5.904,98.784,5.904,98.784,6.048,98.352,6.048,98.352,6.192,97.776,6.192,97.776,6.336,97.344,6.336,97.344,6.48,96.768,6.48,96.768,6.624,96.336,6.624,96.336,6.768,95.76,6.768,95.76,6.912,95.328,6.912,95.328,7.056,94.752,7.056,94.752,7.2,94.32,7.2,94.32,7.344,93.744,7.344,93.744,7.488,93.312,7.488,93.312,7.632,92.88,7.632,92.88,7.776,92.304,7.776,92.304,7.92,91.872,7.92,91.872,8.064,91.296,8.064,91.296,8.208,90.864,8.208,90.864,8.352,90.288,8.352,90.288,8.496,89.856,8.496,89.856,8.64,89.28,8.64,89.28,8.784,88.848,8.784,88.848,8.928,88.272,8.928,88.272,9.072,87.84,9.072,87.84,9.216,87.264,9.216,87.264,9.36,86.832,9.36,86.832,9.504,86.256,9.504,86.256,9.648,85.824,9.648,85.824,9.792,85.248,9.792,85.248,9.936,84.816,9.936,84.816,10.08,84.24,10.08,84.24,10.224,83.808,10.224,83.808,10.368,83.376,10.368,83.376,10.512,82.8,10.512,82.8,10.656,82.368,10.656,82.368,10.8,81.792,10.8,81.792,10.944,81.36,10.944,81.36,11.088,80.784,11.088,80.784,11.232,80.352,11.232,80.352,11.376,79.776,11.376,79.776,11.52,79.344,11.52,79.344,11.664,78.768,11.664,78.768,11.808,78.336,11.808,78.336,11.952,77.76,11.952,77.76,12.096,77.328,12.096,77.328,12.24,76.752,12.24,76.752,12.384,76.32,12.384,76.32,12.528,75.744,12.528,75.744,12.672,75.312,12.672,75.312,12.816,74.88,12.816,74.88,12.96,74.304,12.96,74.304,13.104,73.872,13.104,73.872,13.248,73.296,13.248,73.296,13.392,72.864,13.392,72.864,13.536,72.288,13.536,72.288,13.68,71.856,13.68,71.856,13.824,71.28,13.824,71.28,13.968,70.848,13.968,70.848,14.112,70.272,14.112,70.272,14.256,69.84,14.256,69.84,14.4,69.264,14.4,69.264,14.544,68.832,14.544,68.832,14.688,68.256,14.688,68.256,14.832,67.824,14.832,67.824,14.976,67.248,14.976,67.248,15.12,66.96,15.12,66.96,15.552,66.816,15.552,66.816,15.84,66.672,15.84,66.672,15.984,66.528,15.984,66.528,16.272,66.384,16.272,66.384,16.416,66.24,16.416,66.24,16.56,65.952,16.56,65.952,16.704,65.808,16.704,65.808,16.848,65.52,16.848,65.52,16.992,65.232,16.992,65.232,18.432,67.104,18.432,67.104,24.336,65.808,24.336,65.808,40.032,65.952,40.032,65.952,40.176,66.096,40.176,66.096,40.32,66.384,40.32,66.384,40.464,66.528,40.464,66.528,40.608,66.672,40.608,66.672,40.752,66.816,40.752,66.816,41.04,66.96,41.04,66.96,41.184,67.104,41.184,67.104,41.472,86.4,41.472,86.4,41.616,86.688,41.616,86.688,41.76,86.832,41.76,86.832,41.904,86.976,41.904,86.976,42.048,87.12,42.048,87.12,42.336,87.264,42.336,87.264,42.768,87.408,42.768,87.408,46.656,93.6,46.656,93.6,46.8,100.944,46.8,100.944,46.944,101.376,46.944,101.376,47.088,101.664,47.088,101.664,47.232,101.952,47.232,101.952,47.376,102.24,47.376,102.24,47.52,102.384,47.52,102.384,47.664,102.528,47.664,102.528,47.808,102.672,47.808,102.672,47.952,102.816,47.952,102.816,48.096,102.96,48.096,102.96,48.384,103.104,48.384,103.104,48.528,103.248,48.528,103.248,48.816,103.392,48.816,103.392,49.248,103.536,49.248,103.536,51.12,103.392,51.12,103.392,51.552,103.248,51.552,103.248,51.84,103.104,51.84,103.104,51.984,102.96,51.984,102.96,52.272,102.816,52.272,102.816,52.416,102.672,52.416,102.672,52.56,102.528,52.56,102.528,52.704,102.384,52.704,102.384,52.848,102.24,52.848,102.24,52.992,101.952,52.992,101.952,53.136,101.808,53.136,101.808,53.28,101.52,53.28,101.52,53.424,100.944,53.424,100.944,53.568,128.16,53.568,128.16,53.424,127.728,53.424,127.728,53.28,127.44,53.28,127.44,53.136,127.152,53.136,127.152,52.992,127.008,52.992,127.008,52.848,126.72,52.848,126.72,52.704,126.576,52.704,126.576,52.56,126.432,52.56,126.432,52.416,126.288,52.416,126.288,52.128,126.144,52.128,126.144,51.984,126,51.984,126,51.696,125.856,51.696,125.856,51.408,125.712,51.408,125.712,50.976,125.568,50.976,125.568,49.536,125.712,49.536,125.712,48.96,125.856,48.96,125.856,48.672,126,48.672,126,48.384,126.144,48.384,126.144,48.24,126.288,48.24,126.288,47.952,126.432,47.952,126.432,47.808,126.576,47.808,126.576,47.664,126.72,47.664,126.72,47.52,127.008,47.52,127.008,47.376,127.152,47.376,127.152,45.792,127.008,45.792,127.008,45.648,126.72,45.648,126.72,45.504,126.576,45.504,126.576,45.36,126.432,45.36,126.432,45.216,126.288,45.216,126.288,44.928,126.144,44.928,126.144,44.784,126,44.784,126,44.64,121.68,44.64,121.68,44.496,121.104,44.496,121.104,44.352,120.816,44.352,120.816,44.208,120.672,44.208,120.672,44.064,120.528,44.064,120.528,43.92,120.384,43.92,120.384,43.632,120.24,43.632,120.24,32.256,118.08,32.256,118.08,24.912,118.8,24.912,118.8,23.472,118.656,23.472,118.656,23.184,118.512,23.184,118.512,23.04,114.48,23.04,114.48,22.896,113.904,22.896,113.904,22.752,113.616,22.752,113.616,22.608,113.472,22.608,113.472,22.464,113.328,22.464,113.328,22.32,113.184,22.32,113.184,22.032,113.04,22.032,113.04,3.312,111.024,3.312,111.024,2.88"  fill="black"/>
     <polygon stroke="none" stroke-width="0" points="116.208,3.312,116.208,3.456,135.936,3.456,135.936,3.312"  fill="black"/>
     <polygon stroke="none" stroke-width="0" points="116.208,3.312,116.208,3.456,135.936,3.456,135.936,3.312"  fill="black"/>
     <polygon stroke="none" stroke-width="0" points="116.208,3.312,116.208,3.456,135.936,3.456,135.936,3.312"  fill="black"/>
     <polygon stroke="none" stroke-width="0" points="116.208,3.456,116.208,10.512,122.4,10.512,122.4,10.656,122.976,10.656,122.976,10.8,129.744,10.8,129.744,10.944,130.176,10.944,130.176,11.088,130.464,11.088,130.464,11.232,130.752,11.232,130.752,11.376,131.04,11.376,131.04,11.52,131.184,11.52,131.184,11.664,131.328,11.664,131.328,11.808,131.472,11.808,131.472,11.952,131.616,11.952,131.616,12.096,131.76,12.096,131.76,12.384,131.904,12.384,131.904,12.528,132.048,12.528,132.048,12.816,132.192,12.816,132.192,13.248,132.336,13.248,132.336,15.12,132.192,15.12,132.192,15.552,132.048,15.552,132.048,15.84,131.904,15.84,131.904,15.984,131.76,15.984,131.76,16.272,131.616,16.272,131.616,16.416,131.472,16.416,131.472,16.56,131.328,16.56,131.328,16.704,131.184,16.704,131.184,16.848,131.04,16.848,131.04,16.992,130.752,16.992,130.752,17.136,130.608,17.136,130.608,17.28,130.32,17.28,130.32,17.424,129.744,17.424,129.744,17.568,135.936,17.568,135.936,3.456"  fill="black"/>
     <polygon stroke="none" stroke-width="0" points="116.208,10.512,116.208,19.872,118.512,19.872,118.512,19.584,118.656,19.584,118.656,19.296,118.8,19.296,118.8,19.152,118.944,19.152,118.944,19.008,119.088,19.008,119.088,18.864,119.232,18.864,119.232,18.72,119.376,18.72,119.376,18.576,119.52,18.576,119.52,16.992,119.376,16.992,119.376,16.848,119.232,16.848,119.232,16.704,119.088,16.704,119.088,16.56,118.944,16.56,118.944,16.416,118.8,16.416,118.8,16.272,118.656,16.272,118.656,15.984,118.512,15.984,118.512,15.696,118.368,15.696,118.368,15.408,118.224,15.408,118.224,14.688,118.08,14.688,118.08,13.68,118.224,13.68,118.224,12.96,118.368,12.96,118.368,12.672,118.512,12.672,118.512,12.384,118.656,12.384,118.656,12.096,118.8,12.096,118.8,11.952,118.944,11.952,118.944,11.808,119.088,11.808,119.088,11.664,119.232,11.664,119.232,11.52,119.376,11.52,119.376,11.376,119.52,11.376,119.52,11.232,119.664,11.232,119.664,11.088,119.952,11.088,119.952,10.944,120.24,10.944,120.24,10.8,120.528,10.8,120.528,10.656,121.104,10.656,121.104,10.512"  fill="black"/>
     <polygon stroke="none" stroke-width="0" points="123.264,10.8,123.264,10.944,123.552,10.944,123.552,11.088,123.84,11.088,123.84,11.232,123.984,11.232,123.984,11.376,124.128,11.376,124.128,11.52,124.416,11.52,124.416,11.808,124.56,11.808,124.56,11.952,124.704,11.952,124.704,12.096,124.848,12.096,124.848,12.24,126.288,12.24,126.288,11.952,126.432,11.952,126.432,11.808,126.576,11.808,126.576,11.664,126.72,11.664,126.72,11.52,127.008,11.52,127.008,11.376,127.152,11.376,127.152,11.232,127.44,11.232,127.44,11.088,127.728,11.088,127.728,10.944,128.16,10.944,128.16,10.8"  fill="black"/>
     <polygon stroke="none" stroke-width="0" points="124.848,16.128,124.848,16.272,124.704,16.272,124.704,16.416,124.56,16.416,124.56,16.704,124.416,16.704,124.416,16.848,124.272,16.848,124.272,16.992,123.984,16.992,123.984,17.568,128.16,17.568,128.16,17.424,127.728,17.424,127.728,17.28,127.44,17.28,127.44,17.136,127.152,17.136,127.152,16.992,127.008,16.992,127.008,16.848,126.72,16.848,126.72,16.704,126.576,16.704,126.576,16.56,126.432,16.56,126.432,16.416,126.288,16.416,126.288,16.128"  fill="black"/>
     <polygon stroke="none" stroke-width="0" points="123.984,17.568,123.984,17.712,135.936,17.712,135.936,17.568"  fill="black"/>
     <polygon stroke="none" stroke-width="0" points="123.984,17.568,123.984,17.712,135.936,17.712,135.936,17.568"  fill="black"/>
     <polygon stroke="none" stroke-width="0" points="123.984,17.712,123.984,18.576,124.128,18.576,124.128,18.72,124.416,18.72,124.416,19.008,124.56,19.008,124.56,19.152,124.704,19.152,124.704,19.296,124.848,19.296,124.848,19.584,124.992,19.584,124.992,19.728,125.136,19.728,125.136,20.16,125.28,20.16,125.28,20.592,125.424,20.592,125.424,22.176,125.28,22.176,125.28,22.608,125.136,22.608,125.136,23.04,124.992,23.04,124.992,23.184,124.848,23.184,124.848,23.472,124.704,23.472,124.704,24.912,125.424,24.912,125.424,32.256,123.408,32.256,123.408,39.6,129.744,39.6,129.744,39.744,130.176,39.744,130.176,39.888,130.464,39.888,130.464,40.032,130.752,40.032,130.752,40.176,131.04,40.176,131.04,40.32,131.184,40.32,131.184,40.464,131.328,40.464,131.328,40.608,131.472,40.608,131.472,40.752,131.616,40.752,131.616,40.896,131.76,40.896,131.76,41.184,131.904,41.184,131.904,41.328,132.048,41.328,132.048,41.616,132.192,41.616,132.192,42.048,132.336,42.048,132.336,43.92,132.192,43.92,132.192,44.352,132.048,44.352,132.048,44.64,131.904,44.64,131.904,44.784,131.76,44.784,131.76,45.072,131.616,45.072,131.616,45.216,131.472,45.216,131.472,45.36,131.328,45.36,131.328,45.504,131.184,45.504,131.184,45.648,131.04,45.648,131.04,45.792,130.752,45.792,130.752,47.376,131.04,47.376,131.04,47.52,131.184,47.52,131.184,47.664,131.328,47.664,131.328,47.808,131.472,47.808,131.472,47.952,131.616,47.952,131.616,48.096,131.76,48.096,131.76,48.384,131.904,48.384,131.904,48.528,132.048,48.528,132.048,48.816,132.192,48.816,132.192,49.248,132.336,49.248,132.336,51.12,132.192,51.12,132.192,51.552,132.048,51.552,132.048,51.84,131.904,51.84,131.904,51.984,131.76,51.984,131.76,52.272,131.616,52.272,131.616,52.416,131.472,52.416,131.472,52.56,131.328,52.56,131.328,52.704,131.184,52.704,131.184,52.848,131.04,52.848,131.04,52.992,130.752,52.992,130.752,53.136,130.608,53.136,130.608,53.28,130.32,53.28,130.32,53.424,129.744,53.424,129.744,53.568,135.936,53.568,135.936,17.712"  fill="black"/>
     <polygon stroke="none" stroke-width="0" points="123.408,39.6,123.408,41.472,126,41.472,126,41.184,126.144,41.184,126.144,41.04,126.288,41.04,126.288,40.752,126.432,40.752,126.432,40.608,126.576,40.608,126.576,40.464,126.72,40.464,126.72,40.32,127.008,40.32,127.008,40.176,127.152,40.176,127.152,40.032,127.44,40.032,127.44,39.888,127.728,39.888,127.728,39.744,128.16,39.744,128.16,39.6"  fill="black"/>
     <polygon stroke="none" stroke-width="0" points="67.104,44.64,67.104,44.784,66.96,44.784,66.96,44.928,66.816,44.928,66.816,45.216,66.672,45.216,66.672,45.36,66.528,45.36,66.528,45.504,66.384,45.504,66.384,45.648,66.096,45.648,66.096,45.792,65.952,45.792,65.952,46.656,79.2,46.656,79.2,46.8,79.776,46.8,79.776,46.944,80.064,46.944,80.064,47.088,80.352,47.088,80.352,47.232,80.64,47.232,80.64,47.376,80.784,47.376,80.784,47.52,80.928,47.52,80.928,47.664,81.072,47.664,81.072,47.808,81.216,47.808,81.216,47.952,81.36,47.952,81.36,48.096,81.504,48.096,81.504,48.24,82.944,48.24,82.944,47.952,83.088,47.952,83.088,47.808,83.232,47.808,83.232,47.664,83.376,47.664,83.376,47.52,83.52,47.52,83.52,47.376,83.808,47.376,83.808,47.232,83.952,47.232,83.952,47.088,84.24,47.088,84.24,44.64"  fill="black"/>
     <polygon stroke="none" stroke-width="0" points="65.952,46.656,65.952,47.376,66.096,47.376,66.096,47.52,66.384,47.52,66.384,47.664,66.528,47.664,66.528,47.808,66.672,47.808,66.672,47.952,66.816,47.952,66.816,48.24,66.96,48.24,66.96,48.384,67.104,48.384,67.104,48.672,67.248,48.672,67.248,48.96,67.392,48.96,67.392,49.392,67.536,49.392,67.536,50.976,67.392,50.976,67.392,51.408,67.248,51.408,67.248,51.696,67.104,51.696,67.104,51.984,66.96,51.984,66.96,52.128,66.816,52.128,66.816,52.416,66.672,52.416,66.672,52.56,66.528,52.56,66.528,53.712,77.904,53.712,77.904,53.568,77.328,53.568,77.328,53.424,77.04,53.424,77.04,53.28,76.752,53.28,76.752,53.136,76.608,53.136,76.608,52.992,76.32,52.992,76.32,52.848,76.176,52.848,76.176,52.704,76.032,52.704,76.032,52.56,75.888,52.56,75.888,52.416,75.744,52.416,75.744,52.128,75.6,52.128,75.6,51.984,75.456,51.984,75.456,51.696,75.312,51.696,75.312,51.264,75.168,51.264,75.168,50.688,75.024,50.688,75.024,49.68,75.168,49.68,75.168,49.104,75.312,49.104,75.312,48.672,75.456,48.672,75.456,48.384,75.6,48.384,75.6,48.24,75.744,48.24,75.744,47.952,75.888,47.952,75.888,47.808,76.032,47.808,76.032,47.664,76.176,47.664,76.176,47.52,76.32,47.52,76.32,47.376,76.608,47.376,76.608,47.232,76.752,47.232,76.752,47.088,77.04,47.088,77.04,46.944,77.472,46.944,77.472,46.8,77.904,46.8,77.904,46.656"  fill="black"/>
     <polygon stroke="none" stroke-width="0" points="87.408,46.656,87.408,47.088,87.552,47.088,87.552,47.232,87.84,47.232,87.84,47.376,87.984,47.376,87.984,47.52,88.128,47.52,88.128,47.664,88.272,47.664,88.272,47.808,88.416,47.808,88.416,47.952,88.56,47.952,88.56,48.096,88.704,48.096,88.704,48.24,90.144,48.24,90.144,47.952,90.288,47.952,90.288,47.808,90.432,47.808,90.432,47.664,90.576,47.664,90.576,47.52,90.72,47.52,90.72,47.376,91.008,47.376,91.008,47.232,91.152,47.232,91.152,47.088,91.44,47.088,91.44,46.944,91.872,46.944,91.872,46.8,92.304,46.8,92.304,46.656"  fill="black"/>
     <polygon stroke="none" stroke-width="0" points="94.176,46.8,94.176,46.944,94.464,46.944,94.464,47.088,94.752,47.088,94.752,47.232,95.04,47.232,95.04,47.376,95.184,47.376,95.184,47.52,95.328,47.52,95.328,47.664,95.472,47.664,95.472,47.808,95.616,47.808,95.616,47.952,95.76,47.952,95.76,48.096,95.904,48.096,95.904,48.384,97.344,48.384,97.344,48.24,97.488,48.24,97.488,47.952,97.632,47.952,97.632,47.808,97.776,47.808,97.776,47.664,97.92,47.664,97.92,47.52,98.208,47.52,98.208,47.376,98.352,47.376,98.352,47.232,98.64,47.232,98.64,47.088,98.928,47.088,98.928,46.944,99.36,46.944,99.36,46.8"  fill="black"/>
     <polygon stroke="none" stroke-width="0" points="95.904,51.984,95.904,52.272,95.76,52.272,95.76,52.416,95.616,52.416,95.616,52.56,95.472,52.56,95.472,52.704,95.328,52.704,95.328,52.848,95.184,52.848,95.184,52.992,95.04,52.992,95.04,53.136,94.752,53.136,94.752,53.28,94.464,53.28,94.464,53.424,94.176,53.424,94.176,53.568,99.36,53.568,99.36,53.424,98.928,53.424,98.928,53.28,98.64,53.28,98.64,53.136,98.352,53.136,98.352,52.992,98.208,52.992,98.208,52.848,97.92,52.848,97.92,52.704,97.776,52.704,97.776,52.56,97.632,52.56,97.632,52.416,97.488,52.416,97.488,52.128,97.344,52.128,97.344,51.984"  fill="black"/>
     <polygon stroke="none" stroke-width="0" points="81.504,52.128,81.504,52.272,81.36,52.272,81.36,52.416,81.216,52.416,81.216,52.56,81.072,52.56,81.072,52.704,80.928,52.704,80.928,52.848,80.784,52.848,80.784,52.992,80.64,52.992,80.64,53.136,80.352,53.136,80.352,53.28,80.064,53.28,80.064,53.424,79.776,53.424,79.776,53.568,79.2,53.568,79.2,53.712,85.104,53.712,85.104,53.568,84.528,53.568,84.528,53.424,84.24,53.424,84.24,53.28,83.952,53.28,83.952,53.136,83.808,53.136,83.808,52.992,83.52,52.992,83.52,52.848,83.376,52.848,83.376,52.704,83.232,52.704,83.232,52.56,83.088,52.56,83.088,52.416,82.944,52.416,82.944,52.128"  fill="black"/>
     <polygon stroke="none" stroke-width="0" points="88.704,52.128,88.704,52.272,88.56,52.272,88.56,52.416,88.416,52.416,88.416,52.56,88.272,52.56,88.272,52.704,88.128,52.704,88.128,52.848,87.984,52.848,87.984,52.992,87.84,52.992,87.84,53.136,87.552,53.136,87.552,53.28,87.264,53.28,87.264,53.424,86.976,53.424,86.976,53.568,86.4,53.568,86.4,53.712,92.304,53.712,92.304,53.568,91.728,53.568,91.728,53.424,91.44,53.424,91.44,53.28,91.152,53.28,91.152,53.136,91.008,53.136,91.008,52.992,90.72,52.992,90.72,52.848,90.576,52.848,90.576,52.704,90.432,52.704,90.432,52.56,90.288,52.56,90.288,52.416,90.144,52.416,90.144,52.128"  fill="black"/>
     <polygon stroke="none" stroke-width="0" points="93.6,53.568,93.6,53.712,135.936,53.712,135.936,53.568"  fill="black"/>
     <polygon stroke="none" stroke-width="0" points="93.6,53.568,93.6,53.712,135.936,53.712,135.936,53.568"  fill="black"/>
     <polygon stroke="none" stroke-width="0" points="93.6,53.568,93.6,53.712,135.936,53.712,135.936,53.568"  fill="black"/>
     <polygon stroke="none" stroke-width="0" points="66.528,53.712,66.528,53.856,135.936,53.856,135.936,53.712"  fill="black"/>
     <polygon stroke="none" stroke-width="0" points="66.528,53.712,66.528,53.856,135.936,53.856,135.936,53.712"  fill="black"/>
     <polygon stroke="none" stroke-width="0" points="66.528,53.712,66.528,53.856,135.936,53.856,135.936,53.712"  fill="black"/>
     <polygon stroke="none" stroke-width="0" points="66.528,53.712,66.528,53.856,135.936,53.856,135.936,53.712"  fill="black"/>
     <polygon stroke="none" stroke-width="0" points="66.528,53.856,66.528,54,67.536,54,67.536,60.768,135.936,60.768,135.936,53.856"  fill="black"/>
     <polygon stroke="none" stroke-width="0" points="12.816,58.464,12.816,58.896,12.672,58.896,12.672,59.328,12.528,59.328,12.528,59.616,12.384,59.616,12.384,59.76,12.24,59.76,12.24,60.048,12.096,60.048,12.096,60.336,11.952,60.336,11.952,60.48,11.808,60.48,11.808,60.624,11.664,60.624,11.664,60.768,41.76,60.768,41.76,60.624,41.328,60.624,41.328,60.48,41.04,60.48,41.04,60.336,40.752,60.336,40.752,60.192,40.608,60.192,40.608,60.048,40.32,60.048,40.32,59.904,40.176,59.904,40.176,59.76,40.032,59.76,40.032,59.616,39.888,59.616,39.888,59.328,39.744,59.328,39.744,59.184,39.6,59.184,39.6,58.896,25.92,58.896,25.92,58.752,21.888,58.752,21.888,58.608,18,58.608,18,58.464"  fill="black"/>
     <polygon stroke="none" stroke-width="0" points="45.504,59.04,45.504,59.184,45.36,59.184,45.36,59.472,45.216,59.472,45.216,59.616,45.072,59.616,45.072,59.76,44.928,59.76,44.928,59.904,44.784,59.904,44.784,60.048,44.64,60.048,44.64,60.192,44.352,60.192,44.352,60.336,44.208,60.336,44.208,60.48,43.92,60.48,43.92,60.624,43.344,60.624,43.344,60.768,60.768,60.768,60.768,59.04"  fill="black"/>
     <polygon stroke="none" stroke-width="0" points="0,60.336,0,63.072,5.616,63.072,5.616,62.928,4.896,62.928,4.896,62.784,4.464,62.784,4.464,62.64,4.032,62.64,4.032,62.496,3.744,62.496,3.744,62.352,3.456,62.352,3.456,62.208,3.312,62.208,3.312,62.064,3.024,62.064,3.024,61.92,2.88,61.92,2.88,61.776,2.592,61.776,2.592,61.632,2.448,61.632,2.448,61.488,2.304,61.488,2.304,61.344,2.16,61.344,2.16,61.2,2.016,61.2,2.016,61.056,1.872,61.056,1.872,60.912,1.728,60.912,1.728,60.768,1.584,60.768,1.584,60.624,1.44,60.624,1.44,60.336"  fill="black"/>
     <polygon stroke="none" stroke-width="0" points="11.52,60.768,11.52,60.912,135.936,60.912,135.936,60.768"  fill="black"/>
     <polygon stroke="none" stroke-width="0" points="11.52,60.768,11.52,60.912,135.936,60.912,135.936,60.768"  fill="black"/>
     <polygon stroke="none" stroke-width="0" points="11.52,60.768,11.52,60.912,135.936,60.912,135.936,60.768"  fill="black"/>
     <polygon stroke="none" stroke-width="0" points="11.52,60.912,11.52,61.056,11.376,61.056,11.376,61.2,11.232,61.2,11.232,61.344,10.944,61.344,10.944,61.488,10.8,61.488,10.8,61.632,10.656,61.632,10.656,61.776,10.512,61.776,10.512,61.92,10.224,61.92,10.224,62.064,10.08,62.064,10.08,62.208,9.792,62.208,9.792,62.352,9.504,62.352,9.504,62.496,9.216,62.496,9.216,62.64,8.784,62.64,8.784,62.784,8.352,62.784,8.352,62.928,7.632,62.928,7.632,63.072,135.936,63.072,135.936,60.912"  fill="black"/>
     <polygon stroke="none" stroke-width="0" points="0,63.072,0,63.216,135.936,63.216,135.936,63.072"  fill="black"/>
     <polygon stroke="none" stroke-width="0" points="0,63.072,0,63.216,135.936,63.216,135.936,63.072"  fill="black"/>
     <polygon stroke="none" stroke-width="0" points="0,63.216,0,65.088,135.936,65.088,135.936,63.216"  fill="black"/>
     <g  id="connector0pad">
      <circle stroke="none" stroke-width="0" cx="102.846"  fill="black" cy="8.57131" r="2.7"/>
     </g>
    </g>
   </g>
  </g>
  <g partID="854746820">
   <g transform="translate(79.704,54.288)">
    <g  id="groundplane">
     <polygon stroke="none" stroke-width="0" points="0,0,3.24,0,3.24,2.304,0,2.304"  fill="black"/>
    </g>
   </g>
  </g>
  <g partID="854746830">
   <g transform="translate(130.176,13.392)">
    <g  id="groundplane">
     <polygon stroke="none" stroke-width="0" points="0,0,3.096,0,3.096,2.304,0,2.304"  fill="black"/>
    </g>
   </g>
  </g>
  <g partID="854746840">
   <g transform="translate(130.176,18.144)">
    <g  id="groundplane">
     <polygon stroke="none" stroke-width="0" points="0,0,3.096,0,3.096,2.304,0,2.304"  fill="black"/>
    </g>
   </g>
  </g>
  <g partID="854746850">
   <g transform="translate(6.192,31.824)">
    <g  id="groundplane">
     <polygon stroke="none" stroke-width="0" points="0,0,6.264,0,6.264,2.16,0,2.16"  fill="black"/>
    </g>
   </g>
  </g>
  <g partID="854746860">
   <g transform="translate(2.592,35.424)">
    <g  id="groundplane">
     <polygon stroke="none" stroke-width="0" points="0,0,2.16,0,2.16,6.264,0,6.264"  fill="black"/>
    </g>
   </g>
  </g>
  <g partID="854746870">
   <g transform="translate(29.304,25.488)">
    <g  id="groundplane">
     <polygon stroke="none" stroke-width="0" points="0,0,3.24,0,3.24,2.448,0,2.448"  fill="black"/>
    </g>
   </g>
  </g>
  <g partID="854746880">
   <g transform="translate(32.256,22.536)">
    <g  id="groundplane">
     <polygon stroke="none" stroke-width="0" points="0,0,2.448,0,2.448,3.24,0,3.24"  fill="black"/>
    </g>
   </g>
  </g>
  <g partID="854614440">
   <g transform="translate(110.254,40.1082)">
    <g transform="matrix(-3.33067e-16,-1,1,-3.33067e-16,0,0)">
     <g  id="copper0">
      <rect stroke="black" stroke-width="1.44" width="4.464" height="4.464" y="12.168"  fill="none" x="6.408"/>
      <circle stroke="black" stroke-width="1.44" cx="8.64"  fill="none" id="connector0pad" cy="14.4" r="2.232"/>
      <circle stroke="black" stroke-width="1.44" cx="15.84"  fill="none" id="connector1pad" cy="14.4" r="2.232"/>
      <circle stroke="black" stroke-width="1.44" cx="23.04"  fill="none" id="connector2pad" cy="14.4" r="2.232"/>
     </g>
    </g>
   </g>
  </g>
  <g partID="854628310">
   <g transform="translate(128.758,48.5682)">
    <g transform="matrix(-3.33067e-16,-1,1,-3.33067e-16,0,0)">
     <g  id="copper0">
      <g  id="copper1">
       <!-- <rect width="55" x="10" y="15.5" fill="none" height="55" stroke="rgb(255, 191, 0)" stroke-width="20" />  -->
       <circle stroke="black" stroke-width="1.44" cx="2.7"  fill="none" id="connector0pin" cy="3.096" r="1.98"/>
       <circle stroke="black" stroke-width="1.44" cx="31.5"  fill="none" id="connector1pin" cy="3.096" r="1.98"/>
      </g>
     </g>
    </g>
   </g>
  </g>
  <g partID="854614380">
   <g transform="translate(100.354,49.9722)">
    <g  id="copper0">
     <g  id="copper1">
      <!-- <rect width="55" x="10" y="15.5" fill="none" height="55" stroke="rgb(255, 191, 0)" stroke-width="20" />  -->
      <circle stroke="black" stroke-width="1.44" cx="2.7"  fill="none" id="connector0pin" cy="3.096" r="1.98"/>
      <circle stroke="black" stroke-width="1.44" cx="31.5"  fill="none" id="connector1pin" cy="3.096" r="1.98"/>
     </g>
    </g>
   </g>
  </g>
  <g partID="854614610">
   <g transform="translate(59.5664,67.7562)">
    <g transform="matrix(0,-1,1,0,0,0)">
     <g  id="copper0">
      <circle connectorname="IN" stroke="black" stroke-width="1.24668" cx="7.488"  id="connector1pad" fill="none" cy="7.488" r="2.04066"/>
      <path stroke="none" stroke-width="0"  fill="black" d="m4.824,4.824,5.328,0,0,5.328,-5.328,0,0,-5.328zM6.07068,7.488a1.41732,1.41732,0,1,0,2.83465,0,1.41732,1.41732,0,1,0,-2.83465,0z"/>
      <circle connectorname="GND" stroke="black" stroke-width="1.24668" cx="14.688"  id="connector0pad" fill="none" cy="7.488" r="2.04066"/>
      <circle connectorname="OUT" stroke="black" stroke-width="1.24668" cx="21.888"  id="connector2pad" fill="none" cy="7.488" r="2.04066"/>
     </g>
    </g>
   </g>
  </g>
  <g partID="854614640">
   <g transform="translate(112.414,7.70816)">
    <g transform="matrix(0,-1,1,0,0,0)">
     <g  id="copper0">
      <rect stroke="black" stroke-width="1.44" width="4.176" height="4.176" y="2.952"  id="square" fill="none" x="2.952"/>
      <circle stroke="black" stroke-width="1.44" cx="5.04"  fill="none" id="connector0pin" cy="5.04" r="2.088"/>
      <circle stroke="black" stroke-width="1.44" cx="5.04"  fill="none" id="connector1pin" cy="12.24" r="2.088"/>
      <circle stroke="black" stroke-width="1.44" cx="5.04"  fill="none" id="connector2pin" cy="19.44" r="2.088"/>
     </g>
    </g>
   </g>
  </g>
  <g partID="854617700">
   <g transform="translate(-3.15752,32.8362)">
    <g  id="copper0">
     <circle connectorname="PWR" stroke="black" stroke-width="1.29657" cx="12.6119"  id="connector2pad" fill="none" cy="5.832" r="5.18372"/>
     <circle connectorname="GND" stroke="black" stroke-width="1.584" cx="12.6839"  id="connector0pad" fill="none" cy="26.5839" r="5.04"/>
     <circle connectorname="GNDBREAK" stroke="black" stroke-width="1.584" cx="23.2747"  id="connector1pad" fill="none" cy="14.8399" r="5.04"/>
    </g>
   </g>
  </g>
  <g partID="854624360">
   <g transform="translate(58.2672,13.6346)">
    <g  id="copper0">
     <g  id="copper1">
      <circle stroke="black" stroke-width="1.13384" cx="8.7876"  id="connector1pad" fill="none" cy="10.6336" r="1.7008"/>
      <rect stroke="black" stroke-width="1.13384" width="3.4016" y="8.9328" height="3.4016"  fill="none" x="7.0868"/>
      <circle stroke="black" stroke-width="1.13384" cx="8.7876"  id="connector0pad" fill="none" cy="3.5464" r="1.7008"/>
     </g>
    </g>
   </g>
  </g>
  <g partID="854630480">
   <g transform="translate(53.0144,49.1082)">
    <g transform="matrix(4.996e-16,1,-1,4.996e-16,0,0)">
     <g  id="copper0">
      <rect stroke="black" stroke-width="1.44" width="3.96" height="3.96" y="5.58"  id="rect11" fill="none" x="1.98"/>
      <circle stroke="black" stroke-width="1.44" cx="3.96"  id="connector0pin" fill="none" cy="7.56" r="1.98"/>
      <circle stroke="black" stroke-width="1.44" cx="11.16"  id="connector1pin" fill="none" cy="7.56" r="1.98"/>
     </g>
    </g>
   </g>
  </g>
  <g partID="854693880">
   <g transform="translate(22.0544,38.6682)">
    <g transform="matrix(0,-1,1,0,0,0)">
     <g id="copper0">
      <rect stroke="black" stroke-width="1.44" width="4.32" height="4.32" y="6.84" id="square" fill="none" x="12.24"/>
      <circle stroke="black" stroke-width="1.44" cx="14.4" fill="none" id="connector0pin" cy="9" r="2.16"/>
      <circle stroke="black" stroke-width="1.44" cx="14.4" fill="none" id="connector1pin" cy="23.4" r="2.16"/>
     </g>
    </g>
   </g>
  </g>
  <g partID="854736630">
   <g transform="translate(76.4144,58.1082)">
    <g transform="matrix(-4.44089e-16,-1,1,-4.44089e-16,0,0)">
     <g  id="copper0">
      <circle stroke="black" stroke-width="1.44" cx="5.04"  fill="none" id="connector0pin" cy="5.04" r="2.088"/>
      <circle stroke="black" stroke-width="1.44" cx="5.04"  fill="none" id="connector1pin" cy="12.24" r="2.088"/>
     </g>
    </g>
   </g>
  </g>
  <g partID="854711760">
   <g transform="translate(90.8144,48.0282)">
    <g  id="copper0">
     <circle stroke="black" stroke-width="1.44" cx="5.04"  fill="none" id="connector0pin" cy="5.04" r="2.088"/>
    </g>
   </g>
  </g>
  <g partID="854745610">
   <line y1="45.8682" stroke="black" stroke-width="1.728" x1="88.6544" y2="45.8682" stroke-linecap="round" x2="69.2717"/>
  </g>
  <g partID="854745240">
   <line y1="50.9002" stroke="black" stroke-width="1.728" x1="88.6544" y2="45.8682" stroke-linecap="round" x2="88.6544"/>
  </g>
  <g partID="854745420">
   <line y1="53.0682" stroke="black" stroke-width="1.728" x1="69.2717" y2="53.0682" stroke-linecap="round" x2="79.2864"/>
  </g>
  <g partID="854744610">
   <line y1="17.0682" stroke="black" stroke-width="1.728" x1="129.794" y2="17.0682" stroke-linecap="round" x2="126.966"/>
  </g>
  <g partID="854711930">
   <line y1="53.0682" stroke="black" stroke-width="1.728" x1="98.0224" y2="53.0682" stroke-linecap="round" x2="100.994"/>
  </g>
  <g partID="854739480">
   <line y1="17.181" stroke="black" stroke-width="1.728" x1="52.6296" y2="51.0481" stroke-linecap="round" x2="45.8587"/>
  </g>
  <g partID="854730310">
   <line y1="53.0682" stroke="black" stroke-width="1.728" x1="47.5144" y2="53.0682" stroke-linecap="round" x2="64.8371"/>
  </g>
  <g partID="854730370">
   <line y1="22.0285" stroke="black" stroke-width="1.728" x1="31.0176" y2="17.181" stroke-linecap="round" x2="30.938"/>
  </g>
  <g partID="854730530">
   <line y1="35.7086" stroke="black" stroke-width="1.728" x1="13.8938" y2="25.5107" stroke-linecap="round" x2="29.1906"/>
  </g>
  <g partID="854743400">
   <line y1="24.2682" stroke="black" stroke-width="1.728" x1="117.454" y2="4.83616" stroke-linecap="round" x2="117.454"/>
  </g>
  <g partID="854729230">
   <line y1="24.2682" stroke="black" stroke-width="1.728" x1="122.342" y2="24.2682" stroke-linecap="round" x2="117.454"/>
  </g>
  <g partID="854739710">
   <line y1="14.7562" stroke="black" stroke-width="1.728" x1="124.654" y2="4.83616" stroke-linecap="round" x2="124.654"/>
  </g>
  <g partID="854739270">
   <line y1="17.181" stroke="black" stroke-width="1.728" x1="30.938" y2="17.181" stroke-linecap="round" x2="52.6292"/>
  </g>
  <g partID="854728990">
   <line y1="26.202" stroke="black" stroke-width="1.728" x1="67.0552" y2="43.6508" stroke-linecap="round" x2="67.0548"/>
  </g>
  <g partID="854728750">
   <line y1="47.9282" stroke="black" stroke-width="1.728" x1="131.854" y2="51.0082" stroke-linecap="round" x2="131.854"/>
  </g>
  <g partID="854743770">
   <line y1="45.8682" stroke="black" stroke-width="1.728" x1="124.654" y2="45.8682" stroke-linecap="round" x2="129.794"/>
  </g>
  <g partID="854728810">
   <line y1="33.7802" stroke="black" stroke-width="1.728" x1="124.654" y2="45.8682" stroke-linecap="round" x2="124.654"/>
  </g>
  <g partID="854729170">
   <line y1="16.6458" stroke="black" stroke-width="1.728" x1="68.9136" y2="3.26807" stroke-linecap="round" x2="115.371"/>
  </g>
  <g partID="854729430">
   <line y1="60.2682" stroke="black" stroke-width="1.728" x1="47.5144" y2="60.2682" stroke-linecap="round" x2="64.8371"/>
  </g>
  <g partID="854730090">
   <line y1="53.0457" stroke="black" stroke-width="1.728" x1="69.2716" y2="52.9962" stroke-linecap="round" x2="74.1728"/>
  </g>
  <g partID="854730130">
   <line y1="52.9962" stroke="black" stroke-width="1.728" x1="74.1728" y2="67.373" stroke-linecap="round" x2="74.32"/>
  </g>
  <g partID="854731470">
   <line y1="67.4162" stroke="black" stroke-width="1.728" x1="139.062" y2="17.0682" stroke-linecap="round" x2="139.054"/>
  </g>
  <g partID="854730230">
   <line y1="67.373" stroke="black" stroke-width="1.728" x1="74.32" y2="67.4162" stroke-linecap="round" x2="139.062"/>
  </g>
  <g partID="854730270">
   <line y1="17.0682" stroke="black" stroke-width="1.728" x1="139.054" y2="17.0682" stroke-linecap="round" x2="126.966"/>
  </g>
  <g partID="854732250">
   <line y1="60.2066" stroke="black" stroke-width="1.728" x1="45.5736" y2="59.3209" stroke-linecap="round" x2="47.2839"/>
  </g>
  <g partID="854732490">
   <line y1="60.2066" stroke="black" stroke-width="1.728" x1="31.1535" y2="60.2069" stroke-linecap="round" x2="45.5734"/>
  </g>
  <g partID="854732260">
   <line y1="26.3494" stroke="black" stroke-width="1.728" x1="44.6262" y2="60.2062" stroke-linecap="round" x2="31.1535"/>
  </g>
  <g partID="854732860">
   <line y1="60.2066" stroke="black" stroke-width="1.728" x1="31.1535" y2="59.6038" stroke-linecap="round" x2="14.5711"/>
  </g>
  <g partID="854732870">
   <line y1="60.2593" stroke="black" stroke-width="1.728" x1="43.3944" y2="60.2066" stroke-linecap="round" x2="31.1535"/>
  </g>
 </g>
</svg>
