<?xml version='1.0' encoding='UTF-8' standalone='no'?>
<!-- Created with Fritzing (http://www.fritzing.org/) -->
<svg xmlns="http://www.w3.org/2000/svg" xmlns:svg="http://www.w3.org/2000/svg" viewBox="0 0 141.732 70.8661" width="1.9685in" y="0in" height="0.984252in"  version="1.2" baseProfile="tiny" x="0in">
 <g transform="matrix(-1, 0, 0, 1, 141.732, 0)">
  <g partID="57660">
   <g  id="board">
    <rect fill-opacity="0.5" stroke="black" stroke-width="0.5" width="141.156" height="70.2901" y="0.288"  id="boardoutline" fill="none" x="0.288"/>
   </g>
  </g>
  <g partID="854614440">
   <g transform="translate(110.254,40.1082)">
    <g transform="matrix(-3.33067e-16,-1,1,-3.33067e-16,0,0)">
     <g  id="copper0">
      <rect stroke="black" stroke-width="2.16" width="4.464" height="4.464" y="12.168"  fill="black" x="6.408"/>
      <circle stroke="black" stroke-width="2.16" cx="8.64"  fill="black" id="connector0pad" cy="14.4" r="2.232"/>
      <circle stroke="black" stroke-width="2.16" cx="15.84"  fill="black" id="connector1pad" cy="14.4" r="2.232"/>
      <circle stroke="black" stroke-width="2.16" cx="23.04"  fill="black" id="connector2pad" cy="14.4" r="2.232"/>
     </g>
    </g>
   </g>
  </g>
  <g partID="854628310">
   <g transform="translate(128.758,48.5682)">
    <g transform="matrix(-3.33067e-16,-1,1,-3.33067e-16,0,0)">
     <g  id="copper0">
      <g  id="copper1">
       <!-- <rect width="55" x="10" y="15.5" fill="none" height="55" stroke="rgb(255, 191, 0)" stroke-width="20" />  -->
       <circle stroke="black" stroke-width="2.16" cx="2.7"  fill="black" id="connector0pin" cy="3.096" r="1.98"/>
       <circle stroke="black" stroke-width="2.16" cx="31.5"  fill="black" id="connector1pin" cy="3.096" r="1.98"/>
      </g>
     </g>
    </g>
   </g>
  </g>
  <g partID="854614380">
   <g transform="translate(100.354,49.9722)">
    <g  id="copper0">
     <g  id="copper1">
      <!-- <rect width="55" x="10" y="15.5" fill="none" height="55" stroke="rgb(255, 191, 0)" stroke-width="20" />  -->
      <circle stroke="black" stroke-width="2.16" cx="2.7"  fill="black" id="connector0pin" cy="3.096" r="1.98"/>
      <circle stroke="black" stroke-width="2.16" cx="31.5"  fill="black" id="connector1pin" cy="3.096" r="1.98"/>
     </g>
    </g>
   </g>
  </g>
  <g partID="854614610">
   <g transform="translate(59.5664,67.7562)">
    <g transform="matrix(0,-1,1,0,0,0)">
     <g  id="copper0">
      <circle connectorname="IN" stroke="black" stroke-width="1.96668" cx="7.488"  id="connector1pad" fill="black" cy="7.488" r="2.04066"/>
      <path stroke="black" stroke-width="0.72"  fill="black" d="m4.824,4.824,5.328,0,0,5.328,-5.328,0,0,-5.328zM6.07068,7.488a1.41732,1.41732,0,1,0,2.83465,0,1.41732,1.41732,0,1,0,-2.83465,0z"/>
      <circle connectorname="GND" stroke="black" stroke-width="1.96668" cx="14.688"  id="connector0pad" fill="black" cy="7.488" r="2.04066"/>
      <circle connectorname="OUT" stroke="black" stroke-width="1.96668" cx="21.888"  id="connector2pad" fill="black" cy="7.488" r="2.04066"/>
     </g>
    </g>
   </g>
  </g>
  <g partID="854614640">
   <g transform="translate(112.414,7.70816)">
    <g transform="matrix(0,-1,1,0,0,0)">
     <g  id="copper0">
      <rect stroke="black" stroke-width="2.16" width="4.176" height="4.176" y="2.952"  id="square" fill="black" x="2.952"/>
      <circle stroke="black" stroke-width="2.16" cx="5.04"  fill="black" id="connector0pin" cy="5.04" r="2.088"/>
      <circle stroke="black" stroke-width="2.16" cx="5.04"  fill="black" id="connector1pin" cy="12.24" r="2.088"/>
      <circle stroke="black" stroke-width="2.16" cx="5.04"  fill="black" id="connector2pin" cy="19.44" r="2.088"/>
     </g>
    </g>
   </g>
  </g>
  <g partID="854617700">
   <g transform="translate(-3.15752,32.8362)">
    <g  id="copper0">
     <circle connectorname="PWR" stroke="black" stroke-width="2.01657" cx="12.6119"  id="connector2pad" fill="black" cy="5.832" r="5.18372"/>
     <circle connectorname="GND" stroke="black" stroke-width="2.304" cx="12.6839"  id="connector0pad" fill="black" cy="26.5839" r="5.04"/>
     <circle connectorname="GNDBREAK" stroke="black" stroke-width="2.304" cx="23.2747"  id="connector1pad" fill="black" cy="14.8399" r="5.04"/>
    </g>
   </g>
  </g>
  <g partID="854624360">
   <g transform="translate(58.2672,13.6346)">
    <g  id="copper0">
     <g  id="copper1">
      <circle stroke="black" stroke-width="1.85384" cx="8.7876"  id="connector1pad" fill="black" cy="10.6336" r="1.7008"/>
      <rect stroke="black" stroke-width="1.85384" width="3.4016" y="8.9328" height="3.4016"  fill="black" x="7.0868"/>
      <circle stroke="black" stroke-width="1.85384" cx="8.7876"  id="connector0pad" fill="black" cy="3.5464" r="1.7008"/>
     </g>
    </g>
   </g>
  </g>
  <g partID="854630480">
   <g transform="translate(53.0144,49.1082)">
    <g transform="matrix(4.996e-16,1,-1,4.996e-16,0,0)">
     <g  id="copper0">
      <rect stroke="black" stroke-width="2.16" width="3.96" height="3.96" y="5.58"  id="rect11" fill="black" x="1.98"/>
      <circle stroke="black" stroke-width="2.16" cx="3.96"  id="connector0pin" fill="black" cy="7.56" r="1.98"/>
      <circle stroke="black" stroke-width="2.16" cx="11.16"  id="connector1pin" fill="black" cy="7.56" r="1.98"/>
     </g>
    </g>
   </g>
  </g>
  <g partID="854693880">
   <g transform="translate(22.0544,38.6682)">
    <g transform="matrix(0,-1,1,0,0,0)">
     <g id="copper0">
      <rect stroke="black" stroke-width="2.16" width="4.32" height="4.32" y="6.84" id="square" fill="black" x="12.24"/>
      <circle stroke="black" stroke-width="2.16" cx="14.4" fill="black" id="connector0pin" cy="9" r="2.16"/>
      <circle stroke="black" stroke-width="2.16" cx="14.4" fill="black" id="connector1pin" cy="23.4" r="2.16"/>
     </g>
    </g>
   </g>
  </g>
  <g partID="854736630">
   <g transform="translate(76.4144,58.1082)">
    <g transform="matrix(-4.44089e-16,-1,1,-4.44089e-16,0,0)">
     <g  id="copper0">
      <circle stroke="black" stroke-width="2.16" cx="5.04"  fill="black" id="connector0pin" cy="5.04" r="2.088"/>
      <circle stroke="black" stroke-width="2.16" cx="5.04"  fill="black" id="connector1pin" cy="12.24" r="2.088"/>
     </g>
    </g>
   </g>
  </g>
  <g partID="854711760">
   <g transform="translate(90.8144,48.0282)">
    <g  id="copper0">
     <circle stroke="black" stroke-width="2.16" cx="5.04"  fill="black" id="connector0pin" cy="5.04" r="2.088"/>
    </g>
   </g>
  </g>
 </g>
</svg>
