<?xml version="1.0" encoding="UTF-8" standalone="no"?>
<!-- Created with Fritzing (http://www.fritzing.org/) -->

<svg
   xmlns:dc="http://purl.org/dc/elements/1.1/"
   xmlns:cc="http://creativecommons.org/ns#"
   xmlns:rdf="http://www.w3.org/1999/02/22-rdf-syntax-ns#"
   xmlns:svg="http://www.w3.org/2000/svg"
   xmlns="http://www.w3.org/2000/svg"
   xmlns:sodipodi="http://sodipodi.sourceforge.net/DTD/sodipodi-0.dtd"
   xmlns:inkscape="http://www.inkscape.org/namespaces/inkscape"
   viewBox="0 0 141.73227 70.866095"
   width="177.16534"
   y="0in"
   height="88.582672"
   version="1.2"
   x="0in"
   id="svg4364"
   inkscape:version="0.48.5 r10040"
   sodipodi:docname="PCB_etch_copper_bottom.gcode">
  <metadata
     id="metadata4821">
    <rdf:RDF>
      <cc:Work
         rdf:about="">
        <dc:format>image/svg+xml</dc:format>
        <dc:type
           rdf:resource="http://purl.org/dc/dcmitype/StillImage" />
        <dc:title></dc:title>
      </cc:Work>
    </rdf:RDF>
  </metadata>
  <defs
     id="defs4819" />
  <sodipodi:namedview
     pagecolor="#ffffff"
     bordercolor="#666666"
     borderopacity="1"
     objecttolerance="10"
     gridtolerance="10"
     guidetolerance="10"
     inkscape:pageopacity="0"
     inkscape:pageshadow="2"
     inkscape:window-width="1680"
     inkscape:window-height="988"
     id="namedview4817"
     showgrid="false"
     inkscape:document-units="mm"
     units="mm"
     inkscape:zoom="4.3518665"
     inkscape:cx="145.70184"
     inkscape:cy="64.354118"
     inkscape:window-x="-8"
     inkscape:window-y="-8"
     inkscape:window-maximized="1"
     inkscape:current-layer="svg4364"
     showguides="true"
     inkscape:guide-bbox="true" />
  <g
     partID="57660"
     id="g4366"
     transform="translate(95.774992,-47.244108)">
    <g
       id="board">
      <path
         style="fill:none;stroke:#000000;stroke-width:0.5"
         d="m 0.28799999,0.28799999 141.15601001,0 0,70.29010001 -141.15601001,0 z"
         id="boardoutline"
         inkscape:connector-curvature="0" />
    </g>
  </g>
  <g
     partID="854746800"
     id="g4370"
     transform="translate(95.774992,-47.244108)">
    <g
       transform="translate(2.88,2.88)"
       id="g4372">
      <g
         id="groundplane">
        <path
           style="fill:#000000;stroke:none"
           d="m 67.392,11.664 0.432,0 0,-0.144 0.576,0 0,-0.144 0.432,0 0,-0.144 0.576,0 0,-0.144 0.432,0 0,-0.144 0.576,0 0,-0.144 0.432,0 0,-0.144 0.576,0 0,-0.144 0.432,0 0,-0.144 0.432,0 0,-0.144 0.576,0 0,-0.144 0.432,0 0,-0.144 0.576,0 0,-0.144 0.432,0 0,-0.144 0.576,0 0,-0.144 0.432,0 0,-0.144 0.576,0 0,-0.144 0.432,0 0,-0.144 0.576,0 0,-0.144 0.432,0 0,-0.144 0.576,0 0,-0.144 0.432,0 0,-0.144 0.576,0 0,-0.144 0.432,0 0,-0.144 0.576,0 0,-0.144 0.432,0 0,-0.144 0.576,0 0,-0.144 0.432,0 0,-0.144 0.432,0 0,-0.144 0.576,0 0,-0.144 0.432,0 0,-0.144 0.576,0 0,-0.144 0.432,0 0,-0.144 0.576,0 0,-0.144 0.432,0 0,-0.144 0.576,0 0,-0.144 0.432,0 0,-0.144 0.576,0 0,-0.144 0.432,0 0,-0.144 0.576,0 0,-0.144 0.432,0 0,-0.144 0.576,0 0,-0.144 0.432,0 0,-0.144 0.576,0 0,-0.144 0.432,0 0,-0.144 0.576,0 0,-0.144 0.432,0 0,-0.144 0.432,0 0,-0.144 0.576,0 0,-0.144 0.432,0 0,-0.144 0.576,0 0,-0.144 0.432,0 0,-0.144 0.576,0 0,-0.144 0.432,0 0,-0.144 0.576,0 0,-0.144 0.432,0 0,-0.144 0.576,0 0,-0.144 0.432,0 0,-0.144 0.576,0 0,-0.144 0.432,0 0,-0.144 0.576,0 0,-0.144 0.432,0 0,-0.144 0.576,0 0,-0.144 0.432,0 0,-0.144 0.432,0 0,-0.144 0.576,0 0,-0.144 0.432,0 0,-0.144 0.576,0 0,-0.144 0.432,0 0,-0.144 0.576,0 0,-0.144 0.432,0 0,-0.144 0.576,0 0,-1.44 L 0,0 l 0,11.376 64.944,0 0,0.144 0.432,0 0,0.144 0.288,0 0,0.144 1.728,0 z"
           id="polygon4375"
           inkscape:connector-curvature="0" />
        <path
           style="fill:#000000;stroke:none"
           d="m 44.496,18.432 0.144,0 0,0.144 0.288,0 0,0.144 0.144,0 0,0.144 0.144,0 0,0.144 0.144,0 0,0.288 0.144,0 0,0.144 0.144,0 0,0.288 0.144,0 0,0.144 0.144,0 0,0.432 0.144,0 0,0.72 0.144,0 0,0.72 -0.144,0 0,0.72 -0.144,0 0,0.432 -0.144,0 0,0.144 -0.144,0 0,0.288 -0.144,0 0,0.288 -0.144,0 0,0.144 -0.144,0 0,0.144 -0.144,0 0,0.144 -0.144,0 0,0.144 -0.288,0 0,0.144 -0.144,0 0,0.144 -0.288,0 0,0.144 -0.288,0 0,0.144 -0.288,0 0,0.144 -0.72,0 0,0.144 -0.144,0 0,0.288 -0.144,0 0,0.432 -0.144,0 0,0.288 -0.144,0 0,0.432 -0.144,0 0,0.288 -0.144,0 0,0.432 -0.144,0 0,0.288 -0.144,0 0,0.432 -0.144,0 0,0.288 -0.144,0 0,0.432 -0.144,0 0,0.288 -0.144,0 0,0.432 -0.144,0 0,0.288 -0.144,0 0,0.432 -0.144,0 0,0.288 -0.144,0 0,0.432 -0.144,0 0,0.288 -0.144,0 0,0.432 -0.144,0 0,0.288 -0.144,0 0,0.432 -0.144,0 0,0.288 -0.144,0 0,0.432 -0.144,0 0,0.288 -0.144,0 0,0.432 -0.144,0 0,0.288 -0.144,0 0,0.432 -0.144,0 0,0.288 -0.144,0 0,0.432 -0.144,0 0,0.432 -0.144,0 0,0.288 -0.144,0 0,0.432 -0.144,0 0,0.288 -0.144,0 0,0.432 -0.144,0 0,0.288 -0.144,0 0,0.432 -0.144,0 0,0.288 -0.144,0 0,0.432 -0.144,0 0,0.288 -0.144,0 0,0.432 -0.144,0 0,0.288 -0.144,0 0,0.432 -0.144,0 0,0.288 -0.144,0 0,0.432 -0.144,0 0,0.288 -0.144,0 0,0.432 -0.144,0 0,0.288 -0.144,0 0,0.432 -0.144,0 0,0.288 -0.144,0 0,0.432 -0.144,0 0,0.288 -0.144,0 0,0.432 -0.144,0 0,0.288 -0.144,0 0,0.432 -0.144,0 0,0.288 -0.144,0 0,0.432 -0.144,0 0,0.288 -0.144,0 0,0.432 -0.144,0 0,0.288 -0.144,0 0,0.432 -0.144,0 0,0.288 -0.144,0 0,0.144 11.808,0 0,6.768 -1.008,0 0,1.44 0.288,0 0,0.144 0.144,0 0,0.144 0.144,0 0,0.144 0.144,0 0,0.144 0.144,0 0,0.288 14.976,0 0,-1.872 1.008,0 0,-1.584 -0.144,0 0,-0.144 -0.144,0 0,-0.144 -0.144,0 0,-0.288 -0.144,0 0,-0.144 -0.144,0 0,-0.432 -0.144,0 0,-0.576 -0.144,0 0,-1.008 0.144,0 0,-0.576 0.144,0 0,-0.432 0.144,0 0,-0.144 0.144,0 0,-0.288 0.144,0 0,-0.144 0.144,0 0,-0.144 0.144,0 0,-0.144 0.144,0 0,-0.144 0.144,0 0,-0.144 0.144,0 0,-0.144 0.288,0 0,-1.44 -0.144,0 0,-0.144 -0.144,0 0,-0.144 -0.144,0 0,-0.144 -0.288,0 0,-0.288 -0.144,0 0,-0.144 -0.144,0 0,-0.144 -0.144,0 0,-0.288 -0.144,0 0,-0.144 -0.144,0 0,-0.432 -0.144,0 0,-0.576 -0.144,0 0,-1.008 0.144,0 0,-0.576 0.144,0 0,-0.432 0.144,0 0,-0.144 0.144,0 0,-0.288 0.144,0 0,-0.144 0.144,0 0,-0.144 0.144,0 0,-0.144 0.144,0 0,-0.144 0.144,0 0,-0.144 0.144,0 0,-0.144 0.288,0 0,-0.144 0.144,0 0,-15.696 -1.44,0 0,-5.904 1.872,0 0,-1.44 -0.288,0 0,-0.144 -0.288,0 0,-0.144 -0.144,0 0,-0.144 -0.144,0 0,-0.144 -0.144,0 0,-0.144 -0.144,0 0,-0.144 -0.144,0 0,-0.144 -0.144,0 0,-0.288 -0.144,0 0,-0.288 -0.144,0 0,-0.432 -0.144,0 0,-1.296 0.144,0 0,-0.576 0.144,0 0,-0.144 0.144,0 0,-0.288 0.144,0 0,-0.288 0.144,0 0,-0.144 0.144,0 0,-0.144 0.144,0 0,-0.144 0.288,0 0,-0.144 0.144,0 0,-0.144 0.288,0 0,-0.144 0.432,0 0,-0.144 -63.36,0 0,6.48 43.488,0 0,0.144 0.432,0 0,0.144 0.288,0 0,0.144 0.288,0 z"
           id="polygon4377"
           inkscape:connector-curvature="0" />
        <path
           style="fill:#000000;stroke:none"
           d="m 0,25.056 24.624,0 0,-7.2 -24.624,0 z"
           id="polygon4379"
           inkscape:connector-curvature="0" />
        <path
           style="fill:#000000;stroke:none"
           d="m 39.456,23.04 -0.144,0 0,-0.288 -0.144,0 0,-0.432 -0.144,0 0,-1.872 0.144,0 0,-0.432 0.144,0 0,-0.288 0.144,0 0,-0.288 0.144,0 0,-0.144 0.144,0 0,-0.144 0.144,0 0,-0.288 0.144,0 0,-0.144 0.288,0 0,-0.144 0.144,0 0,-0.144 0.144,0 0,-0.144 0.288,0 0,-0.144 0.288,0 0,-0.144 0.432,0 0,-0.144 -9.792,0 0,7.056 -0.144,0 0,0.144 7.776,0 0,-0.288 0.144,0 0,-1.44 -0.144,0 z"
           id="polygon4381"
           inkscape:connector-curvature="0" />
        <path
           style="fill:#000000;stroke:none"
           d="m 0,25.2 39.312,0 0,-0.144 -39.312,0 z"
           id="polygon4383"
           inkscape:connector-curvature="0" />
        <path
           style="fill:#000000;stroke:none"
           d="m 0,25.2 39.312,0 0,-0.144 -39.312,0 z"
           id="polygon4385"
           inkscape:connector-curvature="0" />
        <path
           style="fill:#000000;stroke:none"
           d="m 9.072,29.808 0.288,0 0,0.144 0.288,0 0,0.144 0.288,0 0,0.144 0.288,0 0,0.144 0.144,0 0,0.144 0.144,0 0,0.144 0.288,0 0,0.144 0.144,0 0,0.144 0.144,0 0,0.144 0.144,0 0,0.144 0.144,0 0,0.144 0.144,0 0,0.144 0.144,0 0,0.288 0.144,0 0,0.144 0.144,0 0,0.144 0.144,0 0,0.288 0.144,0 0,0.288 0.144,0 0,0.288 0.144,0 0,0.288 0.144,0 0,0.288 0.144,0 0,0.576 0.144,0 0,0.576 0.144,0 0,2.16 -0.144,0 0,0.576 -0.144,0 0,0.576 -0.144,0 0,0.288 5.76,0 0,0.144 0.72,0 0,0.144 0.432,0 0,0.144 0.288,0 0,0.144 0.288,0 0,0.144 0.288,0 0,0.144 0.288,0 0,0.144 0.144,0 0,0.144 0.288,0 0,0.144 0.144,0 0,0.144 0.144,0 0,0.144 0.144,0 0,0.144 0.144,0 0,0.144 0.144,0 0,0.144 0.144,0 0,0.144 0.144,0 0,0.144 0.144,0 0,0.144 0.144,0 0,0.144 0.144,0 0,0.288 0.144,0 0,0.144 0.144,0 0,0.288 0.144,0 0,0.288 0.144,0 0,0.288 0.144,0 0,0.432 0.144,0 0,0.432 0.144,0 0,0.72 0.144,0 0,2.016 -0.144,0 0,0.72 -0.144,0 0,0.432 -0.144,0 0,0.432 -0.144,0 0,0.288 -0.144,0 0,0.288 -0.144,0 0,0.288 -0.144,0 0,0.144 -0.144,0 0,0.288 -0.144,0 0,0.144 -0.144,0 0,0.144 -0.144,0 0,0.144 -0.144,0 0,0.288 -0.144,0 0,0.144 -0.288,0 0,0.144 -0.144,0 0,0.144 -0.144,0 0,0.144 -0.144,0 0,0.144 -0.288,0 0,0.144 -0.144,0 0,0.144 -0.288,0 0,0.144 -0.288,0 0,0.144 -0.288,0 0,0.144 -0.288,0 0,0.144 -0.432,0 0,0.144 -0.576,0 0,0.144 -1.152,0 0,0.144 11.52,0 0,-0.288 0.144,0 0,-0.288 0.144,0 0,-0.432 0.144,0 0,-0.288 0.144,0 0,-0.432 0.144,0 0,-0.288 0.144,0 0,-0.432 0.144,0 0,-0.288 0.144,0 0,-0.432 0.144,0 0,-0.288 0.144,0 0,-0.432 0.144,0 0,-0.288 0.144,0 0,-0.432 0.144,0 0,-0.288 0.144,0 0,-0.432 0.144,0 0,-0.288 0.144,0 0,-0.432 0.144,0 0,-0.288 0.144,0 0,-0.432 0.144,0 0,-0.288 0.144,0 0,-0.432 0.144,0 0,-0.288 0.144,0 0,-0.432 0.144,0 0,-0.288 0.144,0 0,-0.432 0.144,0 0,-0.288 0.144,0 0,-0.432 0.144,0 0,-0.288 0.144,0 0,-0.432 0.144,0 0,-0.288 0.144,0 0,-0.432 0.144,0 0,-0.432 0.144,0 0,-0.288 0.144,0 0,-0.432 0.144,0 0,-0.288 0.144,0 0,-0.432 0.144,0 0,-0.288 0.144,0 0,-0.432 0.144,0 0,-0.288 0.144,0 0,-0.432 0.144,0 0,-0.288 0.144,0 0,-0.432 0.144,0 0,-0.288 0.144,0 0,-0.432 0.144,0 0,-0.288 0.144,0 0,-0.432 0.144,0 0,-0.288 0.144,0 0,-0.432 0.144,0 0,-0.288 0.144,0 0,-0.432 0.144,0 0,-0.288 0.144,0 0,-0.432 0.144,0 0,-0.288 0.144,0 0,-0.432 0.144,0 0,-0.288 0.144,0 0,-0.432 0.144,0 0,-0.288 0.144,0 0,-0.432 0.144,0 0,-0.288 0.144,0 0,-0.432 0.144,0 0,-0.288 0.144,0 0,-0.432 0.144,0 0,-0.288 0.144,0 0,-0.432 0.144,0 0,-0.288 0.144,0 0,-0.432 0.144,0 0,-0.288 0.144,0 0,-0.432 0.144,0 0,-0.288 0.144,0 0,-0.432 0.144,0 0,-0.432 0.144,0 0,-0.288 0.144,0 0,-0.288 -39.312,0 0,4.032 7.488,0 0,0.144 0.72,0 0,0.144 0.432,0 0,0.144 0.432,0 z"
           id="polygon4387"
           inkscape:connector-curvature="0" />
        <path
           style="fill:#000000;stroke:none"
           d="m 1.872,31.104 0.144,0 0,-0.144 0.288,0 0,-0.144 0.144,0 0,-0.144 0.144,0 0,-0.144 0.144,0 0,-0.144 0.288,0 0,-0.144 0.144,0 0,-0.144 0.288,0 0,-0.144 0.288,0 0,-0.144 0.288,0 0,-0.144 0.432,0 0,-0.144 0.432,0 0,-0.144 0.864,0 0,-0.144 -5.76,0 0,2.592 1.44,0 0,-0.144 0.144,0 0,-0.144 0.144,0 0,-0.288 0.144,0 z"
           id="polygon4389"
           inkscape:connector-curvature="0" />
        <path
           style="fill:#000000;stroke:none"
           d="m 11.952,39.6 1.44,0 0,-0.144 0.144,0 0,-0.144 0.288,0 0,-0.144 0.144,0 0,-0.144 0.288,0 0,-0.144 0.288,0 0,-0.144 0.432,0 0,-0.144 0.432,0 0,-0.144 0.576,0 0,-0.144 -3.456,0 0,0.288 -0.144,0 0,0.288 -0.144,0 0,0.288 -0.144,0 0,0.288 -0.144,0 z"
           id="polygon4391"
           inkscape:connector-curvature="0" />
        <path
           style="fill:#000000;stroke:none"
           d="m 4.032,41.76 -0.288,0 0,-0.144 -0.288,0 0,-0.144 -0.288,0 0,-0.144 -0.144,0 0,-0.144 -0.288,0 0,-0.144 -0.144,0 0,-0.144 -0.144,0 0,-0.144 -0.288,0 0,-0.144 -0.144,0 0,-0.144 -0.144,0 0,-0.144 -0.144,0 0,-0.144 -0.144,0 0,-0.288 -0.144,0 0,-0.144 -1.44,0 0,2.592 5.616,0 0,-0.144 -0.72,0 0,-0.144 -0.432,0 0,-0.144 -0.432,0 z"
           id="polygon4393"
           inkscape:connector-curvature="0" />
        <path
           style="fill:#000000;stroke:none"
           d="m 9.648,41.616 -0.288,0 0,0.144 -0.288,0 0,0.144 -0.432,0 0,0.144 -0.432,0 0,0.144 -0.72,0 0,0.144 3.744,0 0,-0.288 0.144,0 0,-0.288 0.144,0 0,-0.288 0.144,0 0,-0.288 0.144,0 0,-0.144 0.144,0 0,-0.144 -1.44,0 0,0.144 -0.144,0 0,0.144 -0.144,0 0,0.144 -0.288,0 0,0.144 -0.288,0 z"
           id="polygon4395"
           inkscape:connector-curvature="0" />
        <path
           style="fill:#000000;stroke:none"
           d="m 0,42.48 11.088,0 0,-0.144 -11.088,0 z"
           id="polygon4397"
           inkscape:connector-curvature="0" />
        <path
           style="fill:#000000;stroke:none"
           d="m 0,42.48 11.088,0 0,-0.144 -11.088,0 z"
           id="polygon4399"
           inkscape:connector-curvature="0" />
        <path
           style="fill:#000000;stroke:none"
           d="m 9.072,50.544 0.288,0 0,0.144 0.432,0 0,0.144 0.144,0 0,0.144 0.288,0 0,0.144 0.144,0 0,0.144 0.288,0 0,0.144 6.336,0 0,-0.144 -1.152,0 0,-0.144 -0.576,0 0,-0.144 -0.432,0 0,-0.144 -0.288,0 0,-0.144 -0.288,0 0,-0.144 -0.288,0 0,-0.144 -0.288,0 0,-0.144 -0.144,0 0,-0.144 -0.144,0 0,-0.144 -0.288,0 0,-0.144 -0.144,0 0,-0.144 -0.144,0 0,-0.144 -0.144,0 0,-0.144 -0.144,0 0,-0.144 -0.144,0 0,-0.144 -0.144,0 0,-0.144 -0.144,0 0,-0.144 -0.144,0 0,-0.288 -0.144,0 0,-0.144 -0.144,0 0,-0.288 -0.144,0 0,-0.288 -0.144,0 0,-0.288 -0.144,0 0,-0.288 -0.144,0 0,-0.432 -0.144,0 0,-0.432 -0.144,0 0,-0.864 -0.144,0 0,-1.44 0.144,0 0,-0.72 0.144,0 0,-0.576 0.144,0 0,-0.288 -11.088,0 0,7.488 7.344,0 0,0.144 0.864,0 0,0.144 0.432,0 0,0.144 0.432,0 z"
           id="polygon4401"
           inkscape:connector-curvature="0" />
        <path
           style="fill:#000000;stroke:none"
           d="m 33.552,48.528 -0.144,0 0,0.432 -0.144,0 0,0.288 -0.144,0 0,0.432 -0.144,0 0,0.288 -0.144,0 0,0.432 -0.144,0 0,0.288 -0.144,0 0,0.432 -0.144,0 0,0.288 -0.144,0 0,0.432 -0.144,0 0,0.288 -0.144,0 0,0.432 -0.144,0 0,0.288 -0.144,0 0,0.432 -0.144,0 0,0.288 -0.144,0 0,0.432 -0.144,0 0,0.288 -0.144,0 0,1.44 8.496,0 0,-0.144 0.144,0 0,-0.144 0.144,0 0,-0.288 0.144,0 0,-0.144 0.144,0 0,-1.44 -1.008,0 0,-6.768 -5.04,0 0,0.288 -0.144,0 0,0.288 -0.144,0 0,0.432 -0.144,0 0,0.288 -0.144,0 z"
           id="polygon4403"
           inkscape:connector-curvature="0" />
        <path
           style="fill:#000000;stroke:none"
           d="m 1.872,51.984 0.144,0 0,-0.144 0.144,0 0,-0.144 0.144,0 0,-0.144 0.144,0 0,-0.144 0.288,0 0,-0.144 0.144,0 0,-0.144 0.144,0 0,-0.144 0.288,0 0,-0.144 0.288,0 0,-0.144 0.288,0 0,-0.144 0.288,0 0,-0.144 0.432,0 0,-0.144 0.432,0 0,-0.144 0.864,0 0,-0.144 -5.904,0 0,2.736 1.44,0 0,-0.288 0.144,0 0,-0.144 0.144,0 0,-0.144 0.144,0 z"
           id="polygon4405"
           inkscape:connector-curvature="0" />
        <path
           style="fill:#000000;stroke:none"
           d="m 10.8,51.552 18.144,0 0,-0.144 -18.144,0 z"
           id="polygon4407"
           inkscape:connector-curvature="0" />
        <path
           style="fill:#000000;stroke:none"
           d="m 10.8,51.552 18.144,0 0,-0.144 -18.144,0 z"
           id="polygon4409"
           inkscape:connector-curvature="0" />
        <path
           style="fill:#000000;stroke:none"
           d="m 11.52,52.272 0.144,0 0,0.144 0.144,0 0,0.144 0.144,0 0,0.288 0.144,0 0,0.144 0.144,0 0,0.288 0.144,0 0,0.288 0.144,0 0,0.288 0.144,0 0,0.288 0.144,0 0,0.432 0.144,0 0,0.576 1.152,0 0,0.144 3.888,0 0,0.144 4.032,0 0,0.144 5.328,0 0,-0.432 0.144,0 0,-0.288 0.144,0 0,-0.432 0.144,0 0,-0.432 0.144,0 0,-0.288 0.144,0 0,-0.432 0.144,0 0,-0.288 0.144,0 0,-0.432 0.144,0 0,-0.288 0.144,0 0,-0.432 0.144,0 0,-0.288 -17.856,0 0,0.144 0.144,0 0,0.144 0.144,0 0,0.144 0.144,0 0,0.144 0.144,0 z"
           id="polygon4411"
           inkscape:connector-curvature="0" />
        <g
           id="connector0pad">
          <path
             style="fill:#000000;stroke:none"
             d="m 8.6201103,4.6574998 c 0,1.4911688 -1.2088312,2.7 -2.7000001,2.7 -1.4911688,0 -2.7,-1.2088312 -2.7,-2.7 0,-1.4911689 1.2088312,-2.7000001 2.7,-2.7000001 1.4911689,0 2.7000001,1.2088312 2.7000001,2.7000001 z"
             id="circle4414"
             inkscape:connector-curvature="0" />
        </g>
      </g>
    </g>
  </g>
  <g
     partID="854746810"
     id="g4416"
     transform="translate(95.774992,-47.244108)">
    <g
       transform="translate(2.88,2.88)"
       id="g4418">
      <g
         id="g4420">
        <path
           style="fill:#000000;stroke:none"
           d="m 131.904,1.872 -0.144,0 0,0.144 -0.144,0 0,0.144 -0.144,0 0,0.144 -0.144,0 0,0.144 -0.144,0 0,0.144 -0.144,0 0,0.144 -0.288,0 0,0.144 -0.288,0 0,0.144 -0.288,0 0,0.144 -0.576,0 0,0.144 6.336,0 0,-3.312 -3.456,0 0,0.576 -0.144,0 0,0.432 -0.144,0 0,0.288 -0.144,0 0,0.288 -0.144,0 z"
           id="polygon4422"
           inkscape:connector-curvature="0" />
        <path
           style="fill:#000000;stroke:none"
           d="m 124.128,2.448 -0.144,0 0,0.144 -0.144,0 0,0.144 -0.288,0 0,0.144 -0.288,0 0,0.144 -0.288,0 0,0.144 -0.576,0 0,0.144 5.904,0 0,-0.144 -0.576,0 0,-0.144 -0.288,0 0,-0.144 -0.288,0 0,-0.144 -0.144,0 0,-0.144 -0.288,0 0,-0.144 -0.144,0 0,-0.144 -0.144,0 0,-0.144 -0.144,0 0,-0.144 -0.144,0 0,-0.288 -1.44,0 0,0.144 -0.144,0 0,0.144 -0.144,0 0,0.144 -0.144,0 0,0.144 -0.144,0 z"
           id="polygon4424"
           inkscape:connector-curvature="0" />
        <path
           style="fill:#000000;stroke:none"
           d="m 119.952,2.736 -0.144,0 0,-0.144 -0.288,0 0,-0.144 -1.44,0 0,0.864 3.024,0 0,-0.144 -0.576,0 0,-0.144 -0.288,0 0,-0.144 -0.288,0 z"
           id="polygon4426"
           inkscape:connector-curvature="0" />
        <path
           style="fill:#000000;stroke:none"
           d="m 107.28,3.6 -0.432,0 0,0.144 -0.576,0 0,0.144 -0.432,0 0,0.144 -0.576,0 0,0.144 -0.432,0 0,0.144 -0.576,0 0,0.144 -0.432,0 0,0.144 -0.576,0 0,0.144 -0.432,0 0,0.144 -0.576,0 0,0.144 -0.432,0 0,0.144 -0.432,0 0,0.144 -0.576,0 0,0.144 -0.432,0 0,0.144 -0.576,0 0,0.144 -0.432,0 0,0.144 -0.576,0 0,0.144 -0.432,0 0,0.144 -0.576,0 0,0.144 -0.432,0 0,0.144 -0.576,0 0,0.144 -0.432,0 0,0.144 -0.576,0 0,0.144 -0.432,0 0,0.144 -0.576,0 0,0.144 -0.432,0 0,0.144 -0.576,0 0,0.144 -0.432,0 0,0.144 -0.432,0 0,0.144 -0.576,0 0,0.144 -0.432,0 0,0.144 -0.576,0 0,0.144 -0.432,0 0,0.144 -0.576,0 0,0.144 -0.432,0 0,0.144 -0.576,0 0,0.144 -0.432,0 0,0.144 -0.576,0 0,0.144 -0.432,0 0,0.144 -0.576,0 0,0.144 -0.432,0 0,0.144 -0.576,0 0,0.144 -0.432,0 0,0.144 -0.576,0 0,0.144 -0.432,0 0,0.144 -0.576,0 0,0.144 -0.432,0 0,0.144 -0.432,0 0,0.144 -0.576,0 0,0.144 -0.432,0 0,0.144 -0.576,0 0,0.144 -0.432,0 0,0.144 -0.576,0 0,0.144 -0.432,0 0,0.144 -0.576,0 0,0.144 -0.432,0 0,0.144 -0.576,0 0,0.144 -0.432,0 0,0.144 -0.576,0 0,0.144 -0.432,0 0,0.144 -0.576,0 0,0.144 -0.432,0 0,0.144 -0.576,0 0,0.144 -0.432,0 0,0.144 -0.432,0 0,0.144 -0.576,0 0,0.144 -0.432,0 0,0.144 -0.576,0 0,0.144 -0.432,0 0,0.144 -0.576,0 0,0.144 -0.432,0 0,0.144 -0.576,0 0,0.144 -0.432,0 0,0.144 -0.576,0 0,0.144 -0.432,0 0,0.144 -0.576,0 0,0.144 -0.432,0 0,0.144 -0.576,0 0,0.144 -0.432,0 0,0.144 -0.576,0 0,0.144 -0.288,0 0,0.432 -0.144,0 0,0.288 -0.144,0 0,0.144 -0.144,0 0,0.288 -0.144,0 0,0.144 -0.144,0 0,0.144 -0.288,0 0,0.144 -0.144,0 0,0.144 -0.288,0 0,0.144 -0.288,0 0,1.44 1.872,0 0,5.904 -1.296,0 0,15.696 0.144,0 0,0.144 0.144,0 0,0.144 0.288,0 0,0.144 0.144,0 0,0.144 0.144,0 0,0.144 0.144,0 0,0.288 0.144,0 0,0.144 0.144,0 0,0.288 19.296,0 0,0.144 0.288,0 0,0.144 0.144,0 0,0.144 0.144,0 0,0.144 0.144,0 0,0.288 0.144,0 0,0.432 0.144,0 0,3.888 6.192,0 0,0.144 7.344,0 0,0.144 0.432,0 0,0.144 0.288,0 0,0.144 0.288,0 0,0.144 0.288,0 0,0.144 0.144,0 0,0.144 0.144,0 0,0.144 0.144,0 0,0.144 0.144,0 0,0.144 0.144,0 0,0.288 0.144,0 0,0.144 0.144,0 0,0.288 0.144,0 0,0.432 0.144,0 0,1.872 -0.144,0 0,0.432 -0.144,0 0,0.288 -0.144,0 0,0.144 -0.144,0 0,0.288 -0.144,0 0,0.144 -0.144,0 0,0.144 -0.144,0 0,0.144 -0.144,0 0,0.144 -0.144,0 0,0.144 -0.288,0 0,0.144 -0.144,0 0,0.144 -0.288,0 0,0.144 -0.576,0 0,0.144 27.216,0 0,-0.144 -0.432,0 0,-0.144 -0.288,0 0,-0.144 -0.288,0 0,-0.144 -0.144,0 0,-0.144 -0.288,0 0,-0.144 -0.144,0 0,-0.144 -0.144,0 0,-0.144 -0.144,0 0,-0.288 -0.144,0 0,-0.144 -0.144,0 0,-0.288 -0.144,0 0,-0.288 -0.144,0 0,-0.432 -0.144,0 0,-1.44 0.144,0 0,-0.576 0.144,0 0,-0.288 0.144,0 0,-0.288 0.144,0 0,-0.144 0.144,0 0,-0.288 0.144,0 0,-0.144 0.144,0 0,-0.144 0.144,0 0,-0.144 0.288,0 0,-0.144 0.144,0 0,-1.584 -0.144,0 0,-0.144 -0.288,0 0,-0.144 -0.144,0 0,-0.144 -0.144,0 0,-0.144 -0.144,0 0,-0.288 -0.144,0 0,-0.144 -0.144,0 0,-0.144 -4.32,0 0,-0.144 -0.576,0 0,-0.144 -0.288,0 0,-0.144 -0.144,0 0,-0.144 -0.144,0 0,-0.144 -0.144,0 0,-0.288 -0.144,0 0,-11.376 -2.16,0 0,-7.344 0.72,0 0,-1.44 -0.144,0 0,-0.288 -0.144,0 0,-0.144 -4.032,0 0,-0.144 -0.576,0 0,-0.144 -0.288,0 0,-0.144 -0.144,0 0,-0.144 -0.144,0 0,-0.144 -0.144,0 0,-0.288 -0.144,0 0,-18.72 -2.016,0 0,-0.432 -1.728,0 0,0.144 -0.432,0 0,0.144 -0.576,0 0,0.144 -0.432,0 0,0.144 -0.576,0 z"
           id="polygon4428"
           inkscape:connector-curvature="0" />
        <path
           style="fill:#000000;stroke:none"
           d="m 116.208,3.456 19.728,0 0,-0.144 -19.728,0 z"
           id="polygon4430"
           inkscape:connector-curvature="0" />
        <path
           style="fill:#000000;stroke:none"
           d="m 116.208,3.456 19.728,0 0,-0.144 -19.728,0 z"
           id="polygon4432"
           inkscape:connector-curvature="0" />
        <path
           style="fill:#000000;stroke:none"
           d="m 116.208,3.456 19.728,0 0,-0.144 -19.728,0 z"
           id="polygon4434"
           inkscape:connector-curvature="0" />
        <path
           style="fill:#000000;stroke:none"
           d="m 130.176,11.088 0.288,0 0,0.144 0.288,0 0,0.144 0.288,0 0,0.144 0.144,0 0,0.144 0.144,0 0,0.144 0.144,0 0,0.144 0.144,0 0,0.144 0.144,0 0,0.288 0.144,0 0,0.144 0.144,0 0,0.288 0.144,0 0,0.432 0.144,0 0,1.872 -0.144,0 0,0.432 -0.144,0 0,0.288 -0.144,0 0,0.144 -0.144,0 0,0.288 -0.144,0 0,0.144 -0.144,0 0,0.144 -0.144,0 0,0.144 -0.144,0 0,0.144 -0.144,0 0,0.144 -0.288,0 0,0.144 -0.144,0 0,0.144 -0.288,0 0,0.144 -0.576,0 0,0.144 6.192,0 0,-14.112 -19.728,0 0,7.056 6.192,0 0,0.144 0.576,0 0,0.144 6.768,0 0,0.144 0.432,0 z"
           id="polygon4436"
           inkscape:connector-curvature="0" />
        <path
           style="fill:#000000;stroke:none"
           d="m 118.944,19.008 0.144,0 0,-0.144 0.144,0 0,-0.144 0.144,0 0,-0.144 0.144,0 0,-1.584 -0.144,0 0,-0.144 -0.144,0 0,-0.144 -0.144,0 0,-0.144 -0.144,0 0,-0.144 -0.144,0 0,-0.144 -0.144,0 0,-0.288 -0.144,0 0,-0.288 -0.144,0 0,-0.288 -0.144,0 0,-0.72 -0.144,0 0,-1.008 0.144,0 0,-0.72 0.144,0 0,-0.288 0.144,0 0,-0.288 0.144,0 0,-0.288 0.144,0 0,-0.144 0.144,0 0,-0.144 0.144,0 0,-0.144 0.144,0 0,-0.144 0.144,0 0,-0.144 0.144,0 0,-0.144 0.144,0 0,-0.144 0.288,0 0,-0.144 0.288,0 0,-0.144 0.288,0 0,-0.144 0.576,0 0,-0.144 -4.896,0 0,9.36 2.304,0 0,-0.288 0.144,0 0,-0.288 0.144,0 0,-0.144 0.144,0 z"
           id="polygon4438"
           inkscape:connector-curvature="0" />
        <path
           style="fill:#000000;stroke:none"
           d="m 124.128,11.52 0.288,0 0,0.288 0.144,0 0,0.144 0.144,0 0,0.144 0.144,0 0,0.144 1.44,0 0,-0.288 0.144,0 0,-0.144 0.144,0 0,-0.144 0.144,0 0,-0.144 0.288,0 0,-0.144 0.144,0 0,-0.144 0.288,0 0,-0.144 0.288,0 0,-0.144 0.432,0 0,-0.144 -4.896,0 0,0.144 0.288,0 0,0.144 0.288,0 0,0.144 0.144,0 0,0.144 0.144,0 z"
           id="polygon4440"
           inkscape:connector-curvature="0" />
        <path
           style="fill:#000000;stroke:none"
           d="m 124.272,16.992 -0.288,0 0,0.576 4.176,0 0,-0.144 -0.432,0 0,-0.144 -0.288,0 0,-0.144 -0.288,0 0,-0.144 -0.144,0 0,-0.144 -0.288,0 0,-0.144 -0.144,0 0,-0.144 -0.144,0 0,-0.144 -0.144,0 0,-0.288 -1.44,0 0,0.144 -0.144,0 0,0.144 -0.144,0 0,0.288 -0.144,0 0,0.144 -0.144,0 z"
           id="polygon4442"
           inkscape:connector-curvature="0" />
        <path
           style="fill:#000000;stroke:none"
           d="m 123.984,17.712 11.952,0 0,-0.144 -11.952,0 z"
           id="polygon4444"
           inkscape:connector-curvature="0" />
        <path
           style="fill:#000000;stroke:none"
           d="m 123.984,17.712 11.952,0 0,-0.144 -11.952,0 z"
           id="polygon4446"
           inkscape:connector-curvature="0" />
        <path
           style="fill:#000000;stroke:none"
           d="m 124.704,19.296 0.144,0 0,0.288 0.144,0 0,0.144 0.144,0 0,0.432 0.144,0 0,0.432 0.144,0 0,1.584 -0.144,0 0,0.432 -0.144,0 0,0.432 -0.144,0 0,0.144 -0.144,0 0,0.288 -0.144,0 0,1.44 0.72,0 0,7.344 -2.016,0 0,7.344 6.336,0 0,0.144 0.432,0 0,0.144 0.288,0 0,0.144 0.288,0 0,0.144 0.288,0 0,0.144 0.144,0 0,0.144 0.144,0 0,0.144 0.144,0 0,0.144 0.144,0 0,0.144 0.144,0 0,0.288 0.144,0 0,0.144 0.144,0 0,0.288 0.144,0 0,0.432 0.144,0 0,1.872 -0.144,0 0,0.432 -0.144,0 0,0.288 -0.144,0 0,0.144 -0.144,0 0,0.288 -0.144,0 0,0.144 -0.144,0 0,0.144 -0.144,0 0,0.144 -0.144,0 0,0.144 -0.144,0 0,0.144 -0.288,0 0,1.584 0.288,0 0,0.144 0.144,0 0,0.144 0.144,0 0,0.144 0.144,0 0,0.144 0.144,0 0,0.144 0.144,0 0,0.288 0.144,0 0,0.144 0.144,0 0,0.288 0.144,0 0,0.432 0.144,0 0,1.872 -0.144,0 0,0.432 -0.144,0 0,0.288 -0.144,0 0,0.144 -0.144,0 0,0.288 -0.144,0 0,0.144 -0.144,0 0,0.144 -0.144,0 0,0.144 -0.144,0 0,0.144 -0.144,0 0,0.144 -0.288,0 0,0.144 -0.144,0 0,0.144 -0.288,0 0,0.144 -0.576,0 0,0.144 6.192,0 0,-35.856 -11.952,0 0,0.864 0.144,0 0,0.144 0.288,0 0,0.288 0.144,0 0,0.144 0.144,0 z"
           id="polygon4448"
           inkscape:connector-curvature="0" />
        <path
           style="fill:#000000;stroke:none"
           d="m 126.432,40.608 0.144,0 0,-0.144 0.144,0 0,-0.144 0.288,0 0,-0.144 0.144,0 0,-0.144 0.288,0 0,-0.144 0.288,0 0,-0.144 0.432,0 0,-0.144 -4.752,0 0,1.872 2.592,0 0,-0.288 0.144,0 0,-0.144 0.144,0 0,-0.288 0.144,0 z"
           id="polygon4450"
           inkscape:connector-curvature="0" />
        <path
           style="fill:#000000;stroke:none"
           d="m 66.528,45.504 -0.144,0 0,0.144 -0.288,0 0,0.144 -0.144,0 0,0.864 13.248,0 0,0.144 0.576,0 0,0.144 0.288,0 0,0.144 0.288,0 0,0.144 0.288,0 0,0.144 0.144,0 0,0.144 0.144,0 0,0.144 0.144,0 0,0.144 0.144,0 0,0.144 0.144,0 0,0.144 0.144,0 0,0.144 1.44,0 0,-0.288 0.144,0 0,-0.144 0.144,0 0,-0.144 0.144,0 0,-0.144 0.144,0 0,-0.144 0.288,0 0,-0.144 0.144,0 0,-0.144 0.288,0 0,-2.448 -17.136,0 0,0.144 -0.144,0 0,0.144 -0.144,0 0,0.288 -0.144,0 0,0.144 -0.144,0 z"
           id="polygon4452"
           inkscape:connector-curvature="0" />
        <path
           style="fill:#000000;stroke:none"
           d="m 66.672,47.952 0.144,0 0,0.288 0.144,0 0,0.144 0.144,0 0,0.288 0.144,0 0,0.288 0.144,0 0,0.432 0.144,0 0,1.584 -0.144,0 0,0.432 -0.144,0 0,0.288 -0.144,0 0,0.288 -0.144,0 0,0.144 -0.144,0 0,0.288 -0.144,0 0,0.144 -0.144,0 0,1.152 11.376,0 0,-0.144 -0.576,0 0,-0.144 -0.288,0 0,-0.144 -0.288,0 0,-0.144 -0.144,0 0,-0.144 -0.288,0 0,-0.144 -0.144,0 0,-0.144 -0.144,0 0,-0.144 -0.144,0 0,-0.144 -0.144,0 0,-0.288 -0.144,0 0,-0.144 -0.144,0 0,-0.288 -0.144,0 0,-0.432 -0.144,0 0,-0.576 -0.144,0 0,-1.008 0.144,0 0,-0.576 0.144,0 0,-0.432 0.144,0 0,-0.288 0.144,0 0,-0.144 0.144,0 0,-0.288 0.144,0 0,-0.144 0.144,0 0,-0.144 0.144,0 0,-0.144 0.144,0 0,-0.144 0.288,0 0,-0.144 0.144,0 0,-0.144 0.288,0 0,-0.144 0.432,0 0,-0.144 0.432,0 0,-0.144 -11.952,0 0,0.72 0.144,0 0,0.144 0.288,0 0,0.144 0.144,0 0,0.144 0.144,0 z"
           id="polygon4454"
           inkscape:connector-curvature="0" />
        <path
           style="fill:#000000;stroke:none"
           d="m 88.128,47.664 0.144,0 0,0.144 0.144,0 0,0.144 0.144,0 0,0.144 0.144,0 0,0.144 1.44,0 0,-0.288 0.144,0 0,-0.144 0.144,0 0,-0.144 0.144,0 0,-0.144 0.144,0 0,-0.144 0.288,0 0,-0.144 0.144,0 0,-0.144 0.288,0 0,-0.144 0.432,0 0,-0.144 0.432,0 0,-0.144 -4.896,0 0,0.432 0.144,0 0,0.144 0.288,0 0,0.144 0.144,0 0,0.144 0.144,0 z"
           id="polygon4456"
           inkscape:connector-curvature="0" />
        <path
           style="fill:#000000;stroke:none"
           d="m 95.184,47.52 0.144,0 0,0.144 0.144,0 0,0.144 0.144,0 0,0.144 0.144,0 0,0.144 0.144,0 0,0.288 1.44,0 0,-0.144 0.144,0 0,-0.288 0.144,0 0,-0.144 0.144,0 0,-0.144 0.144,0 0,-0.144 0.288,0 0,-0.144 0.144,0 0,-0.144 0.288,0 0,-0.144 0.288,0 0,-0.144 0.432,0 0,-0.144 -5.184,0 0,0.144 0.288,0 0,0.144 0.288,0 0,0.144 0.288,0 0,0.144 0.144,0 z"
           id="polygon4458"
           inkscape:connector-curvature="0" />
        <path
           style="fill:#000000;stroke:none"
           d="m 95.328,52.848 -0.144,0 0,0.144 -0.144,0 0,0.144 -0.288,0 0,0.144 -0.288,0 0,0.144 -0.288,0 0,0.144 5.184,0 0,-0.144 -0.432,0 0,-0.144 -0.288,0 0,-0.144 -0.288,0 0,-0.144 -0.144,0 0,-0.144 -0.288,0 0,-0.144 -0.144,0 0,-0.144 -0.144,0 0,-0.144 -0.144,0 0,-0.288 -0.144,0 0,-0.144 -1.44,0 0,0.288 -0.144,0 0,0.144 -0.144,0 0,0.144 -0.144,0 0,0.144 -0.144,0 z"
           id="polygon4460"
           inkscape:connector-curvature="0" />
        <path
           style="fill:#000000;stroke:none"
           d="m 80.928,52.848 -0.144,0 0,0.144 -0.144,0 0,0.144 -0.288,0 0,0.144 -0.288,0 0,0.144 -0.288,0 0,0.144 -0.576,0 0,0.144 5.904,0 0,-0.144 -0.576,0 0,-0.144 -0.288,0 0,-0.144 -0.288,0 0,-0.144 -0.144,0 0,-0.144 -0.288,0 0,-0.144 -0.144,0 0,-0.144 -0.144,0 0,-0.144 -0.144,0 0,-0.144 -0.144,0 0,-0.288 -1.44,0 0,0.144 -0.144,0 0,0.144 -0.144,0 0,0.144 -0.144,0 0,0.144 -0.144,0 z"
           id="polygon4462"
           inkscape:connector-curvature="0" />
        <path
           style="fill:#000000;stroke:none"
           d="m 88.128,52.848 -0.144,0 0,0.144 -0.144,0 0,0.144 -0.288,0 0,0.144 -0.288,0 0,0.144 -0.288,0 0,0.144 -0.576,0 0,0.144 5.904,0 0,-0.144 -0.576,0 0,-0.144 -0.288,0 0,-0.144 -0.288,0 0,-0.144 -0.144,0 0,-0.144 -0.288,0 0,-0.144 -0.144,0 0,-0.144 -0.144,0 0,-0.144 -0.144,0 0,-0.144 -0.144,0 0,-0.288 -1.44,0 0,0.144 -0.144,0 0,0.144 -0.144,0 0,0.144 -0.144,0 0,0.144 -0.144,0 z"
           id="polygon4464"
           inkscape:connector-curvature="0" />
        <path
           style="fill:#000000;stroke:none"
           d="m 93.6,53.712 42.336,0 0,-0.144 -42.336,0 z"
           id="polygon4466"
           inkscape:connector-curvature="0" />
        <path
           style="fill:#000000;stroke:none"
           d="m 93.6,53.712 42.336,0 0,-0.144 -42.336,0 z"
           id="polygon4468"
           inkscape:connector-curvature="0" />
        <path
           style="fill:#000000;stroke:none"
           d="m 93.6,53.712 42.336,0 0,-0.144 -42.336,0 z"
           id="polygon4470"
           inkscape:connector-curvature="0" />
        <path
           style="fill:#000000;stroke:none"
           d="m 66.528,53.856 69.408,0 0,-0.144 -69.408,0 z"
           id="polygon4472"
           inkscape:connector-curvature="0" />
        <path
           style="fill:#000000;stroke:none"
           d="m 66.528,53.856 69.408,0 0,-0.144 -69.408,0 z"
           id="polygon4474"
           inkscape:connector-curvature="0" />
        <path
           style="fill:#000000;stroke:none"
           d="m 66.528,53.856 69.408,0 0,-0.144 -69.408,0 z"
           id="polygon4476"
           inkscape:connector-curvature="0" />
        <path
           style="fill:#000000;stroke:none"
           d="m 66.528,53.856 69.408,0 0,-0.144 -69.408,0 z"
           id="polygon4478"
           inkscape:connector-curvature="0" />
        <path
           style="fill:#000000;stroke:none"
           d="m 67.536,60.768 68.4,0 0,-6.912 -69.408,0 0,0.144 1.008,0 z"
           id="polygon4480"
           inkscape:connector-curvature="0" />
        <path
           style="fill:#000000;stroke:none"
           d="m 12.24,60.048 -0.144,0 0,0.288 -0.144,0 0,0.144 -0.144,0 0,0.144 -0.144,0 0,0.144 30.096,0 0,-0.144 -0.432,0 0,-0.144 -0.288,0 0,-0.144 -0.288,0 0,-0.144 -0.144,0 0,-0.144 -0.288,0 0,-0.144 -0.144,0 0,-0.144 -0.144,0 0,-0.144 -0.144,0 0,-0.288 -0.144,0 0,-0.144 -0.144,0 0,-0.288 -13.68,0 0,-0.144 -4.032,0 0,-0.144 -3.888,0 0,-0.144 -5.184,0 0,0.432 -0.144,0 0,0.432 -0.144,0 0,0.288 -0.144,0 0,0.144 -0.144,0 z"
           id="polygon4482"
           inkscape:connector-curvature="0" />
        <path
           style="fill:#000000;stroke:none"
           d="m 44.928,59.904 -0.144,0 0,0.144 -0.144,0 0,0.144 -0.288,0 0,0.144 -0.144,0 0,0.144 -0.288,0 0,0.144 -0.576,0 0,0.144 17.424,0 0,-1.728 -15.264,0 0,0.144 -0.144,0 0,0.288 -0.144,0 0,0.144 -0.144,0 0,0.144 -0.144,0 z"
           id="polygon4484"
           inkscape:connector-curvature="0" />
        <path
           style="fill:#000000;stroke:none"
           d="m 4.032,62.496 -0.288,0 0,-0.144 -0.288,0 0,-0.144 -0.144,0 0,-0.144 -0.288,0 0,-0.144 -0.144,0 0,-0.144 -0.288,0 0,-0.144 -0.144,0 0,-0.144 -0.144,0 0,-0.144 -0.144,0 0,-0.144 -0.144,0 0,-0.144 -0.144,0 0,-0.144 -0.144,0 0,-0.144 -0.144,0 0,-0.144 -0.144,0 0,-0.288 -1.44,0 0,2.736 5.616,0 0,-0.144 -0.72,0 0,-0.144 -0.432,0 0,-0.144 -0.432,0 z"
           id="polygon4486"
           inkscape:connector-curvature="0" />
        <path
           style="fill:#000000;stroke:none"
           d="m 11.52,60.912 124.416,0 0,-0.144 -124.416,0 z"
           id="polygon4488"
           inkscape:connector-curvature="0" />
        <path
           style="fill:#000000;stroke:none"
           d="m 11.52,60.912 124.416,0 0,-0.144 -124.416,0 z"
           id="polygon4490"
           inkscape:connector-curvature="0" />
        <path
           style="fill:#000000;stroke:none"
           d="m 11.52,60.912 124.416,0 0,-0.144 -124.416,0 z"
           id="polygon4492"
           inkscape:connector-curvature="0" />
        <path
           style="fill:#000000;stroke:none"
           d="m 10.8,61.632 -0.144,0 0,0.144 -0.144,0 0,0.144 -0.288,0 0,0.144 -0.144,0 0,0.144 -0.288,0 0,0.144 -0.288,0 0,0.144 -0.288,0 0,0.144 -0.432,0 0,0.144 -0.432,0 0,0.144 -0.72,0 0,0.144 128.304,0 0,-2.16 -124.416,0 0,0.144 -0.144,0 0,0.144 -0.144,0 0,0.144 -0.288,0 0,0.144 -0.144,0 z"
           id="polygon4494"
           inkscape:connector-curvature="0" />
        <path
           style="fill:#000000;stroke:none"
           d="m 0,63.216 135.936,0 0,-0.144 -135.936,0 z"
           id="polygon4496"
           inkscape:connector-curvature="0" />
        <path
           style="fill:#000000;stroke:none"
           d="m 0,63.216 135.936,0 0,-0.144 -135.936,0 z"
           id="polygon4498"
           inkscape:connector-curvature="0" />
        <path
           style="fill:#000000;stroke:none"
           d="m 0,65.088 135.936,0 0,-1.872 -135.936,0 z"
           id="polygon4500"
           inkscape:connector-curvature="0" />
        <g
           id="g4502">
          <path
             style="fill:#000000;stroke:none"
             d="m 105.546,8.57131 c 0,1.491169 -1.20883,2.7 -2.7,2.7 -1.49117,0 -2.7,-1.208831 -2.7,-2.7 0,-1.4911688 1.20883,-2.7 2.7,-2.7 1.49117,0 2.7,1.2088312 2.7,2.7 z"
             id="circle4504"
             inkscape:connector-curvature="0" />
        </g>
      </g>
    </g>
  </g>
  <g
     partID="854746820"
     id="g4506"
     transform="translate(95.774992,-47.244108)">
    <g
       transform="translate(79.704,54.288)"
       id="g4508">
      <g
         id="g4510">
        <path
           style="fill:#000000;stroke:none"
           d="m 3.24,0 0,2.304 L 0,2.304 0,0 z"
           id="polygon4512"
           inkscape:connector-curvature="0" />
      </g>
    </g>
  </g>
  <g
     partID="854746830"
     id="g4514"
     transform="translate(95.774992,-47.244108)">
    <g
       transform="translate(130.176,13.392)"
       id="g4516">
      <g
         id="g4518">
        <path
           style="fill:#000000;stroke:none"
           d="m 3.096,0 0,2.304 L 0,2.304 0,0 z"
           id="polygon4520"
           inkscape:connector-curvature="0" />
      </g>
    </g>
  </g>
  <g
     partID="854746840"
     id="g4522"
     transform="translate(95.774992,-47.244108)">
    <g
       transform="translate(130.176,18.144)"
       id="g4524">
      <g
         id="g4526">
        <path
           style="fill:#000000;stroke:none"
           d="m 3.096,0 0,2.304 L 0,2.304 0,0 z"
           id="polygon4528"
           inkscape:connector-curvature="0" />
      </g>
    </g>
  </g>
  <g
     partID="854746850"
     id="g4530"
     transform="translate(95.774992,-47.244108)">
    <g
       transform="translate(6.192,31.824)"
       id="g4532">
      <g
         id="g4534">
        <path
           style="fill:#000000;stroke:none"
           d="m 6.264,0 0,2.16 L 0,2.16 0,0 z"
           id="polygon4536"
           inkscape:connector-curvature="0" />
      </g>
    </g>
  </g>
  <g
     partID="854746860"
     id="g4538"
     transform="translate(95.774992,-47.244108)">
    <g
       transform="translate(2.592,35.424)"
       id="g4540">
      <g
         id="g4542">
        <path
           style="fill:#000000;stroke:none"
           d="m 2.16,0 0,6.264 L 0,6.264 0,0 z"
           id="polygon4544"
           inkscape:connector-curvature="0" />
      </g>
    </g>
  </g>
  <g
     partID="854746870"
     id="g4546"
     transform="translate(95.774992,-47.244108)">
    <g
       transform="translate(29.304,25.488)"
       id="g4548">
      <g
         id="g4550">
        <path
           style="fill:#000000;stroke:none"
           d="m 3.24,0 0,2.448 L 0,2.448 0,0 z"
           id="polygon4552"
           inkscape:connector-curvature="0" />
      </g>
    </g>
  </g>
  <g
     partID="854746880"
     id="g4554"
     transform="translate(95.774992,-47.244108)">
    <g
       transform="translate(32.256,22.536)"
       id="g4556">
      <g
         id="g4558">
        <path
           style="fill:#000000;stroke:none"
           d="m 2.448,0 0,3.24 L 0,3.24 0,0 z"
           id="polygon4560"
           inkscape:connector-curvature="0" />
      </g>
    </g>
  </g>
  <g
     partID="854614440"
     id="g4562"
     transform="translate(95.774992,-47.244108)">
    <g
       transform="translate(110.254,40.1082)"
       id="g4564">
      <g
         transform="matrix(0,-1,1,0,0,0)"
         id="g4566">
        <g
           id="copper0">
          <path
             style="fill:none;stroke:#000000;stroke-width:1.44000006"
             d="m 6.408,12.168 4.464,0 0,4.464 -4.464,0 z"
             id="rect4569"
             inkscape:connector-curvature="0" />
          <path
             style="fill:none;stroke:#000000;stroke-width:1.44000006"
             d="m 10.872,14.4 c 0,1.232699 -0.9993,2.232 -2.2319997,2.232 -1.2326996,0 -2.2320001,-0.999301 -2.2320001,-2.232 0,-1.2327 0.9993005,-2.232 2.2320001,-2.232 C 9.8727,12.168 10.872,13.1673 10.872,14.4 z"
             id="circle4571"
             inkscape:connector-curvature="0" />
          <path
             style="fill:none;stroke:#000000;stroke-width:1.44000006"
             d="m 18.072,14.4 c 0,1.232699 -0.9993,2.232 -2.232,2.232 -1.232699,0 -2.232,-0.999301 -2.232,-2.232 0,-1.2327 0.999301,-2.232 2.232,-2.232 1.2327,0 2.232,0.9993 2.232,2.232 z"
             id="connector1pad"
             inkscape:connector-curvature="0" />
          <path
             style="fill:none;stroke:#000000;stroke-width:1.44000006"
             d="m 25.272001,14.4 c 0,1.232699 -0.9993,2.232 -2.232,2.232 -1.2327,0 -2.232,-0.999301 -2.232,-2.232 0,-1.2327 0.9993,-2.232 2.232,-2.232 1.2327,0 2.232,0.9993 2.232,2.232 z"
             id="connector2pad"
             inkscape:connector-curvature="0" />
        </g>
      </g>
    </g>
  </g>
  <g
     partID="854628310"
     id="g4575"
     transform="translate(95.774992,-47.244108)">
    <g
       transform="translate(128.758,48.5682)"
       id="g4577">
      <g
         transform="matrix(0,-1,1,0,0,0)"
         id="g4579">
        <g
           id="g4581">
          <g
             id="copper1">
            <!-- <rect width="55" x="10" y="15.5" fill="none" height="55" stroke="rgb(255, 191, 0)" stroke-width="20" />  -->
            <path
               style="fill:none;stroke:#000000;stroke-width:1.44000006"
               d="m 4.6800001,3.096 c 0,1.0935238 -0.8864762,1.98 -1.9800001,1.98 -1.0935238,0 -1.97999997,-0.8864762 -1.97999997,-1.98 0,-1.0935239 0.88647617,-1.9800001 1.97999997,-1.9800001 1.0935239,0 1.9800001,0.8864762 1.9800001,1.9800001 z"
               id="connector0pin"
               inkscape:connector-curvature="0" />
            <path
               style="fill:none;stroke:#000000;stroke-width:1.44000006"
               d="m 33.48,3.096 c 0,1.0935238 -0.886476,1.98 -1.98,1.98 -1.093524,0 -1.98,-0.8864762 -1.98,-1.98 0,-1.0935239 0.886476,-1.9800001 1.98,-1.9800001 1.093524,0 1.98,0.8864762 1.98,1.9800001 z"
               id="connector1pin"
               inkscape:connector-curvature="0" />
          </g>
        </g>
      </g>
    </g>
  </g>
  <g
     partID="854614380"
     id="g4586"
     transform="translate(95.774992,-47.244108)">
    <g
       transform="translate(100.354,49.9722)"
       id="g4588">
      <g
         id="g4590">
        <g
           id="g4592">
          <!-- <rect width="55" x="10" y="15.5" fill="none" height="55" stroke="rgb(255, 191, 0)" stroke-width="20" />  -->
          <path
             style="fill:none;stroke:#000000;stroke-width:1.44000006"
             d="m 4.6800001,3.096 c 0,1.0935238 -0.8864762,1.98 -1.9800001,1.98 -1.0935238,0 -1.97999997,-0.8864762 -1.97999997,-1.98 0,-1.0935239 0.88647617,-1.9800001 1.97999997,-1.9800001 1.0935239,0 1.9800001,0.8864762 1.9800001,1.9800001 z"
             id="circle4594"
             inkscape:connector-curvature="0" />
          <path
             style="fill:none;stroke:#000000;stroke-width:1.44000006"
             d="m 33.48,3.096 c 0,1.0935238 -0.886476,1.98 -1.98,1.98 -1.093524,0 -1.98,-0.8864762 -1.98,-1.98 0,-1.0935239 0.886476,-1.9800001 1.98,-1.9800001 1.093524,0 1.98,0.8864762 1.98,1.9800001 z"
             id="circle4596"
             inkscape:connector-curvature="0" />
        </g>
      </g>
    </g>
  </g>
  <g
     partID="854614610"
     id="g4598"
     transform="translate(95.774992,-47.244108)">
    <g
       transform="translate(59.5664,67.7562)"
       id="g4600">
      <g
         transform="matrix(0,-1,1,0,0,0)"
         id="g4602">
        <g
           id="g4604">
          <path
             style="fill:none;stroke:#000000;stroke-width:1.24668002"
             d="m 9.5286598,7.4879999 c 0,1.1270254 -0.9136345,2.0406599 -2.0406599,2.0406599 -1.1270253,0 -2.0406599,-0.9136345 -2.0406599,-2.0406599 0,-1.1270253 0.9136346,-2.0406599 2.0406599,-2.0406599 1.1270254,0 2.0406599,0.9136346 2.0406599,2.0406599 z"
             id="circle4606"
             inkscape:connector-curvature="0" />
          <path
             d="m 4.824,4.824 5.328,0 0,5.328 -5.328,0 0,-5.328 z m 1.24668,2.664 a 1.417325,1.417325 0 1 0 2.83465,0 1.417325,1.417325 0 1 0 -2.83465,0 z"
             id="path4608"
             inkscape:connector-curvature="0"
             style="fill:#000000;stroke:none" />
          <path
             style="fill:none;stroke:#000000;stroke-width:1.24668002"
             d="m 16.72866,7.4879999 c 0,1.1270254 -0.913635,2.0406599 -2.04066,2.0406599 -1.127026,0 -2.04066,-0.9136345 -2.04066,-2.0406599 0,-1.1270253 0.913634,-2.0406599 2.04066,-2.0406599 1.127025,0 2.04066,0.9136346 2.04066,2.0406599 z"
             id="circle4610"
             inkscape:connector-curvature="0" />
          <path
             style="fill:none;stroke:#000000;stroke-width:1.24668002"
             d="m 23.92866,7.4879999 c 0,1.1270254 -0.913634,2.0406599 -2.04066,2.0406599 -1.127025,0 -2.040659,-0.9136345 -2.040659,-2.0406599 0,-1.1270253 0.913634,-2.0406599 2.040659,-2.0406599 1.127026,0 2.04066,0.9136346 2.04066,2.0406599 z"
             id="circle4612"
             inkscape:connector-curvature="0" />
        </g>
      </g>
    </g>
  </g>
  <g
     partID="854614640"
     id="g4614"
     transform="translate(95.774992,-47.244108)">
    <g
       transform="translate(112.414,7.70816)"
       id="g4616">
      <g
         transform="matrix(0,-1,1,0,0,0)"
         id="g4618">
        <g
           id="g4620">
          <path
             style="fill:none;stroke:#000000;stroke-width:1.44000006"
             d="m 2.9519999,2.9519999 4.1760001,0 0,4.1760001 -4.1760001,0 z"
             id="square"
             inkscape:connector-curvature="0" />
          <path
             style="fill:none;stroke:#000000;stroke-width:1.44000006"
             d="m 7.128,5.04 c 0,1.1531706 -0.9348294,2.088 -2.088,2.088 -1.1531706,0 -2.0880001,-0.9348294 -2.0880001,-2.088 0,-1.1531706 0.9348295,-2.0880001 2.0880001,-2.0880001 1.1531706,0 2.088,0.9348295 2.088,2.0880001 z"
             id="circle4623"
             inkscape:connector-curvature="0" />
          <path
             style="fill:none;stroke:#000000;stroke-width:1.44000006"
             d="m 7.128,12.24 c 0,1.15317 -0.9348294,2.088 -2.088,2.088 -1.1531706,0 -2.0880001,-0.93483 -2.0880001,-2.088 0,-1.153171 0.9348295,-2.088 2.0880001,-2.088 1.1531706,0 2.088,0.934829 2.088,2.088 z"
             id="circle4625"
             inkscape:connector-curvature="0" />
          <path
             style="fill:none;stroke:#000000;stroke-width:1.44000006"
             d="m 7.128,19.440001 c 0,1.15317 -0.9348294,2.088 -2.088,2.088 -1.1531706,0 -2.0880001,-0.93483 -2.0880001,-2.088 0,-1.153171 0.9348295,-2.088001 2.0880001,-2.088001 1.1531706,0 2.088,0.93483 2.088,2.088001 z"
             id="connector2pin"
             inkscape:connector-curvature="0" />
        </g>
      </g>
    </g>
  </g>
  <g
     partID="854617700"
     id="g4628"
     transform="translate(95.774992,-47.244108)">
    <g
       transform="translate(-3.15752,32.8362)"
       id="g4630">
      <g
         id="g4632">
        <path
           style="fill:none;stroke:#000000;stroke-width:1.29656994"
           d="m 17.79562,5.8319998 c 0,2.8628895 -2.32083,5.1837202 -5.18372,5.1837202 -2.8628892,0 -5.1837198,-2.3208307 -5.1837198,-5.1837202 0,-2.8628896 2.3208306,-5.18372013 5.1837198,-5.18372013 2.86289,0 5.18372,2.32083053 5.18372,5.18372013 z"
           id="circle4634"
           inkscape:connector-curvature="0" />
        <path
           style="fill:none;stroke:#000000;stroke-width:1.58399999"
           d="m 17.7239,26.5839 c 0,2.783516 -2.256485,5.04 -5.04,5.04 -2.7835152,0 -5.0400001,-2.256484 -5.0400001,-5.04 0,-2.783515 2.2564849,-5.04 5.0400001,-5.04 2.783515,0 5.04,2.256485 5.04,5.04 z"
           id="circle4636"
           inkscape:connector-curvature="0" />
        <path
           style="fill:none;stroke:#000000;stroke-width:1.58399999"
           d="m 28.3147,14.8399 c 0,2.783515 -2.256485,5.04 -5.04,5.04 -2.783515,0 -5.04,-2.256485 -5.04,-5.04 0,-2.783515 2.256485,-5.0399999 5.04,-5.0399999 2.783515,0 5.04,2.2564849 5.04,5.0399999 z"
           id="circle4638"
           inkscape:connector-curvature="0" />
      </g>
    </g>
  </g>
  <g
     partID="854624360"
     id="g4640"
     transform="translate(95.774992,-47.244108)">
    <g
       transform="translate(58.2672,13.6346)"
       id="g4642">
      <g
         id="g4644">
        <g
           id="g4646">
          <path
             style="fill:none;stroke:#000000;stroke-width:1.13383996"
             d="m 10.4884,10.6336 c 0,0.939326 -0.7614746,1.7008 -1.7008004,1.7008 -0.9393259,0 -1.7008,-0.761474 -1.7008,-1.7008 0,-0.9393256 0.7614741,-1.7007997 1.7008,-1.7007997 0.9393258,0 1.7008004,0.7614741 1.7008004,1.7007997 z"
             id="circle4648"
             inkscape:connector-curvature="0" />
          <path
             style="fill:none;stroke:#000000;stroke-width:1.13383996"
             d="m 7.0868001,8.9328003 3.4015999,0 0,3.4015997 -3.4015999,0 z"
             id="rect4650"
             inkscape:connector-curvature="0" />
          <path
             style="fill:none;stroke:#000000;stroke-width:1.13383996"
             d="m 10.4884,3.5464001 c 0,0.9393258 -0.7614746,1.7007999 -1.7008004,1.7007999 -0.9393259,0 -1.7008,-0.7614741 -1.7008,-1.7007999 0,-0.9393259 0.7614741,-1.7008 1.7008,-1.7008 0.9393258,0 1.7008004,0.7614741 1.7008004,1.7008 z"
             id="circle4652"
             inkscape:connector-curvature="0" />
        </g>
      </g>
    </g>
  </g>
  <g
     partID="854630480"
     id="g4654"
     transform="translate(95.774992,-47.244108)">
    <g
       transform="translate(53.0144,49.1082)"
       id="g4656">
      <g
         transform="matrix(0,1,-1,0,0,0)"
         id="g4658">
        <g
           id="g4660">
          <path
             style="fill:none;stroke:#000000;stroke-width:1.44000006"
             d="m 1.98,5.5799999 3.9600001,0 0,3.9600001 L 1.98,9.54 z"
             id="rect11"
             inkscape:connector-curvature="0" />
          <path
             style="fill:none;stroke:#000000;stroke-width:1.44000006"
             d="M 5.9400001,7.5599999 C 5.9400001,8.6535238 5.0535239,9.54 3.96,9.54 2.8664762,9.54 1.98,8.6535238 1.98,7.5599999 c 0,-1.0935238 0.8864762,-1.98 1.98,-1.98 1.0935239,0 1.9800001,0.8864762 1.9800001,1.98 z"
             id="circle4663"
             inkscape:connector-curvature="0" />
          <path
             style="fill:none;stroke:#000000;stroke-width:1.44000006"
             d="M 13.14,7.5599999 C 13.14,8.6535238 12.253524,9.54 11.16,9.54 10.066476,9.54 9.1799998,8.6535238 9.1799998,7.5599999 c 0,-1.0935238 0.8864762,-1.98 1.9800002,-1.98 1.093524,0 1.98,0.8864762 1.98,1.98 z"
             id="circle4665"
             inkscape:connector-curvature="0" />
        </g>
      </g>
    </g>
  </g>
  <g
     partID="854693880"
     id="g4667"
     transform="translate(95.774992,-47.244108)">
    <g
       transform="translate(22.0544,38.6682)"
       id="g4669">
      <g
         transform="matrix(0,-1,1,0,0,0)"
         id="g4671">
        <g
           id="g4673">
          <path
             style="fill:none;stroke:#000000;stroke-width:1.44000006"
             d="m 12.24,6.8400002 4.32,0 0,4.3199998 -4.32,0 z"
             id="rect4675"
             inkscape:connector-curvature="0" />
          <path
             style="fill:none;stroke:#000000;stroke-width:1.44000006"
             d="m 16.56,9 c 0,1.192935 -0.967065,2.16 -2.16,2.16 -1.192935,0 -2.16,-0.967065 -2.16,-2.16 0,-1.1929351 0.967065,-2.1600001 2.16,-2.1600001 1.192935,0 2.16,0.967065 2.16,2.1600001 z"
             id="circle4677"
             inkscape:connector-curvature="0" />
          <path
             style="fill:none;stroke:#000000;stroke-width:1.44000006"
             d="m 16.56,23.4 c 0,1.192935 -0.967065,2.16 -2.16,2.16 -1.192935,0 -2.16,-0.967065 -2.16,-2.16 0,-1.192935 0.967065,-2.16 2.16,-2.16 1.192935,0 2.16,0.967065 2.16,2.16 z"
             id="circle4679"
             inkscape:connector-curvature="0" />
        </g>
      </g>
    </g>
  </g>
  <g
     partID="854736630"
     id="g4681"
     transform="translate(95.774992,-47.244108)">
    <g
       transform="translate(76.4144,58.1082)"
       id="g4683">
      <g
         transform="matrix(0,-1,1,0,0,0)"
         id="g4685">
        <g
           id="g4687">
          <path
             style="fill:none;stroke:#000000;stroke-width:1.44000006"
             d="m 7.128,5.04 c 0,1.1531706 -0.9348294,2.088 -2.088,2.088 -1.1531706,0 -2.0880001,-0.9348294 -2.0880001,-2.088 0,-1.1531706 0.9348295,-2.0880001 2.0880001,-2.0880001 1.1531706,0 2.088,0.9348295 2.088,2.0880001 z"
             id="circle4689"
             inkscape:connector-curvature="0" />
          <path
             style="fill:none;stroke:#000000;stroke-width:1.44000006"
             d="m 7.128,12.24 c 0,1.15317 -0.9348294,2.088 -2.088,2.088 -1.1531706,0 -2.0880001,-0.93483 -2.0880001,-2.088 0,-1.153171 0.9348295,-2.088 2.0880001,-2.088 1.1531706,0 2.088,0.934829 2.088,2.088 z"
             id="circle4691"
             inkscape:connector-curvature="0" />
        </g>
      </g>
    </g>
  </g>
  <g
     partID="854711760"
     id="g4693"
     transform="translate(95.774992,-47.244108)">
    <g
       transform="translate(90.8144,48.0282)"
       id="g4695">
      <g
         id="g4697">
        <path
           style="fill:none;stroke:#000000;stroke-width:1.44000006"
           d="m 7.128,5.04 c 0,1.1531706 -0.9348294,2.088 -2.088,2.088 -1.1531706,0 -2.0880001,-0.9348294 -2.0880001,-2.088 0,-1.1531706 0.9348295,-2.0880001 2.0880001,-2.0880001 1.1531706,0 2.088,0.9348295 2.088,2.0880001 z"
           id="circle4699"
           inkscape:connector-curvature="0" />
      </g>
    </g>
  </g>
  <g
     partID="854745610"
     id="g4701"
     transform="translate(95.774992,-47.244108)">
    <path
       style="stroke:#000000;stroke-width:1.72800004;stroke-linecap:round"
       d="m 88.654404,45.868198 -19.382706,0"
       id="line4703"
       inkscape:connector-curvature="0" />
  </g>
  <g
     partID="854745240"
     id="g4705"
     transform="translate(95.774992,-47.244108)">
    <path
       style="stroke:#000000;stroke-width:1.72800004;stroke-linecap:round"
       d="m 88.654404,50.9002 0,-5.032002"
       id="line4707"
       inkscape:connector-curvature="0" />
  </g>
  <g
     partID="854745420"
     id="g4709"
     transform="translate(95.774992,-47.244108)">
    <path
       style="stroke:#000000;stroke-width:1.72800004;stroke-linecap:round"
       d="m 69.271698,53.068199 10.014702,0"
       id="line4711"
       inkscape:connector-curvature="0" />
  </g>
  <g
     partID="854744610"
     id="g4713"
     transform="translate(95.774992,-47.244108)">
    <path
       style="stroke:#000000;stroke-width:1.72800004;stroke-linecap:round"
       d="m 129.79401,17.068199 -2.82801,0"
       id="line4715"
       inkscape:connector-curvature="0" />
  </g>
  <g
     partID="854711930"
     id="g4717"
     transform="translate(95.774992,-47.244108)">
    <path
       style="stroke:#000000;stroke-width:1.72800004;stroke-linecap:round"
       d="m 98.0224,53.068199 2.9716,0"
       id="line4719"
       inkscape:connector-curvature="0" />
  </g>
  <g
     partID="854739480"
     id="g4721"
     transform="translate(95.774992,-47.244108)">
    <path
       style="stroke:#000000;stroke-width:1.72800004;stroke-linecap:round"
       d="M 52.629601,17.181 45.8587,51.0481"
       id="line4723"
       inkscape:connector-curvature="0" />
  </g>
  <g
     partID="854730310"
     id="g4725"
     transform="translate(95.774992,-47.244108)">
    <path
       style="stroke:#000000;stroke-width:1.72800004;stroke-linecap:round"
       d="m 47.5144,53.068199 17.322697,0"
       id="line4727"
       inkscape:connector-curvature="0" />
  </g>
  <g
     partID="854730370"
     id="g4729"
     transform="translate(95.774992,-47.244108)">
    <path
       style="stroke:#000000;stroke-width:1.72800004;stroke-linecap:round"
       d="M 31.017599,22.0285 30.938,17.181"
       id="line4731"
       inkscape:connector-curvature="0" />
  </g>
  <g
     partID="854730530"
     id="g4733"
     transform="translate(95.774992,-47.244108)">
    <path
       style="stroke:#000000;stroke-width:1.72800004;stroke-linecap:round"
       d="M 13.8938,35.708599 29.190599,25.5107"
       id="line4735"
       inkscape:connector-curvature="0" />
  </g>
  <g
     partID="854743400"
     id="g4737"
     transform="translate(95.774992,-47.244108)">
    <path
       style="stroke:#000000;stroke-width:1.72800004;stroke-linecap:round"
       d="m 117.454,24.2682 0,-19.4320398"
       id="line4739"
       inkscape:connector-curvature="0" />
  </g>
  <g
     partID="854729230"
     id="g4741"
     transform="translate(95.774992,-47.244108)">
    <path
       style="stroke:#000000;stroke-width:1.72800004;stroke-linecap:round"
       d="m 122.342,24.2682 -4.888,0"
       id="line4743"
       inkscape:connector-curvature="0" />
  </g>
  <g
     partID="854739710"
     id="g4745"
     transform="translate(95.774992,-47.244108)">
    <path
       style="stroke:#000000;stroke-width:1.72800004;stroke-linecap:round"
       d="m 124.654,14.7562 0,-9.9200398"
       id="line4747"
       inkscape:connector-curvature="0" />
  </g>
  <g
     partID="854739270"
     id="g4749"
     transform="translate(95.774992,-47.244108)">
    <path
       style="stroke:#000000;stroke-width:1.72800004;stroke-linecap:round"
       d="m 30.938,17.181 21.6912,0"
       id="line4751"
       inkscape:connector-curvature="0" />
  </g>
  <g
     partID="854728990"
     id="g4753"
     transform="translate(95.774992,-47.244108)">
    <path
       style="stroke:#000000;stroke-width:1.72800004;stroke-linecap:round"
       d="m 67.055199,26.202 -3.97e-4,17.448799"
       id="line4755"
       inkscape:connector-curvature="0" />
  </g>
  <g
     partID="854728750"
     id="g4757"
     transform="translate(95.774992,-47.244108)">
    <path
       style="stroke:#000000;stroke-width:1.72800004;stroke-linecap:round"
       d="m 131.854,47.9282 0,3.080002"
       id="line4759"
       inkscape:connector-curvature="0" />
  </g>
  <g
     partID="854743770"
     id="g4761"
     transform="translate(95.774992,-47.244108)">
    <path
       style="stroke:#000000;stroke-width:1.72800004;stroke-linecap:round"
       d="m 124.654,45.868198 5.14001,0"
       id="line4763"
       inkscape:connector-curvature="0" />
  </g>
  <g
     partID="854728810"
     id="g4765"
     transform="translate(95.774992,-47.244108)">
    <path
       style="stroke:#000000;stroke-width:1.72800004;stroke-linecap:round"
       d="m 124.654,33.780201 0,12.087997"
       id="line4767"
       inkscape:connector-curvature="0" />
  </g>
  <g
     partID="854729170"
     id="g4769"
     transform="translate(95.774992,-47.244108)">
    <path
       style="stroke:#000000;stroke-width:1.72800004;stroke-linecap:round"
       d="M 68.913597,16.6458 115.371,3.26807"
       id="line4771"
       inkscape:connector-curvature="0" />
  </g>
  <g
     partID="854729430"
     id="g4773"
     transform="translate(95.774992,-47.244108)">
    <path
       style="stroke:#000000;stroke-width:1.72800004;stroke-linecap:round"
       d="m 47.5144,60.2682 17.322697,0"
       id="line4775"
       inkscape:connector-curvature="0" />
  </g>
  <g
     partID="854730090"
     id="g4777"
     transform="translate(95.774992,-47.244108)">
    <path
       style="stroke:#000000;stroke-width:1.72800004;stroke-linecap:round"
       d="m 69.271599,53.0457 4.901199,-0.0495"
       id="line4779"
       inkscape:connector-curvature="0" />
  </g>
  <g
     partID="854730130"
     id="g4781"
     transform="translate(95.774992,-47.244108)">
    <path
       style="stroke:#000000;stroke-width:1.72800004;stroke-linecap:round"
       d="M 74.172798,52.996201 74.32,67.373001"
       id="line4783"
       inkscape:connector-curvature="0" />
  </g>
  <g
     partID="854731470"
     id="g4785"
     transform="translate(95.774992,-47.244108)">
    <path
       style="stroke:#000000;stroke-width:1.72800004;stroke-linecap:round"
       d="m 139.062,67.416199 -0.008,-50.348"
       id="line4787"
       inkscape:connector-curvature="0" />
  </g>
  <g
     partID="854730230"
     id="g4789"
     transform="translate(95.774992,-47.244108)">
    <path
       style="stroke:#000000;stroke-width:1.72800004;stroke-linecap:round"
       d="m 74.32,67.373001 64.742,0.0432"
       id="line4791"
       inkscape:connector-curvature="0" />
  </g>
  <g
     partID="854730270"
     id="g4793"
     transform="translate(95.774992,-47.244108)">
    <path
       style="stroke:#000000;stroke-width:1.72800004;stroke-linecap:round"
       d="m 139.054,17.068199 -12.088,0"
       id="line4795"
       inkscape:connector-curvature="0" />
  </g>
  <g
     partID="854732250"
     id="g4797"
     transform="translate(95.774992,-47.244108)">
    <path
       style="stroke:#000000;stroke-width:1.72800004;stroke-linecap:round"
       d="m 45.573601,60.2066 1.7103,-0.8857"
       id="line4799"
       inkscape:connector-curvature="0" />
  </g>
  <g
     partID="854732490"
     id="g4801"
     transform="translate(95.774992,-47.244108)">
    <path
       style="stroke:#000000;stroke-width:1.72800004;stroke-linecap:round"
       d="m 31.1535,60.2066 14.419899,3.02e-4"
       id="line4803"
       inkscape:connector-curvature="0" />
  </g>
  <g
     partID="854732260"
     id="g4805"
     transform="translate(95.774992,-47.244108)">
    <path
       style="stroke:#000000;stroke-width:1.72800004;stroke-linecap:round"
       d="M 44.626202,26.3494 31.1535,60.2062"
       id="line4807"
       inkscape:connector-curvature="0" />
  </g>
  <g
     partID="854732860"
     id="g4809"
     transform="translate(95.774992,-47.244108)">
    <path
       style="stroke:#000000;stroke-width:1.72800004;stroke-linecap:round"
       d="M 31.1535,60.2066 14.5711,59.603802"
       id="line4811"
       inkscape:connector-curvature="0" />
  </g>
  <g
     partID="854732870"
     id="g4813"
     transform="translate(95.774992,-47.244108)">
    <path
       style="stroke:#000000;stroke-width:1.72800004;stroke-linecap:round"
       d="M 43.394402,60.2593 31.1535,60.2066"
       id="line4815"
       inkscape:connector-curvature="0" />
  </g>
</svg>
