<?xml version='1.0' encoding='UTF-8' standalone='no'?>
<!-- Created with Fritzing (http://www.fritzing.org/) -->
<svg xmlns="http://www.w3.org/2000/svg" xmlns:svg="http://www.w3.org/2000/svg" viewBox="0 0 141.732 70.8661" width="1.9685in" y="0in" height="0.984252in"  version="1.2" baseProfile="tiny" x="0in">
 <g partID="57661">
  <g id="silkscreen">
   <rect stroke="black" stroke-width="0.576" width="141.156" height="70.2901" y="0.288" fill="none" x="0.288"/>
  </g>
 </g>
 <g partID="57660">
  <g id="board">
   <rect fill-opacity="0.5" stroke="black" stroke-width="0.5" width="141.156" height="70.2901" y="0.288" id="boardoutline" fill="none" x="0.288"/>
  </g>
 </g>
 <g partID="57661">
  <g id="silkscreen">
   <rect stroke="black" stroke-width="0.576" width="141.156" height="70.2901" y="0.288" fill="none" x="0.288"/>
  </g>
 </g>
 <g partID="854614441">
  <g transform="translate(110.254,40.1082)">
   <g transform="matrix(-3.33067e-16,-1,1,-3.33067e-16,0,0)">
    <g id="silkscreen">
     <line y1="5.76" stroke="black" stroke-width="0.72" x1="1.44" y2="5.76" x2="30.24"/>
     <line y1="5.76" stroke="black" stroke-width="0.72" x1="30.24" y2="18.72" x2="30.24"/>
     <line y1="18.72" stroke="black" stroke-width="0.72" x1="30.24" y2="18.72" x2="1.44"/>
     <line y1="18.72" stroke="black" stroke-width="0.72" x1="1.44" y2="5.76" x2="1.44"/>
     <line y1="5.76" stroke="black" stroke-width="0.72" x1="1.44" y2="5.76" x2="30.24"/>
     <line y1="5.76" stroke="black" stroke-width="0.72" x1="30.24" y2="10.08" x2="30.24"/>
     <line y1="10.08" stroke="black" stroke-width="0.72" x1="30.24" y2="10.08" x2="1.44"/>
     <line y1="10.08" stroke="black" stroke-width="0.72" x1="1.44" y2="5.76" x2="1.44"/>
     <line y1="5.76" stroke="black" stroke-width="0.36" x1="10.8" y2="10.08" x2="10.8"/>
     <line y1="5.76" stroke="black" stroke-width="0.36" x1="20.88" y2="10.08" x2="20.88"/>
    </g>
   </g>
  </g>
 </g>
 <g partID="854628311">
  <g transform="translate(128.758,48.5682)">
   <g transform="matrix(-3.33067e-16,-1,1,-3.33067e-16,0,0)">
    <g id="silkscreen">
     <line y1="3.096" stroke="black" stroke-width="0.72" x1="5.4" y2="3.096" x2="10.584"/>
     <line y1="3.096" stroke="black" stroke-width="0.72" x1="24.984" y2="3.096" x2="28.8"/>
     <line y1="0.72" stroke="black" stroke-width="0.72" x1="10.584" y2="0.72" x2="24.984"/>
     <line y1="0.72" stroke="black" stroke-width="0.72" x1="24.984" y2="5.472" x2="24.984"/>
     <line y1="5.472" stroke="black" stroke-width="0.72" x1="24.984" y2="5.472" x2="10.584"/>
     <line y1="5.472" stroke="black" stroke-width="0.72" x1="10.584" y2="0.72" x2="10.584"/>
    </g>
   </g>
  </g>
 </g>
 <g partID="854614381">
  <g transform="translate(100.354,49.9722)">
   <g id="silkscreen">
    <line y1="3.096" stroke="black" stroke-width="0.72" x1="5.4" y2="3.096" x2="10.584"/>
    <line y1="3.096" stroke="black" stroke-width="0.72" x1="24.984" y2="3.096" x2="28.8"/>
    <line y1="0.72" stroke="black" stroke-width="0.72" x1="10.584" y2="0.72" x2="24.984"/>
    <line y1="0.72" stroke="black" stroke-width="0.72" x1="24.984" y2="5.472" x2="24.984"/>
    <line y1="5.472" stroke="black" stroke-width="0.72" x1="24.984" y2="5.472" x2="10.584"/>
    <line y1="5.472" stroke="black" stroke-width="0.72" x1="10.584" y2="0.72" x2="10.584"/>
   </g>
  </g>
 </g>
 <g partID="854614611">
  <g transform="translate(59.5664,67.7562)">
   <g transform="matrix(0,-1,1,0,0,0)">
    <g id="silkscreen">
     <line class="other" y1="12.888" stroke="black" stroke-width="0.576" x1="29.088" y2="12.888" x2="0.288" stroke-linecap="round"/>
     <line class="other" y1="12.888" stroke="black" stroke-width="0.576" x1="0.288" y2="2.088" x2="0.288" stroke-linecap="round"/>
     <line class="other" y1="2.088" stroke="black" stroke-width="0.576" x1="0.288" y2="0.288" x2="0.288" stroke-linecap="round"/>
     <line class="other" y1="0.288" stroke="black" stroke-width="0.576" x1="0.288" y2="0.288" x2="29.088" stroke-linecap="round"/>
     <line class="other" y1="0.288" stroke="black" stroke-width="0.576" x1="29.088" y2="2.088" x2="29.088" stroke-linecap="round"/>
     <line class="other" y1="2.088" stroke="black" stroke-width="0.576" x1="29.088" y2="12.888" x2="29.088" stroke-linecap="round"/>
     <line class="other" y1="2.088" stroke="black" stroke-width="0.576" x1="29.088" y2="2.088" x2="0.288" stroke-linecap="round"/>
    </g>
   </g>
  </g>
 </g>
 <g partID="854614641">
  <g transform="translate(112.414,7.70816)">
   <g transform="matrix(0,-1,1,0,0,0)">
    <g id="silkscreen">
     <line y1="1.44" stroke="black" stroke-width="0.72" x1="1.44" y2="23.04" x2="1.44"/>
     <line y1="23.04" stroke="black" stroke-width="0.72" x1="1.44" y2="23.04" x2="8.64"/>
     <line y1="23.04" stroke="black" stroke-width="0.72" x1="8.64" y2="1.44" x2="8.64"/>
     <line y1="1.44" stroke="black" stroke-width="0.72" x1="8.64" y2="1.44" x2="1.44"/>
     <line y1="3.96" stroke="black" stroke-width="0.36" x1="1.44" y2="1.44" x2="3.96"/>
     <!-- 120 -->
    </g>
   </g>
  </g>
 </g>
 <g partID="854617701">
  <g transform="translate(-3.15752,32.8362)">
   <g id="silkscreen">
    <line class="other" y1="4.752" stroke="black" stroke-width="0.576" x1="24.9358" y2="4.752" x2="19.4151" stroke-linecap="round"/>
    <line class="other" y1="35.9467" stroke="black" stroke-width="0.576" x1="24.9358" y2="21.6431" x2="24.9358" stroke-linecap="round"/>
    <line class="other" y1="4.752" stroke="black" stroke-width="0.576" x1="24.9358" y2="8.32025" x2="24.9358" stroke-linecap="round"/>
    <line class="other" y1="35.9467" stroke="black" stroke-width="0.576" x1="0.288" y2="4.752" x2="0.288" stroke-linecap="round"/>
    <line class="other" y1="4.752" stroke="black" stroke-width="0.576" x1="0.288" y2="4.752" x2="5.80876" stroke-linecap="round"/>
    <line class="other" y1="35.9467" stroke="black" stroke-width="0.576" x1="0.288" y2="35.9467" x2="24.9358" stroke-linecap="round"/>
   </g>
  </g>
 </g>
 <g partID="854624361">
  <g transform="translate(58.2672,13.6346)">
   <g id="silkscreen">
    <path stroke="black" stroke-width="0.56696" stroke-linejoin="round" id="path2820" fill="none" stroke-linecap="round" d="M13.912,0.3048c3.748,2.8296,4.4912,8.1624,1.6608,11.9112c-2.8304,3.748,-8.1632,4.4912,-11.9112,1.6608S-0.8288,5.7128,2.0016,1.9656C2.4824,1.328,3.0504,0.7616,3.6904,0.2832"/>
    <path stroke="black" stroke-width="0.56696" id="path3707" fill="none" stroke-linecap="round" d="M13.8896,0.2872L3.6848,0.2872"/>
   </g>
  </g>
 </g>
 <g partID="854630481">
  <g transform="translate(53.0144,49.1082)">
   <g transform="matrix(4.996e-16,1,-1,4.996e-16,0,0)">
    <g id="silkscreen">
     <circle stroke="black" stroke-width="0.72" cx="7.56" id="circle7" fill="none" cy="7.56" r="7.2"/>
     <path stroke="black" stroke-width="0.792" fill="none" stroke-linecap="round" d="m2.88,3.6,2.16,0"/>
     <path stroke="black" stroke-width="0.792" fill="none" stroke-linecap="round" d="m2.88,11.52,2.16,0"/>
    </g>
   </g>
  </g>
 </g>
 <g partID="854693881">
  <g transform="translate(22.0544,38.6682)">
   <g transform="matrix(0,-1,1,0,0,0)">
    <g id="silkscreen">
     <line y1="1.44" stroke="black" stroke-width="0.72" x1="1.44" id="vertical-left" y2="30.96" x2="1.44"/>
     <line y1="30.96" stroke="black" stroke-width="0.72" x1="1.44" id="bottom" y2="30.96" x2="33.12"/>
     <line y1="30.96" stroke="black" stroke-width="0.72" x1="33.12" id="vertical-right" y2="1.44" x2="33.12"/>
     <line y1="1.44" stroke="black" stroke-width="0.72" x1="33.12" id="top" y2="1.44" x2="1.44"/>
     <line y1="30.96" stroke="black" stroke-width="0.36" x1="27.36" id="mid-vertical" y2="1.44" x2="27.36"/>
    </g>
   </g>
  </g>
 </g>
 <g partID="854736631">
  <g transform="translate(76.4144,58.1082)">
   <g transform="matrix(-4.44089e-16,-1,1,-4.44089e-16,0,0)">
    <g id="silkscreen">
     <line y1="1.44" stroke="black" stroke-width="0.72" x1="1.44" y2="15.84" x2="1.44"/>
     <line y1="15.84" stroke="black" stroke-width="0.72" x1="1.44" y2="15.84" x2="8.64"/>
     <line y1="15.84" stroke="black" stroke-width="0.72" x1="8.64" y2="1.44" x2="8.64"/>
     <line y1="1.44" stroke="black" stroke-width="0.72" x1="8.64" y2="1.44" x2="1.44"/>
     <line y1="3.96" stroke="black" stroke-width="0.36" x1="1.44" y2="1.44" x2="3.96"/>
     <!-- 120 -->
    </g>
   </g>
  </g>
 </g>
 <g partID="854711761">
  <g transform="translate(90.8144,48.0282)">
   <g id="silkscreen">
    <line y1="1.44" stroke="black" stroke-width="0.72" x1="1.44" y2="8.64" x2="1.44"/>
    <line y1="8.64" stroke="black" stroke-width="0.72" x1="1.44" y2="8.64" x2="8.64"/>
    <line y1="8.64" stroke="black" stroke-width="0.72" x1="8.64" y2="1.44" x2="8.64"/>
    <line y1="1.44" stroke="black" stroke-width="0.72" x1="8.64" y2="1.44" x2="1.44"/>
    <line y1="3.96" stroke="black" stroke-width="0.36" x1="1.44" y2="1.44" x2="3.96"/>
    <!-- 120 -->
   </g>
  </g>
 </g>
 <g partID="854614380" id="partLabel">
  <g transform="translate(114.234,57.0122)">
   <g font-size="5" fill-opacity="1" font-family="'OCRA'" stroke="none" font-weight="normal" fill="#000000" id="silkscreenLabel" font-style="normal">
    <text y="3.75" x="0">R1</text>
    <text y="8.75" x="0">47&#x3a9;</text>
   </g>
  </g>
 </g>
 <g partID="854628310" id="partLabel">
  <g transform="translate(124.438,36.6082)">
   <g transform="matrix(-3.33067e-16,-1,1,-3.33067e-16,0,0)">
    <g font-size="5" fill-opacity="1" font-family="'OCRA'" stroke="none" font-weight="normal" fill="#000000" id="silkscreenLabel" font-style="normal">
     <text y="3.75" x="0">R2</text>
     <text y="8.75" x="0">10k&#x3a9;</text>
    </g>
   </g>
  </g>
 </g>
 <g partID="854614640" id="partLabel">
  <g transform="translate(103.454,-2.69184)">
   <g font-size="5" fill-opacity="1" font-family="'OCRA'" stroke="none" font-weight="normal" fill="#000000" id="silkscreenLabel" font-style="normal">
    <text y="3.75" x="0">S1</text>
   </g>
  </g>
 </g>
 <g partID="854617700" id="partLabel">
  <g transform="translate(25.9492,27.2362)">
   <g font-size="5" fill-opacity="1" font-family="'OCRA'" stroke="none" font-weight="normal" fill="#000000" id="silkscreenLabel" font-style="normal">
    <text y="3.75" x="0">J4</text>
   </g>
  </g>
 </g>
 <g partID="854624360" id="partLabel">
  <g transform="translate(57.9216,7.87456)">
   <g font-size="5" fill-opacity="1" font-family="'OCRA'" stroke="none" font-weight="normal" fill="#000000" id="silkscreenLabel" font-style="normal">
    <text y="3.75" x="0">LASER</text>
   </g>
  </g>
 </g>
 <g partID="854630480" id="partLabel">
  <g transform="translate(38.7744,43.4282)">
   <g font-size="5" fill-opacity="1" font-family="'OCRA'" stroke="none" font-weight="normal" fill="#000000" id="silkscreenLabel" font-style="normal">
    <text y="3.75" x="0">C1</text>
   </g>
  </g>
 </g>
 <g partID="854614610" id="partLabel">
  <g transform="translate(54.6064,56.9402)">
   <g transform="matrix(0,-1,1,0,0,0)">
    <g font-size="5" fill-opacity="1" font-family="'OCRA'" stroke="none" font-weight="normal" fill="#000000" id="silkscreenLabel" font-style="normal">
     <text y="3.75" x="0">IC1</text>
     <text y="8.75" x="0">78005</text>
    </g>
   </g>
  </g>
 </g>
 <g partID="854711760" id="partLabel">
  <g transform="translate(94.9744,43.7082)">
   <g font-size="5" fill-opacity="1" font-family="'OCRA'" stroke="none" font-weight="normal" fill="#000000" id="silkscreenLabel" font-style="normal">
    <text y="3.75" x="0">J7</text>
   </g>
  </g>
 </g>
 <g partID="854736630" id="partLabel">
  <g transform="translate(76.7344,43.8682)">
   <g font-size="5" fill-opacity="1" font-family="'OCRA'" stroke="none" font-weight="normal" fill="#000000" id="silkscreenLabel" font-style="normal">
    <text y="3.75" x="0">J8</text>
   </g>
  </g>
 </g>
 <g partID="854693880" id="partLabel">
  <g transform="translate(55.1744,-0.05184)">
   <g font-size="5" fill-opacity="1" font-family="'OCRA'" stroke="none" font-weight="normal" fill="#000000" id="silkscreenLabel" font-style="normal">
    <text y="3.75" x="0">J5</text>
   </g>
  </g>
 </g>
 <g partID="854614440" id="partLabel">
  <g transform="translate(111.534,28.9082)">
   <g transform="matrix(-3.33067e-16,-1,1,-3.33067e-16,0,0)">
    <g font-size="5" fill-opacity="1" font-family="'OCRA'" stroke="none" font-weight="normal" fill="#000000" id="silkscreenLabel" font-style="normal">
     <text y="3.75" x="0">IRFZ44N</text>
    </g>
   </g>
  </g>
 </g>
 <g partID="854614442">
  <g transform="translate(110.254,40.1082)">
   <g transform="matrix(-3.33067e-16,-1,1,-3.33067e-16,0,0)">
    <g id="copper1">
     <g id="copper0">
      <rect stroke="white" stroke-width="2.16" width="4.464" height="4.464" y="12.168" fill="white" x="6.408"/>
      <circle stroke="white" stroke-width="2.16" cx="8.64" fill="white" id="connector0pad" cy="14.4" r="2.232"/>
      <circle stroke="white" stroke-width="2.16" cx="15.84" fill="white" id="connector1pad" cy="14.4" r="2.232"/>
      <circle stroke="white" stroke-width="2.16" cx="23.04" fill="white" id="connector2pad" cy="14.4" r="2.232"/>
     </g>
    </g>
   </g>
  </g>
 </g>
 <g partID="854628312">
  <g transform="translate(128.758,48.5682)">
   <g transform="matrix(-3.33067e-16,-1,1,-3.33067e-16,0,0)">
    <g id="copper1">
     <!-- <rect width="55" x="10" y="15.5" fill="none" height="55" stroke="rgb(255, 191, 0)" stroke-width="20" />  -->
     <circle stroke="white" stroke-width="2.16" cx="2.7" fill="white" id="connector0pin" cy="3.096" r="1.98"/>
     <circle stroke="white" stroke-width="2.16" cx="31.5" fill="white" id="connector1pin" cy="3.096" r="1.98"/>
    </g>
   </g>
  </g>
 </g>
 <g partID="854614382">
  <g transform="translate(100.354,49.9722)">
   <g id="copper1">
    <!-- <rect width="55" x="10" y="15.5" fill="none" height="55" stroke="rgb(255, 191, 0)" stroke-width="20" />  -->
    <circle stroke="white" stroke-width="2.16" cx="2.7" fill="white" id="connector0pin" cy="3.096" r="1.98"/>
    <circle stroke="white" stroke-width="2.16" cx="31.5" fill="white" id="connector1pin" cy="3.096" r="1.98"/>
   </g>
  </g>
 </g>
 <g partID="854614612">
  <g transform="translate(59.5664,67.7562)">
   <g transform="matrix(0,-1,1,0,0,0)">
    <g id="copper1">
     <circle connectorname="IN" stroke="white" stroke-width="1.96668" cx="7.488" id="connector1pad" fill="white" cy="7.488" r="2.04066"/>
     <path stroke="white" stroke-width="0.72" fill="white" d="m4.824,4.824,5.328,0,0,5.328,-5.328,0,0,-5.328zM6.07068,7.488a1.41732,1.41732,0,1,0,2.83465,0,1.41732,1.41732,0,1,0,-2.83465,0z"/>
     <circle connectorname="GND" stroke="white" stroke-width="1.96668" cx="14.688" id="connector0pad" fill="white" cy="7.488" r="2.04066"/>
     <circle connectorname="OUT" stroke="white" stroke-width="1.96668" cx="21.888" id="connector2pad" fill="white" cy="7.488" r="2.04066"/>
     <g id="copper0">
      <circle connectorname="IN" stroke="white" stroke-width="1.96668" cx="7.488" id="connector1pad" fill="white" cy="7.488" r="2.04066"/>
      <path stroke="white" stroke-width="0.72" fill="white" d="m4.824,4.824,5.328,0,0,5.328,-5.328,0,0,-5.328zM6.07068,7.488a1.41732,1.41732,0,1,0,2.83465,0,1.41732,1.41732,0,1,0,-2.83465,0z"/>
      <circle connectorname="GND" stroke="white" stroke-width="1.96668" cx="14.688" id="connector0pad" fill="white" cy="7.488" r="2.04066"/>
      <circle connectorname="OUT" stroke="white" stroke-width="1.96668" cx="21.888" id="connector2pad" fill="white" cy="7.488" r="2.04066"/>
     </g>
    </g>
   </g>
  </g>
 </g>
 <g partID="854614642">
  <g transform="translate(112.414,7.70816)">
   <g transform="matrix(0,-1,1,0,0,0)">
    <g id="copper1">
     <g id="copper0">
      <rect stroke="white" stroke-width="2.16" width="4.176" height="4.176" y="2.952" id="square" fill="white" x="2.952"/>
      <circle stroke="white" stroke-width="2.16" cx="5.04" fill="white" id="connector0pin" cy="5.04" r="2.088"/>
      <circle stroke="white" stroke-width="2.16" cx="5.04" fill="white" id="connector1pin" cy="12.24" r="2.088"/>
      <circle stroke="white" stroke-width="2.16" cx="5.04" fill="white" id="connector2pin" cy="19.44" r="2.088"/>
     </g>
    </g>
   </g>
  </g>
 </g>
 <g partID="854617702">
  <g transform="translate(-3.15752,32.8362)">
   <g id="copper1">
    <circle connectorname="PWR" stroke="white" stroke-width="2.01657" cx="12.6119" id="connector2pad" fill="white" cy="5.832" r="5.18372"/>
    <circle connectorname="GND" stroke="white" stroke-width="2.304" cx="12.6839" id="connector0pad" fill="white" cy="26.5839" r="5.04"/>
    <circle connectorname="GNDBREAK" stroke="white" stroke-width="2.304" cx="23.2747" id="connector1pad" fill="white" cy="14.8399" r="5.04"/>
    <g id="copper0">
     <circle connectorname="PWR" stroke="white" stroke-width="2.01657" cx="12.6119" id="connector2pad" fill="white" cy="5.832" r="5.18372"/>
     <circle connectorname="GND" stroke="white" stroke-width="2.304" cx="12.6839" id="connector0pad" fill="white" cy="26.5839" r="5.04"/>
     <circle connectorname="GNDBREAK" stroke="white" stroke-width="2.304" cx="23.2747" id="connector1pad" fill="white" cy="14.8399" r="5.04"/>
    </g>
   </g>
  </g>
 </g>
 <g partID="854624362">
  <g transform="translate(58.2672,13.6346)">
   <g id="copper1">
    <circle stroke="white" stroke-width="1.85384" cx="8.7876" id="connector1pad" fill="white" cy="10.6336" r="1.7008"/>
    <rect stroke="white" stroke-width="1.85384" width="3.4016" y="8.9328" height="3.4016" fill="white" x="7.0868"/>
    <circle stroke="white" stroke-width="1.85384" cx="8.7876" id="connector0pad" fill="white" cy="3.5464" r="1.7008"/>
   </g>
  </g>
 </g>
 <g partID="854630482">
  <g transform="translate(53.0144,49.1082)">
   <g transform="matrix(4.996e-16,1,-1,4.996e-16,0,0)">
    <g id="copper1">
     <g id="copper0">
      <rect stroke="white" stroke-width="2.16" width="3.96" height="3.96" y="5.58" id="rect11" fill="white" x="1.98"/>
      <circle stroke="white" stroke-width="2.16" cx="3.96" id="connector0pin" fill="white" cy="7.56" r="1.98"/>
      <circle stroke="white" stroke-width="2.16" cx="11.16" id="connector1pin" fill="white" cy="7.56" r="1.98"/>
     </g>
    </g>
   </g>
  </g>
 </g>
 <g partID="854693882">
  <g transform="translate(22.0544,38.6682)">
   <g transform="matrix(0,-1,1,0,0,0)">
    <g id="copper1">
     <g id="copper0">
      <rect stroke="white" stroke-width="2.16" width="4.32" height="4.32" y="6.84" id="square" fill="white" x="12.24"/>
      <circle stroke="white" stroke-width="2.16" cx="14.4" fill="white" id="connector0pin" cy="9" r="2.16"/>
      <circle stroke="white" stroke-width="2.16" cx="14.4" fill="white" id="connector1pin" cy="23.4" r="2.16"/>
     </g>
    </g>
   </g>
  </g>
 </g>
 <g partID="854736632">
  <g transform="translate(76.4144,58.1082)">
   <g transform="matrix(-4.44089e-16,-1,1,-4.44089e-16,0,0)">
    <g id="copper1">
     <g id="copper0">
      <circle stroke="white" stroke-width="2.16" cx="5.04" fill="white" id="connector0pin" cy="5.04" r="2.088"/>
      <circle stroke="white" stroke-width="2.16" cx="5.04" fill="white" id="connector1pin" cy="12.24" r="2.088"/>
     </g>
    </g>
   </g>
  </g>
 </g>
 <g partID="854711762">
  <g transform="translate(90.8144,48.0282)">
   <g id="copper1">
    <g id="copper0">
     <circle stroke="white" stroke-width="2.16" cx="5.04" fill="white" id="connector0pin" cy="5.04" r="2.088"/>
    </g>
   </g>
  </g>
 </g>
</svg>
