<?xml version="1.0" encoding="UTF-8" standalone="no"?>
<!-- Created with Inkscape (http://www.inkscape.org/) -->

<svg
   xmlns:dc="http://purl.org/dc/elements/1.1/"
   xmlns:cc="http://creativecommons.org/ns#"
   xmlns:rdf="http://www.w3.org/1999/02/22-rdf-syntax-ns#"
   xmlns:svg="http://www.w3.org/2000/svg"
   xmlns="http://www.w3.org/2000/svg"
   xmlns:sodipodi="http://sodipodi.sourceforge.net/DTD/sodipodi-0.dtd"
   xmlns:inkscape="http://www.inkscape.org/namespaces/inkscape"
   width="151.18111"
   height="151.18111"
   viewBox="0 0 40 40"
   version="1.1"
   id="svg8"
   inkscape:version="0.92.2 5c3e80d, 2017-08-06"
   sodipodi:docname="20191230sign.svg">
  <defs
     id="defs2" />
  <sodipodi:namedview
     id="base"
     pagecolor="#ffffff"
     bordercolor="#666666"
     borderopacity="1.0"
     inkscape:pageopacity="0.0"
     inkscape:pageshadow="2"
     inkscape:zoom="3.5865621"
     inkscape:cx="86.89583"
     inkscape:cy="9.5174095"
     inkscape:document-units="mm"
     inkscape:current-layer="g247"
     showgrid="false"
     units="px"
     inkscape:window-width="1628"
     inkscape:window-height="1005"
     inkscape:window-x="52"
     inkscape:window-y="1"
     inkscape:window-maximized="1" />
  <metadata
     id="metadata5">
    <rdf:RDF>
      <cc:Work
         rdf:about="">
        <dc:format>image/svg+xml</dc:format>
        <dc:type
           rdf:resource="http://purl.org/dc/dcmitype/StillImage" />
        <dc:title></dc:title>
      </cc:Work>
    </rdf:RDF>
  </metadata>
  <g
     inkscape:label="Layer 1"
     inkscape:groupmode="layer"
     id="layer1"
     transform="translate(0,-256.99999)">
    <g
       aria-label="Laser CNC By Miu 2019/12/30"
       style="font-style:normal;font-weight:normal;font-size:10.58333302px;line-height:1.25;font-family:sans-serif;letter-spacing:0px;word-spacing:0px;fill:#000000;fill-opacity:1;stroke:none;stroke-width:0.26458332"
       id="text12"
       transform="matrix(-1.1457796,0,0,1.6553735,39.896224,-201.48649)">
      <path
         d="m -26.55356,282.10316 h 1.043864 v 6.83679 h 3.756876 v 0.8785 h -4.80074 z"
         style="stroke-width:0.26458332"
         id="path30"
         inkscape:connector-curvature="0" />
      <path
         d="m -18.073458,286.90907 q -1.152384,0 -1.596802,0.26355 -0.444417,0.26355 -0.444417,0.89917 0,0.50643 0.330729,0.80615 0.335897,0.29456 0.909505,0.29456 0.79065,0 1.266073,-0.55811 0.480591,-0.56327 0.480591,-1.49345 v -0.21187 z m 1.896525,-0.39274 v 3.30212 h -0.950846 v -0.8785 q -0.325562,0.5271 -0.81132,0.78032 -0.485759,0.24804 -1.188558,0.24804 -0.888835,0 -1.415934,-0.49609 -0.521932,-0.50126 -0.521932,-1.33842 0,-0.97669 0.651123,-1.47278 0.656291,-0.49609 1.953369,-0.49609 h 1.333252 v -0.093 q 0,-0.65629 -0.434082,-1.01286 -0.428915,-0.36173 -1.209229,-0.36173 -0.496093,0 -0.966349,0.11885 -0.470255,0.11886 -0.904337,0.35657 v -0.8785 q 0.521932,-0.20154 1.012858,-0.29972 0.490926,-0.10336 0.956014,-0.10336 1.255737,0 1.875854,0.65113 0.620117,0.65112 0.620117,1.97404 z"
         style="stroke-width:0.26458332"
         id="path32"
         inkscape:connector-curvature="0" />
      <path
         d="m -10.523531,284.20122 v 0.89917 q -0.403077,-0.2067 -0.837159,-0.31006 -0.434082,-0.10335 -0.899169,-0.10335 -0.707968,0 -1.064535,0.21704 -0.3514,0.21704 -0.3514,0.65113 0,0.33072 0.253215,0.52193 0.253214,0.18603 1.018026,0.35656 l 0.325561,0.0723 q 1.012858,0.21704 1.436605,0.61495 0.428914,0.39274 0.428914,1.10071 0,0.80615 -0.640788,1.27641 -0.63562,0.47025 -1.751831,0.47025 -0.465087,0 -0.971516,-0.093 -0.501262,-0.0879 -1.059367,-0.26872 v -0.98185 q 0.527099,0.27388 1.038696,0.41341 0.511597,0.13436 1.012858,0.13436 0.671794,0 1.033529,-0.22738 0.361735,-0.23254 0.361735,-0.65112 0,-0.38758 -0.26355,-0.59428 -0.258382,-0.20671 -1.142049,-0.39791 l -0.330729,-0.0775 q -0.883667,-0.18603 -1.276408,-0.56844 -0.392741,-0.38757 -0.392741,-1.05936 0,-0.81649 0.578776,-1.26091 0.578776,-0.44442 1.64331,-0.44442 0.5271,0 0.992188,0.0775 0.465088,0.0775 0.857829,0.23254 z"
         style="stroke-width:0.26458332"
         id="path34"
         inkscape:connector-curvature="0" />
      <path
         d="m -3.7435845,286.68686 v 0.46509 h -4.371826 q 0.062012,0.98185 0.5891113,1.49861 0.5322672,0.5116 1.4779459,0.5116 0.5477702,0 1.0593668,-0.13436 0.5167643,-0.13436 1.0231934,-0.40307 v 0.89917 q -0.5115967,0.21704 -1.0490316,0.33072 -0.5374349,0.11369 -1.0903727,0.11369 -1.3849283,0 -2.1962483,-0.80615 -0.8061523,-0.80615 -0.8061523,-2.18075 0,-1.4211 0.7648112,-2.25309 0.7699788,-0.83716 2.0722248,-0.83716 1.1678874,0 1.8448486,0.75448 0.6821289,0.74931 0.6821289,2.04122 z m -0.9508463,-0.27905 q -0.010335,-0.78032 -0.4392497,-1.24541 -0.4237467,-0.46508 -1.1265462,-0.46508 -0.795817,0 -1.2764078,0.44958 -0.4754232,0.44959 -0.5477702,1.26607 z"
         style="stroke-width:0.26458332"
         id="path36"
         inkscape:connector-curvature="0" />
      <path
         d="m 1.1708443,284.91953 q -0.160197,-0.093 -0.35139976,-0.13436 -0.18603515,-0.0465 -0.41341145,-0.0465 -0.80615232,0 -1.24023434,0.5271 -0.42891435,0.52193 -0.42891435,1.50378 v 3.04891 h -0.956014 v -5.78776 h 0.956014 v 0.89917 q 0.29972328,-0.5271 0.78031408,-0.78031 0.48059081,-0.25839 1.16788734,-0.25839 0.0981852,0 0.21704101,0.0155 0.11885577,0.0103 0.26354977,0.0362 z"
         style="stroke-width:0.26458332"
         id="path38"
         inkscape:connector-curvature="0" />
      <path
         d="m 11.366603,282.69744 v 1.10071 q -0.5271,-0.49093 -1.126546,-0.73381 -0.5942791,-0.24288 -1.2660727,-0.24288 -1.3229167,0 -2.0257161,0.81132 -0.7027995,0.80615 -0.7027995,2.33578 0,1.52445 0.7027995,2.33577 0.7027994,0.80615 2.0257161,0.80615 0.6717936,0 1.2660727,-0.24288 0.599446,-0.24287 1.126546,-0.7338 v 1.09037 q -0.54777,0.37207 -1.16272,0.55811 -0.6097816,0.18603 -1.2919104,0.18603 -1.7518311,0 -2.7595215,-1.0697 -1.0076904,-1.07487 -1.0076904,-2.93005 0,-1.86035 1.0076904,-2.93006 1.0076904,-1.07487 2.7595215,-1.07487 0.6924641,0 1.3022464,0.18604 0.614949,0.18087 1.152384,0.54777 z"
         style="stroke-width:0.26458332"
         id="path40"
         inkscape:connector-curvature="0" />
      <path
         d="m 12.989244,282.10316 h 1.405599 l 3.42098,6.45439 v -6.45439 h 1.012858 v 7.71529 h -1.405599 l -3.42098,-6.45439 v 6.45439 h -1.012858 z"
         style="stroke-width:0.26458332"
         id="path42"
         inkscape:connector-curvature="0" />
      <path
         d="m 26.683498,282.69744 v 1.10071 q -0.5271,-0.49093 -1.126547,-0.73381 -0.594279,-0.24288 -1.266072,-0.24288 -1.322917,0 -2.025716,0.81132 -0.7028,0.80615 -0.7028,2.33578 0,1.52445 0.7028,2.33577 0.702799,0.80615 2.025716,0.80615 0.671793,0 1.266072,-0.24288 0.599447,-0.24287 1.126547,-0.7338 v 1.09037 q -0.547771,0.37207 -1.16272,0.55811 -0.609782,0.18603 -1.291911,0.18603 -1.751831,0 -2.759521,-1.0697 -1.007691,-1.07487 -1.007691,-2.93005 0,-1.86035 1.007691,-2.93006 1.00769,-1.07487 2.759521,-1.07487 0.692464,0 1.302246,0.18604 0.61495,0.18087 1.152385,0.54777 z"
         style="stroke-width:0.26458332"
         id="path44"
         inkscape:connector-curvature="0" />
      <path
         d="m -25.509696,299.36309 v 2.8267 h 1.674316 q 0.842326,0 1.245402,-0.34623 0.408244,-0.3514 0.408244,-1.06971 0,-0.72347 -0.408244,-1.06453 -0.403076,-0.34623 -1.245402,-0.34623 z m 0,-3.17294 v 2.32544 h 1.545125 q 0.764811,0 1.136881,-0.28422 0.377238,-0.28938 0.377238,-0.8785 0,-0.58394 -0.377238,-0.87333 -0.37207,-0.28939 -1.136881,-0.28939 z m -1.043864,-0.85782 h 2.666504 q 1.193725,0 1.83968,0.49609 0.645956,0.49609 0.645956,1.41077 0,0.70796 -0.330729,1.12654 -0.330729,0.41858 -0.971517,0.52193 0.769979,0.16537 1.193725,0.69247 0.428915,0.52193 0.428915,1.30741 0,1.03353 -0.7028,1.5968 -0.702799,0.56328 -1.999878,0.56328 h -2.769856 z"
         style="stroke-width:0.26458332"
         id="path46"
         inkscape:connector-curvature="0" />
      <path
         d="m -16.931409,303.58505 q -0.403076,1.03353 -0.785481,1.34876 -0.382406,0.31522 -1.023194,0.31522 h -0.759643 v -0.79581 h 0.558105 q 0.392741,0 0.609782,-0.18604 0.217041,-0.18603 0.480591,-0.8785 l 0.170532,-0.43408 -2.340942,-5.69474 h 1.00769 l 1.808675,4.52685 1.808675,-4.52685 h 1.007691 z"
         style="stroke-width:0.26458332"
         id="path48"
         inkscape:connector-curvature="0" />
      <path
         d="m -9.6657029,295.33233 h 1.5554606 l 1.968872,5.25032 1.9792073,-5.25032 h 1.5554606 v 7.71529 h -1.0180257 v -6.77478 l -1.9895426,5.29166 h -1.0490315 l -1.9895426,-5.29166 v 6.77478 h -1.0128581 z"
         style="stroke-width:0.26458332"
         id="path50"
         inkscape:connector-curvature="0" />
      <path
         d="m -0.5706514,297.25986 h 0.95084632 v 5.78776 H -0.5706514 Z m 0,-2.2531 h 0.95084632 v 1.20407 H -0.5706514 Z"
         style="stroke-width:0.26458332"
         id="path52"
         inkscape:connector-curvature="0" />
      <path
         d="m 2.266386,300.76352 v -3.50366 h 0.9508463 v 3.46749 q 0,0.82165 0.3203939,1.23506 0.3203939,0.40825 0.9611816,0.40825 0.7699788,0 1.2143961,-0.49093 0.449585,-0.49093 0.449585,-1.33842 v -3.28145 h 0.9508463 v 5.78776 H 6.1627889 v -0.88884 q -0.3462321,0.5271 -0.8061523,0.78548 -0.4547526,0.25322 -1.0593669,0.25322 -0.9973551,0 -1.5141194,-0.62012 -0.5167643,-0.62012 -0.5167643,-1.81384 z"
         style="stroke-width:0.26458332"
         id="path54"
         inkscape:connector-curvature="0" />
      <path
         d="m -25.561373,315.39828 h 3.643189 v 0.8785 h -4.898926 v -0.8785 q 0.594279,-0.61495 1.617472,-1.64847 1.028361,-1.0387 1.291911,-1.33842 0.501261,-0.56328 0.697632,-0.95085 0.201538,-0.39274 0.201538,-0.76998 0,-0.61495 -0.434082,-1.00252 -0.428915,-0.38757 -1.121379,-0.38757 -0.490926,0 -1.038696,0.17053 -0.542602,0.17053 -1.16272,0.51676 v -1.0542 q 0.630453,-0.25321 1.178223,-0.3824 0.54777,-0.12919 1.002523,-0.12919 1.198893,0 1.912028,0.59944 0.713134,0.59945 0.713134,1.60197 0,0.47543 -0.180867,0.90434 -0.1757,0.42375 -0.645955,1.00252 -0.129192,0.14986 -0.821656,0.86817 -0.692464,0.71313 -1.953369,1.99987 z"
         style="stroke-width:0.26458332"
         id="path56"
         inkscape:connector-curvature="0" />
      <path
         d="m -17.489514,309.24879 q -0.806153,0 -1.214397,0.79582 -0.403076,0.79065 -0.403076,2.38228 0,1.58647 0.403076,2.38228 0.408244,0.79065 1.214397,0.79065 0.81132,0 1.214396,-0.79065 0.408243,-0.79581 0.408243,-2.38228 0,-1.59163 -0.408243,-2.38228 -0.403076,-0.79582 -1.214396,-0.79582 z m 0,-0.82682 q 1.297078,0 1.979207,1.02836 0.687296,1.02319 0.687296,2.97656 0,1.9482 -0.687296,2.97656 -0.682129,1.0232 -1.979207,1.0232 -1.297079,0 -1.984375,-1.0232 -0.682129,-1.02836 -0.682129,-2.97656 0,-1.95337 0.682129,-2.97656 0.687296,-1.02836 1.984375,-1.02836 z"
         style="stroke-width:0.26458332"
         id="path58"
         inkscape:connector-curvature="0" />
      <path
         d="m -12.802462,315.39828 h 1.705322 v -5.88594 l -1.855184,0.37207 v -0.95085 l 1.844849,-0.37207 h 1.043864 v 6.83679 h 1.7053217 v 0.8785 h -4.4441727 z"
         style="stroke-width:0.26458332"
         id="path60"
         inkscape:connector-curvature="0" />
      <path
         d="m -6.2137165,316.11659 v -0.95085 q 0.3927408,0.18604 0.795817,0.28422 0.4030762,0.0982 0.7906494,0.0982 1.0335286,0 1.5761311,-0.69247 0.5477702,-0.69763 0.6252848,-2.11356 -0.2997233,0.44441 -0.7596435,0.68212 -0.4599202,0.23772 -1.0180257,0.23772 -1.157552,0 -1.8345133,-0.69764 -0.6717936,-0.7028 -0.6717936,-1.91719 0,-1.18856 0.7027995,-1.90686 0.7027994,-0.7183 1.8706868,-0.7183 1.3384195,0 2.041219,1.02836 0.7079671,1.02319 0.7079671,2.97656 0,1.82418 -0.868164,2.91455 -0.8629964,1.08521 -2.3254394,1.08521 -0.3927409,0 -0.7958171,-0.0775 -0.4030761,-0.0775 -0.8371581,-0.23254 z m 2.0773925,-3.27112 q 0.7027994,0 1.1110432,-0.48059 0.4134115,-0.48059 0.4134115,-1.31775 0,-0.83199 -0.4134115,-1.31258 -0.4082438,-0.48576 -1.1110432,-0.48576 -0.7027995,0 -1.1162109,0.48576 -0.4082438,0.48059 -0.4082438,1.31258 0,0.83716 0.4082438,1.31775 0.4134114,0.48059 1.1162109,0.48059 z"
         style="stroke-width:0.26458332"
         id="path62"
         inkscape:connector-curvature="0" />
      <path
         d="M 2.0493437,308.56149 H 2.927843 l -2.68717441,8.69715 h -0.87849932 z"
         style="stroke-width:0.26458332"
         id="path64"
         inkscape:connector-curvature="0" />
      <path
         d="m 4.2507604,315.39828 h 1.7053222 v -5.88594 l -1.8551839,0.37207 v -0.95085 l 1.8448486,-0.37207 h 1.0438639 v 6.83679 h 1.7053222 v 0.8785 h -4.444173 z"
         style="stroke-width:0.26458332"
         id="path66"
         inkscape:connector-curvature="0" />
      <path
         d="m 11.70767,315.39828 h 3.643189 v 0.8785 h -4.898926 v -0.8785 q 0.594279,-0.61495 1.617472,-1.64847 1.028361,-1.0387 1.291911,-1.33842 0.501261,-0.56328 0.697632,-0.95085 0.201538,-0.39274 0.201538,-0.76998 0,-0.61495 -0.434082,-1.00252 -0.428915,-0.38757 -1.121379,-0.38757 -0.490926,0 -1.038696,0.17053 -0.542603,0.17053 -1.16272,0.51676 v -1.0542 q 0.630453,-0.25321 1.178223,-0.3824 0.54777,-0.12919 1.002523,-0.12919 1.198893,0 1.912028,0.59944 0.713134,0.59945 0.713134,1.60197 0,0.47543 -0.180867,0.90434 -0.1757,0.42375 -0.645956,1.00252 -0.129191,0.14986 -0.821655,0.86817 -0.692464,0.71313 -1.953369,1.99987 z"
         style="stroke-width:0.26458332"
         id="path68"
         inkscape:connector-curvature="0" />
      <path
         d="m 19.102566,308.56149 h 0.8785 l -2.687175,8.69715 h -0.878499 z"
         style="stroke-width:0.26458332"
         id="path70"
         inkscape:connector-curvature="0" />
      <path
         d="m 24.285711,312.11683 q 0.749308,0.1602 1.167887,0.66663 0.423747,0.50643 0.423747,1.25057 0,1.14205 -0.785482,1.76733 -0.785481,0.62529 -2.232421,0.62529 -0.485759,0 -1.002523,-0.0982 -0.511597,-0.093 -1.059367,-0.28422 v -1.00769 q 0.434082,0.25321 0.950846,0.3824 0.516765,0.1292 1.080038,0.1292 0.981852,0 1.493449,-0.38758 0.516764,-0.38757 0.516764,-1.12654 0,-0.68213 -0.480591,-1.06454 -0.475423,-0.38757 -1.328084,-0.38757 h -0.89917 v -0.85783 h 0.940511 q 0.769979,0 1.178223,-0.30489 0.408243,-0.31006 0.408243,-0.88884 0,-0.59427 -0.423746,-0.9095 -0.418579,-0.32039 -1.204061,-0.32039 -0.428914,0 -0.919841,0.093 -0.490926,0.093 -1.080037,0.28939 v -0.93017 q 0.594279,-0.16537 1.111043,-0.24805 0.521932,-0.0827 0.981852,-0.0827 1.188558,0 1.881023,0.5426 0.692464,0.53743 0.692464,1.45727 0,0.64079 -0.366903,1.08521 -0.366903,0.43925 -1.043864,0.60978 z"
         style="stroke-width:0.26458332"
         id="path72"
         inkscape:connector-curvature="0" />
      <path
         d="m 30.094141,309.24879 q -0.806152,0 -1.214396,0.79582 -0.403076,0.79065 -0.403076,2.38228 0,1.58647 0.403076,2.38228 0.408244,0.79065 1.214396,0.79065 0.81132,0 1.214396,-0.79065 0.408244,-0.79581 0.408244,-2.38228 0,-1.59163 -0.408244,-2.38228 -0.403076,-0.79582 -1.214396,-0.79582 z m 0,-0.82682 q 1.297078,0 1.979207,1.02836 0.687297,1.02319 0.687297,2.97656 0,1.9482 -0.687297,2.97656 -0.682129,1.0232 -1.979207,1.0232 -1.297079,0 -1.984375,-1.0232 -0.682129,-1.02836 -0.682129,-2.97656 0,-1.95337 0.682129,-2.97656 0.687296,-1.02836 1.984375,-1.02836 z"
         style="stroke-width:0.26458332"
         id="path74"
         inkscape:connector-curvature="0" />
    </g>
  </g>
  <g
     transform="translate(0,-256.99999)"
     id="g249"
     inkscape:groupmode="layer"
     inkscape:label="Layer 1 copy">
    <g
       transform="matrix(-1.1457796,0,0,1.6553735,39.896224,-201.48649)"
       id="g247"
       style="font-style:normal;font-weight:normal;font-size:10.58333302px;line-height:1.25;font-family:sans-serif;letter-spacing:0px;word-spacing:0px;fill:#000000;fill-opacity:1;stroke:none;stroke-width:0.26458332"
       aria-label="Laser CNC By Miu 2019/12/30">
      <path
         inkscape:connector-curvature="0"
         id="path201"
         style="stroke-width:0.26458332"
         d="m -26.55356,282.10316 h 1.043864 v 6.83679 h 3.756876 v 0.8785 h -4.80074 z" />
      <path
         inkscape:connector-curvature="0"
         id="path203"
         style="stroke-width:0.26458332"
         d="m -18.073458,286.90907 q -1.152384,0 -1.596802,0.26355 -0.444417,0.26355 -0.444417,0.89917 0,0.50643 0.330729,0.80615 0.335897,0.29456 0.909505,0.29456 0.79065,0 1.266073,-0.55811 0.480591,-0.56327 0.480591,-1.49345 v -0.21187 z m 1.896525,-0.39274 v 3.30212 h -0.950846 v -0.8785 q -0.325562,0.5271 -0.81132,0.78032 -0.485759,0.24804 -1.188558,0.24804 -0.888835,0 -1.415934,-0.49609 -0.521932,-0.50126 -0.521932,-1.33842 0,-0.97669 0.651123,-1.47278 0.656291,-0.49609 1.953369,-0.49609 h 1.333252 v -0.093 q 0,-0.65629 -0.434082,-1.01286 -0.428915,-0.36173 -1.209229,-0.36173 -0.496093,0 -0.966349,0.11885 -0.470255,0.11886 -0.904337,0.35657 v -0.8785 q 0.521932,-0.20154 1.012858,-0.29972 0.490926,-0.10336 0.956014,-0.10336 1.255737,0 1.875854,0.65113 0.620117,0.65112 0.620117,1.97404 z" />
      <path
         inkscape:connector-curvature="0"
         id="path205"
         style="stroke-width:0.26458332"
         d="m -10.523531,284.20122 v 0.89917 q -0.403077,-0.2067 -0.837159,-0.31006 -0.434082,-0.10335 -0.899169,-0.10335 -0.707968,0 -1.064535,0.21704 -0.3514,0.21704 -0.3514,0.65113 0,0.33072 0.253215,0.52193 0.253214,0.18603 1.018026,0.35656 l 0.325561,0.0723 q 1.012858,0.21704 1.436605,0.61495 0.428914,0.39274 0.428914,1.10071 0,0.80615 -0.640788,1.27641 -0.63562,0.47025 -1.751831,0.47025 -0.465087,0 -0.971516,-0.093 -0.501262,-0.0879 -1.059367,-0.26872 v -0.98185 q 0.527099,0.27388 1.038696,0.41341 0.511597,0.13436 1.012858,0.13436 0.671794,0 1.033529,-0.22738 0.361735,-0.23254 0.361735,-0.65112 0,-0.38758 -0.26355,-0.59428 -0.258382,-0.20671 -1.142049,-0.39791 l -0.330729,-0.0775 q -0.883667,-0.18603 -1.276408,-0.56844 -0.392741,-0.38757 -0.392741,-1.05936 0,-0.81649 0.578776,-1.26091 0.578776,-0.44442 1.64331,-0.44442 0.5271,0 0.992188,0.0775 0.465088,0.0775 0.857829,0.23254 z" />
      <path
         inkscape:connector-curvature="0"
         id="path207"
         style="stroke-width:0.26458332"
         d="m -3.7435845,286.68686 v 0.46509 h -4.371826 q 0.062012,0.98185 0.5891113,1.49861 0.5322672,0.5116 1.4779459,0.5116 0.5477702,0 1.0593668,-0.13436 0.5167643,-0.13436 1.0231934,-0.40307 v 0.89917 q -0.5115967,0.21704 -1.0490316,0.33072 -0.5374349,0.11369 -1.0903727,0.11369 -1.3849283,0 -2.1962483,-0.80615 -0.8061523,-0.80615 -0.8061523,-2.18075 0,-1.4211 0.7648112,-2.25309 0.7699788,-0.83716 2.0722248,-0.83716 1.1678874,0 1.8448486,0.75448 0.6821289,0.74931 0.6821289,2.04122 z m -0.9508463,-0.27905 q -0.010335,-0.78032 -0.4392497,-1.24541 -0.4237467,-0.46508 -1.1265462,-0.46508 -0.795817,0 -1.2764078,0.44958 -0.4754232,0.44959 -0.5477702,1.26607 z" />
      <path
         inkscape:connector-curvature="0"
         id="path209"
         style="stroke-width:0.26458332"
         d="m 1.1708443,284.91953 q -0.160197,-0.093 -0.35139976,-0.13436 -0.18603515,-0.0465 -0.41341145,-0.0465 -0.80615232,0 -1.24023434,0.5271 -0.42891435,0.52193 -0.42891435,1.50378 v 3.04891 h -0.956014 v -5.78776 h 0.956014 v 0.89917 q 0.29972328,-0.5271 0.78031408,-0.78031 0.48059081,-0.25839 1.16788734,-0.25839 0.0981852,0 0.21704101,0.0155 0.11885577,0.0103 0.26354977,0.0362 z" />
      <path
         inkscape:connector-curvature="0"
         id="path211"
         style="stroke-width:0.26458332"
         d="m 11.366603,282.69744 v 1.10071 q -0.5271,-0.49093 -1.126546,-0.73381 -0.5942791,-0.24288 -1.2660727,-0.24288 -1.3229167,0 -2.0257161,0.81132 -0.7027995,0.80615 -0.7027995,2.33578 0,1.52445 0.7027995,2.33577 0.7027994,0.80615 2.0257161,0.80615 0.6717936,0 1.2660727,-0.24288 0.599446,-0.24287 1.126546,-0.7338 v 1.09037 q -0.54777,0.37207 -1.16272,0.55811 -0.6097816,0.18603 -1.2919104,0.18603 -1.7518311,0 -2.7595215,-1.0697 -1.0076904,-1.07487 -1.0076904,-2.93005 0,-1.86035 1.0076904,-2.93006 1.0076904,-1.07487 2.7595215,-1.07487 0.6924641,0 1.3022464,0.18604 0.614949,0.18087 1.152384,0.54777 z" />
      <path
         inkscape:connector-curvature="0"
         id="path213"
         style="stroke-width:0.26458332"
         d="m 12.989244,282.10316 h 1.405599 l 3.42098,6.45439 v -6.45439 h 1.012858 v 7.71529 h -1.405599 l -3.42098,-6.45439 v 6.45439 h -1.012858 z" />
      <path
         inkscape:connector-curvature="0"
         id="path215"
         style="stroke-width:0.26458332"
         d="m 26.683498,282.69744 v 1.10071 q -0.5271,-0.49093 -1.126547,-0.73381 -0.594279,-0.24288 -1.266072,-0.24288 -1.322917,0 -2.025716,0.81132 -0.7028,0.80615 -0.7028,2.33578 0,1.52445 0.7028,2.33577 0.702799,0.80615 2.025716,0.80615 0.671793,0 1.266072,-0.24288 0.599447,-0.24287 1.126547,-0.7338 v 1.09037 q -0.547771,0.37207 -1.16272,0.55811 -0.609782,0.18603 -1.291911,0.18603 -1.751831,0 -2.759521,-1.0697 -1.007691,-1.07487 -1.007691,-2.93005 0,-1.86035 1.007691,-2.93006 1.00769,-1.07487 2.759521,-1.07487 0.692464,0 1.302246,0.18604 0.61495,0.18087 1.152385,0.54777 z" />
      <path
         inkscape:connector-curvature="0"
         id="path217"
         style="stroke-width:0.26458332"
         d="m -25.509696,299.36309 v 2.8267 h 1.674316 q 0.842326,0 1.245402,-0.34623 0.408244,-0.3514 0.408244,-1.06971 0,-0.72347 -0.408244,-1.06453 -0.403076,-0.34623 -1.245402,-0.34623 z m 0,-3.17294 v 2.32544 h 1.545125 q 0.764811,0 1.136881,-0.28422 0.377238,-0.28938 0.377238,-0.8785 0,-0.58394 -0.377238,-0.87333 -0.37207,-0.28939 -1.136881,-0.28939 z m -1.043864,-0.85782 h 2.666504 q 1.193725,0 1.83968,0.49609 0.645956,0.49609 0.645956,1.41077 0,0.70796 -0.330729,1.12654 -0.330729,0.41858 -0.971517,0.52193 0.769979,0.16537 1.193725,0.69247 0.428915,0.52193 0.428915,1.30741 0,1.03353 -0.7028,1.5968 -0.702799,0.56328 -1.999878,0.56328 h -2.769856 z" />
      <path
         inkscape:connector-curvature="0"
         id="path219"
         style="stroke-width:0.26458332"
         d="m -16.931409,303.58505 q -0.403076,1.03353 -0.785481,1.34876 -0.382406,0.31522 -1.023194,0.31522 h -0.759643 v -0.79581 h 0.558105 q 0.392741,0 0.609782,-0.18604 0.217041,-0.18603 0.480591,-0.8785 l 0.170532,-0.43408 -2.340942,-5.69474 h 1.00769 l 1.808675,4.52685 1.808675,-4.52685 h 1.007691 z" />
      <path
         inkscape:connector-curvature="0"
         id="path221"
         style="stroke-width:0.26458332"
         d="m -9.6657029,295.33233 h 1.5554606 l 1.968872,5.25032 1.9792073,-5.25032 h 1.5554606 v 7.71529 h -1.0180257 v -6.77478 l -1.9895426,5.29166 h -1.0490315 l -1.9895426,-5.29166 v 6.77478 h -1.0128581 z" />
      <path
         inkscape:connector-curvature="0"
         id="path223"
         style="stroke-width:0.26458332"
         d="m -0.5706514,297.25986 h 0.95084632 v 5.78776 H -0.5706514 Z m 0,-2.2531 h 0.95084632 v 1.20407 H -0.5706514 Z" />
      <path
         inkscape:connector-curvature="0"
         id="path225"
         style="stroke-width:0.26458332"
         d="m 2.266386,300.76352 v -3.50366 h 0.9508463 v 3.46749 q 0,0.82165 0.3203939,1.23506 0.3203939,0.40825 0.9611816,0.40825 0.7699788,0 1.2143961,-0.49093 0.449585,-0.49093 0.449585,-1.33842 v -3.28145 h 0.9508463 v 5.78776 H 6.1627889 v -0.88884 q -0.3462321,0.5271 -0.8061523,0.78548 -0.4547526,0.25322 -1.0593669,0.25322 -0.9973551,0 -1.5141194,-0.62012 -0.5167643,-0.62012 -0.5167643,-1.81384 z" />
      <path
         inkscape:connector-curvature="0"
         id="path227"
         style="stroke-width:0.26458332"
         d="m -25.561373,315.39828 h 3.643189 v 0.8785 h -4.898926 v -0.8785 q 0.594279,-0.61495 1.617472,-1.64847 1.028361,-1.0387 1.291911,-1.33842 0.501261,-0.56328 0.697632,-0.95085 0.201538,-0.39274 0.201538,-0.76998 0,-0.61495 -0.434082,-1.00252 -0.428915,-0.38757 -1.121379,-0.38757 -0.490926,0 -1.038696,0.17053 -0.542602,0.17053 -1.16272,0.51676 v -1.0542 q 0.630453,-0.25321 1.178223,-0.3824 0.54777,-0.12919 1.002523,-0.12919 1.198893,0 1.912028,0.59944 0.713134,0.59945 0.713134,1.60197 0,0.47543 -0.180867,0.90434 -0.1757,0.42375 -0.645955,1.00252 -0.129192,0.14986 -0.821656,0.86817 -0.692464,0.71313 -1.953369,1.99987 z" />
      <path
         inkscape:connector-curvature="0"
         id="path229"
         style="stroke-width:0.26458332"
         d="m -17.489514,309.24879 q -0.806153,0 -1.214397,0.79582 -0.403076,0.79065 -0.403076,2.38228 0,1.58647 0.403076,2.38228 0.408244,0.79065 1.214397,0.79065 0.81132,0 1.214396,-0.79065 0.408243,-0.79581 0.408243,-2.38228 0,-1.59163 -0.408243,-2.38228 -0.403076,-0.79582 -1.214396,-0.79582 z m 0,-0.82682 q 1.297078,0 1.979207,1.02836 0.687296,1.02319 0.687296,2.97656 0,1.9482 -0.687296,2.97656 -0.682129,1.0232 -1.979207,1.0232 -1.297079,0 -1.984375,-1.0232 -0.682129,-1.02836 -0.682129,-2.97656 0,-1.95337 0.682129,-2.97656 0.687296,-1.02836 1.984375,-1.02836 z" />
      <path
         inkscape:connector-curvature="0"
         id="path231"
         style="stroke-width:0.26458332"
         d="m -12.802462,315.39828 h 1.705322 v -5.88594 l -1.855184,0.37207 v -0.95085 l 1.844849,-0.37207 h 1.043864 v 6.83679 h 1.7053217 v 0.8785 h -4.4441727 z" />
      <path
         inkscape:connector-curvature="0"
         id="path233"
         style="stroke-width:0.26458332"
         d="m -6.2137165,316.11659 v -0.95085 q 0.3927408,0.18604 0.795817,0.28422 0.4030762,0.0982 0.7906494,0.0982 1.0335286,0 1.5761311,-0.69247 0.5477702,-0.69763 0.6252848,-2.11356 -0.2997233,0.44441 -0.7596435,0.68212 -0.4599202,0.23772 -1.0180257,0.23772 -1.157552,0 -1.8345133,-0.69764 -0.6717936,-0.7028 -0.6717936,-1.91719 0,-1.18856 0.7027995,-1.90686 0.7027994,-0.7183 1.8706868,-0.7183 1.3384195,0 2.041219,1.02836 0.7079671,1.02319 0.7079671,2.97656 0,1.82418 -0.868164,2.91455 -0.8629964,1.08521 -2.3254394,1.08521 -0.3927409,0 -0.7958171,-0.0775 -0.4030761,-0.0775 -0.8371581,-0.23254 z m 2.0773925,-3.27112 q 0.7027994,0 1.1110432,-0.48059 0.4134115,-0.48059 0.4134115,-1.31775 0,-0.83199 -0.4134115,-1.31258 -0.4082438,-0.48576 -1.1110432,-0.48576 -0.7027995,0 -1.1162109,0.48576 -0.4082438,0.48059 -0.4082438,1.31258 0,0.83716 0.4082438,1.31775 0.4134114,0.48059 1.1162109,0.48059 z" />
      <path
         inkscape:connector-curvature="0"
         id="path235"
         style="stroke-width:0.26458332"
         d="M 2.0493437,308.56149 H 2.927843 l -2.68717441,8.69715 h -0.87849932 z" />
      <path
         inkscape:connector-curvature="0"
         id="path237"
         style="stroke-width:0.26458332"
         d="m 4.2507604,315.39828 h 1.7053222 v -5.88594 l -1.8551839,0.37207 v -0.95085 l 1.8448486,-0.37207 h 1.0438639 v 6.83679 h 1.7053222 v 0.8785 h -4.444173 z" />
      <path
         inkscape:connector-curvature="0"
         id="path239"
         style="stroke-width:0.26458332"
         d="m 11.70767,315.39828 h 3.643189 v 0.8785 h -4.898926 v -0.8785 q 0.594279,-0.61495 1.617472,-1.64847 1.028361,-1.0387 1.291911,-1.33842 0.501261,-0.56328 0.697632,-0.95085 0.201538,-0.39274 0.201538,-0.76998 0,-0.61495 -0.434082,-1.00252 -0.428915,-0.38757 -1.121379,-0.38757 -0.490926,0 -1.038696,0.17053 -0.542603,0.17053 -1.16272,0.51676 v -1.0542 q 0.630453,-0.25321 1.178223,-0.3824 0.54777,-0.12919 1.002523,-0.12919 1.198893,0 1.912028,0.59944 0.713134,0.59945 0.713134,1.60197 0,0.47543 -0.180867,0.90434 -0.1757,0.42375 -0.645956,1.00252 -0.129191,0.14986 -0.821655,0.86817 -0.692464,0.71313 -1.953369,1.99987 z" />
      <path
         inkscape:connector-curvature="0"
         id="path241"
         style="stroke-width:0.26458332"
         d="m 19.102566,308.56149 h 0.8785 l -2.687175,8.69715 h -0.878499 z" />
      <path
         inkscape:connector-curvature="0"
         id="path243"
         style="stroke-width:0.26458332"
         d="m 24.285711,312.11683 q 0.749308,0.1602 1.167887,0.66663 0.423747,0.50643 0.423747,1.25057 0,1.14205 -0.785482,1.76733 -0.785481,0.62529 -2.232421,0.62529 -0.485759,0 -1.002523,-0.0982 -0.511597,-0.093 -1.059367,-0.28422 v -1.00769 q 0.434082,0.25321 0.950846,0.3824 0.516765,0.1292 1.080038,0.1292 0.981852,0 1.493449,-0.38758 0.516764,-0.38757 0.516764,-1.12654 0,-0.68213 -0.480591,-1.06454 -0.475423,-0.38757 -1.328084,-0.38757 h -0.89917 v -0.85783 h 0.940511 q 0.769979,0 1.178223,-0.30489 0.408243,-0.31006 0.408243,-0.88884 0,-0.59427 -0.423746,-0.9095 -0.418579,-0.32039 -1.204061,-0.32039 -0.428914,0 -0.919841,0.093 -0.490926,0.093 -1.080037,0.28939 v -0.93017 q 0.594279,-0.16537 1.111043,-0.24805 0.521932,-0.0827 0.981852,-0.0827 1.188558,0 1.881023,0.5426 0.692464,0.53743 0.692464,1.45727 0,0.64079 -0.366903,1.08521 -0.366903,0.43925 -1.043864,0.60978 z" />
      <path
         inkscape:connector-curvature="0"
         id="path245"
         style="stroke-width:0.26458332"
         d="m 30.094141,309.24879 q -0.806152,0 -1.214396,0.79582 -0.403076,0.79065 -0.403076,2.38228 0,1.58647 0.403076,2.38228 0.408244,0.79065 1.214396,0.79065 0.81132,0 1.214396,-0.79065 0.408244,-0.79581 0.408244,-2.38228 0,-1.59163 -0.408244,-2.38228 -0.403076,-0.79582 -1.214396,-0.79582 z m 0,-0.82682 q 1.297078,0 1.979207,1.02836 0.687297,1.02319 0.687297,2.97656 0,1.9482 -0.687297,2.97656 -0.682129,1.0232 -1.979207,1.0232 -1.297079,0 -1.984375,-1.0232 -0.682129,-1.02836 -0.682129,-2.97656 0,-1.95337 0.682129,-2.97656 0.687296,-1.02836 1.984375,-1.02836 z" />
    </g>
  </g>
</svg>
