<?xml version="1.0" encoding="UTF-8" standalone="no"?>
<!-- Created with Inkscape (http://www.inkscape.org/) -->

<svg
   xmlns:dc="http://purl.org/dc/elements/1.1/"
   xmlns:cc="http://creativecommons.org/ns#"
   xmlns:rdf="http://www.w3.org/1999/02/22-rdf-syntax-ns#"
   xmlns:svg="http://www.w3.org/2000/svg"
   xmlns="http://www.w3.org/2000/svg"
   xmlns:sodipodi="http://sodipodi.sourceforge.net/DTD/sodipodi-0.dtd"
   xmlns:inkscape="http://www.inkscape.org/namespaces/inkscape"
   width="177.16534"
   height="177.16534"
   id="svg2"
   version="1.1"
   inkscape:version="0.48.5 r10040"
   sodipodi:docname="BEND POWER.svg">
  <defs
     id="defs4" />
  <sodipodi:namedview
     id="base"
     pagecolor="#ffffff"
     bordercolor="#666666"
     borderopacity="1.0"
     inkscape:pageopacity="0.0"
     inkscape:pageshadow="2"
     inkscape:zoom="3.0772346"
     inkscape:cx="100.20681"
     inkscape:cy="90.696418"
     inkscape:document-units="mm"
     inkscape:current-layer="layer1"
     showgrid="false"
     units="mm"
     inkscape:window-width="1680"
     inkscape:window-height="988"
     inkscape:window-x="-8"
     inkscape:window-y="-8"
     inkscape:window-maximized="1" />
  <metadata
     id="metadata7">
    <rdf:RDF>
      <cc:Work
         rdf:about="">
        <dc:format>image/svg+xml</dc:format>
        <dc:type
           rdf:resource="http://purl.org/dc/dcmitype/StillImage" />
        <dc:title></dc:title>
      </cc:Work>
    </rdf:RDF>
  </metadata>
  <g
     inkscape:label="Layer 1"
     inkscape:groupmode="layer"
     id="layer1"
     transform="translate(0,-875.19684)">
    <g
       transform="scale(0.62293155,1.6053128)"
       style="font-size:26.55700111px;font-style:normal;font-weight:normal;line-height:125%;letter-spacing:0px;word-spacing:0px;fill:#000000;fill-opacity:1;stroke:none;font-family:sans-serif"
       id="text2987">
      <path
         d="m 10.366861,604.15723 0,-19.01004 7.170909,0 c 1.262138,10e-6 2.226039,0.0605 2.891704,0.18154 0.933632,0.15562 1.715991,0.45171 2.347079,0.88826 0.631059,0.43658 1.138944,1.0482 1.523656,1.83487 0.38468,0.7867 0.577028,1.65118 0.577044,2.59345 -1.6e-5,1.61661 -0.514385,2.98465 -1.543107,4.10415 -1.028752,1.11952 -2.887394,1.67927 -5.575933,1.67926 l -4.875699,0 0,7.72851 z m 2.515653,-9.97185 4.914601,0 c 1.625222,10e-6 2.77931,-0.30256 3.462266,-0.90771 0.68293,-0.60512 1.024401,-1.45664 1.024415,-2.55455 -1.4e-5,-0.79531 -0.201007,-1.4761 -0.602979,-2.04235 -0.401998,-0.56622 -0.931495,-0.94011 -1.588492,-1.12167 -0.42361,-0.11237 -1.205968,-0.16856 -2.347079,-0.16857 l -4.862732,0 z"
         style="font-weight:bold;-inkscape-font-specification:Sans Bold"
         id="path3005" />
      <path
         d="m 27.341037,594.89858 c -1e-6,-3.15536 0.847194,-5.62562 2.541588,-7.4108 1.694387,-1.78514 3.881533,-2.67772 6.561447,-2.67774 1.754893,2e-5 3.336901,0.41929 4.746026,1.25782 1.409095,0.83857 2.483218,2.00779 3.222371,3.50765 0.739116,1.4999 1.108683,3.20077 1.108703,5.10263 -2e-5,1.92781 -0.389038,3.65246 -1.167056,5.17395 -0.778055,1.5215 -1.880273,2.67342 -3.306658,3.45578 -1.426415,0.78236 -2.965198,1.17354 -4.616354,1.17354 -1.789494,0 -3.388791,-0.43224 -4.797895,-1.29673 -1.409116,-0.86448 -2.476755,-2.04451 -3.20292,-3.54007 -0.72617,-1.49555 -1.089253,-3.07756 -1.089252,-4.74603 z m 2.593457,0.0389 c -4e-6,2.29089 0.615942,4.0955 1.847838,5.41384 1.231886,1.31834 2.777152,1.97751 4.635805,1.97751 1.893212,0 3.451445,-0.66565 4.674707,-1.99696 1.223231,-1.33131 1.834854,-3.2202 1.83487,-5.66671 -1.6e-5,-1.54741 -0.261523,-2.89817 -0.78452,-4.05227 -0.52303,-1.15408 -1.288099,-2.04882 -2.29521,-2.68423 -1.007139,-0.63538 -2.137452,-0.95308 -3.390945,-0.9531 -1.780849,2e-5 -3.313149,0.61164 -4.596903,1.83487 -1.283766,1.22327 -1.925646,3.26561 -1.925642,6.12705 z"
         style="font-weight:bold;-inkscape-font-specification:Sans Bold"
         id="path3007" />
      <path
         d="m 52.069649,604.15723 -5.044274,-19.01004 2.58049,0 2.891705,12.46156 c 0.311208,1.30538 0.579199,2.6021 0.803971,3.89018 0.484105,-2.03153 0.769385,-3.20291 0.855841,-3.51413 l 3.617873,-12.83761 3.034345,0 2.72313,9.62172 c 0.682926,2.38599 1.175682,4.62933 1.47827,6.73002 0.242038,-1.20163 0.557575,-2.58048 0.946612,-4.13656 l 2.982476,-12.21518 2.528621,0 -5.212849,19.01004 -2.424883,0 -4.006891,-14.48446 c -0.337162,-1.21027 -0.535994,-1.95372 -0.596495,-2.23037 -0.198844,0.87314 -0.384708,1.6166 -0.557593,2.23037 l -4.032826,14.48446 z"
         style="font-weight:bold;-inkscape-font-specification:Sans Bold"
         id="path3009" />
      <path
         d="m 73.854689,604.15723 0,-19.01004 13.745322,0 0,2.24334 -11.229669,0 0,5.82231 10.516469,0 0,2.23037 -10.516469,0 0,6.47068 11.670557,0 0,2.24334 z"
         style="font-weight:bold;-inkscape-font-specification:Sans Bold"
         id="path3011" />
      <path
         d="m 91.580971,604.15723 0,-19.01004 8.428739,0 c 1.69438,10e-6 2.98246,0.17075 3.86425,0.5122 0.88176,0.34149 1.58631,0.94447 2.11367,1.80894 0.52732,0.8645 0.79098,1.81976 0.791,2.86577 -2e-5,1.34861 -0.43658,2.48541 -1.3097,3.4104 -0.87314,0.92501 -2.22174,1.51286 -4.04579,1.76355 0.66564,0.31987 1.17137,0.6354 1.51717,0.94661 0.7348,0.6743 1.43071,1.51718 2.08774,2.52862 l 3.30665,5.17395 -3.16401,0 -2.51566,-3.95503 c -0.73482,-1.14111 -1.33996,-2.01424 -1.81542,-2.61939 -0.47547,-0.60513 -0.901233,-1.02873 -1.277274,-1.27079 -0.376061,-0.24205 -0.758596,-0.41062 -1.147605,-0.50573 -0.285289,-0.0605 -0.752111,-0.0908 -1.400467,-0.0908 l -2.917639,0 0,8.44171 z m 2.515654,-10.62021 5.407358,0 c 1.149757,10e-6 2.048817,-0.11886 2.697197,-0.3566 0.64835,-0.23772 1.14111,-0.6181 1.47827,-1.14112 0.33713,-0.523 0.50571,-1.0914 0.50572,-1.7052 -1e-5,-0.89905 -0.32635,-1.63818 -0.97903,-2.21741 -0.6527,-0.57918 -1.68359,-0.86879 -3.09269,-0.8688 l -6.016825,0 z"
         style="font-weight:bold;-inkscape-font-specification:Sans Bold"
         id="path3013" />
      <path
         d="m 118.02127,604.15723 0,-19.01004 3.78644,0 4.49965,13.46004 c 0.41494,1.25351 0.71751,2.19147 0.90771,2.8139 0.21611,-0.69159 0.55326,-1.70736 1.01145,-3.04731 l 4.55152,-13.22663 3.38446,0 0,19.01004 -2.42488,0 0,-15.91086 -5.52407,15.91086 -2.26927,0 -5.49813,-16.18318 0,16.18318 z"
         style="font-weight:bold;-inkscape-font-specification:Sans Bold"
         id="path3015" />
      <path
         d="m 138.15947,604.15723 7.30058,-19.01004 2.71016,0 7.78037,19.01004 -2.86577,0 -2.2174,-5.75748 -7.94895,0 -2.08773,5.75748 z m 5.48516,-7.80631 6.44474,0 -1.98399,-5.26472 c -0.60515,-1.59928 -1.05469,-2.9133 -1.3486,-3.94205 -0.24207,1.21894 -0.58354,2.42922 -1.02442,3.63084 z"
         style="font-weight:bold;-inkscape-font-specification:Sans Bold"
         id="path3017" />
      <path
         d="m 156.05432,604.15723 7.35245,-9.90701 -6.48364,-9.10303 2.99544,0 3.4493,4.8757 c 0.71751,1.01146 1.22756,1.78949 1.53014,2.33411 0.42359,-0.69158 0.92499,-1.41342 1.5042,-2.16554 l 3.82535,-5.04427 2.7361,0 -6.67815,8.96039 7.19684,10.04965 -3.11215,0 -4.78493,-6.78189 c -0.268,-0.38902 -0.54463,-0.81261 -0.8299,-1.2708 -0.42361,0.6916 -0.72618,1.16706 -0.90771,1.4264 l -4.77196,6.62629 z"
         style="font-weight:bold;-inkscape-font-specification:Sans Bold"
         id="path3019" />
      <path
         d="m 176.0758,593.04426 0,-2.65829 2.6583,0 0,2.65829 z m 0,11.11297 0,-2.6583 2.6583,0 0,2.6583 z"
         style="font-weight:bold;-inkscape-font-specification:Sans Bold"
         id="path3021" />
      <path
         d="m 201.77696,601.91389 0,2.24334 -12.5653,0 c -0.0173,-0.56192 0.0735,-1.10222 0.27231,-1.62091 0.31986,-0.85584 0.83207,-1.69872 1.53663,-2.52862 0.70455,-0.82991 1.72248,-1.78948 3.05379,-2.87874 2.06612,-1.69439 3.46226,-3.0365 4.18844,-4.02634 0.72615,-0.98983 1.08924,-1.92563 1.08925,-2.80742 -1e-5,-0.92499 -0.33068,-1.70518 -0.992,-2.3406 -0.66134,-0.63538 -1.52366,-0.95308 -2.58697,-0.95309 -1.12384,10e-6 -2.0229,0.33716 -2.6972,1.01145 -0.6743,0.67431 -1.01577,1.60795 -1.02441,2.80093 l -2.39895,-0.24638 c 0.16425,-1.78947 0.78236,-3.15319 1.85432,-4.09118 1.07196,-0.93795 2.51133,-1.40693 4.31811,-1.40695 1.82405,2e-5 3.26774,0.50574 4.33107,1.51717 1.06331,1.01147 1.59496,2.26497 1.59498,3.76052 -2e-5,0.76076 -0.15562,1.50854 -0.46683,2.24334 -0.31122,0.73482 -0.82775,1.50854 -1.54959,2.32114 -0.72185,0.81263 -1.92132,1.92781 -3.59842,3.34556 -1.40047,1.17571 -2.29954,1.97319 -2.69719,2.39247 -0.39767,0.41927 -0.72618,0.84071 -0.98552,1.26431 z"
         style="font-weight:bold;-inkscape-font-specification:Sans Bold"
         id="path3023" />
      <path
         d="m 216.40407,589.80244 -2.32115,0.18154 c -0.20748,-0.91634 -0.50141,-1.58199 -0.88177,-1.99696 -0.63108,-0.66564 -1.40912,-0.99846 -2.33411,-0.99848 -0.74347,2e-5 -1.39615,0.20749 -1.95806,0.62243 -0.73482,0.536 -1.31402,1.31836 -1.73762,2.34708 -0.4236,1.02875 -0.64404,2.49405 -0.66133,4.39591 0.56191,-0.85583 1.24918,-1.49123 2.0618,-1.90619 0.81261,-0.41494 1.66413,-0.62242 2.55455,-0.62243 1.55607,10e-6 2.88089,0.57273 3.97448,1.71816 1.09356,1.14546 1.64034,2.62589 1.64036,4.4413 -2e-5,1.19299 -0.2572,2.3017 -0.77156,3.32611 -0.51438,1.02441 -1.22109,1.80893 -2.12015,2.35356 -0.89907,0.54463 -1.91916,0.81694 -3.06028,0.81694 -1.94509,0 -3.53142,-0.71536 -4.75899,-2.14609 -1.22757,-1.43072 -1.84136,-3.7886 -1.84135,-7.07365 -10e-6,-3.67405 0.67862,-6.34531 2.03586,-8.01378 1.18434,-1.45232 2.77932,-2.17849 4.78493,-2.17851 1.49555,2e-5 2.72096,0.4193 3.67622,1.25783 0.95525,0.83857 1.52797,1.99698 1.71817,3.47523 z m -9.53096,8.19533 c 0,0.80397 0.17074,1.57336 0.51221,2.30817 0.34147,0.73482 0.8191,1.29457 1.43289,1.67927 0.61378,0.38469 1.25782,0.57704 1.93212,0.57704 0.98551,0 1.8327,-0.39766 2.54159,-1.19299 0.70887,-0.79532 1.06331,-1.87593 1.06332,-3.24182 -1e-5,-1.31401 -0.35013,-2.34923 -1.05035,-3.10567 -0.70025,-0.75641 -1.58202,-1.13462 -2.64533,-1.13463 -1.05468,10e-6 -1.94942,0.37822 -2.68423,1.13463 -0.73481,0.75644 -1.10222,1.74843 -1.10222,2.976 z"
         style="font-weight:bold;-inkscape-font-specification:Sans Bold"
         id="path3025" />
      <path
         d="m 225.45523,604.15723 -7.36542,-19.01004 2.72313,0 4.94054,13.81015 c 0.39765,1.10655 0.73048,2.14393 0.99848,3.11215 0.29391,-1.03738 0.63538,-2.07476 1.02441,-3.11215 l 5.13505,-13.81015 2.56752,0 -7.44322,19.01004 z"
         style="font-weight:bold;-inkscape-font-specification:Sans Bold"
         id="path3027" />
      <path
         d="m 256.29143,589.80244 -2.32115,0.18154 c -0.20748,-0.91634 -0.50141,-1.58199 -0.88177,-1.99696 -0.63108,-0.66564 -1.40912,-0.99846 -2.33411,-0.99848 -0.74347,2e-5 -1.39615,0.20749 -1.95806,0.62243 -0.73482,0.536 -1.31403,1.31836 -1.73762,2.34708 -0.4236,1.02875 -0.64404,2.49405 -0.66133,4.39591 0.56191,-0.85583 1.24918,-1.49123 2.0618,-1.90619 0.81261,-0.41494 1.66413,-0.62242 2.55455,-0.62243 1.55607,10e-6 2.88089,0.57273 3.97448,1.71816 1.09356,1.14546 1.64034,2.62589 1.64036,4.4413 -2e-5,1.19299 -0.2572,2.3017 -0.77156,3.32611 -0.51438,1.02441 -1.22109,1.80893 -2.12015,2.35356 -0.89907,0.54463 -1.91916,0.81694 -3.06028,0.81694 -1.94509,0 -3.53142,-0.71536 -4.75899,-2.14609 -1.22757,-1.43072 -1.84136,-3.7886 -1.84135,-7.07365 -10e-6,-3.67405 0.67862,-6.34531 2.03586,-8.01378 1.18434,-1.45232 2.77932,-2.17849 4.78493,-2.17851 1.49555,2e-5 2.72096,0.4193 3.67622,1.25783 0.95525,0.83857 1.52797,1.99698 1.71817,3.47523 z m -9.53096,8.19533 c 0,0.80397 0.17074,1.57336 0.51221,2.30817 0.34147,0.73482 0.8191,1.29457 1.43289,1.67927 0.61378,0.38469 1.25782,0.57704 1.93212,0.57704 0.98551,0 1.8327,-0.39766 2.54159,-1.19299 0.70887,-0.79532 1.06331,-1.87593 1.06332,-3.24182 -1e-5,-1.31401 -0.35013,-2.34923 -1.05035,-3.10567 -0.70025,-0.75641 -1.58202,-1.13462 -2.64533,-1.13463 -1.05468,10e-6 -1.94942,0.37822 -2.68423,1.13463 -0.73481,0.75644 -1.10222,1.74843 -1.10222,2.976 z"
         style="font-weight:bold;-inkscape-font-specification:Sans Bold"
         id="path3029" />
      <path
         d="m 257.82158,604.15723 7.30058,-19.01004 2.71016,0 7.78037,19.01004 -2.86577,0 -2.2174,-5.75748 -7.94895,0 -2.08773,5.75748 z m 5.48516,-7.80631 6.44474,0 -1.98399,-5.26472 c -0.60515,-1.59928 -1.05469,-2.9133 -1.3486,-3.94205 -0.24207,1.21894 -0.58354,2.42922 -1.02442,3.63084 z"
         style="font-weight:bold;-inkscape-font-specification:Sans Bold"
         id="path3031" />
    </g>
    <path
       style="font-size:medium;font-style:normal;font-variant:normal;font-weight:normal;font-stretch:normal;text-indent:0;text-align:start;text-decoration:none;line-height:normal;letter-spacing:normal;word-spacing:normal;text-transform:none;direction:ltr;block-progression:tb;writing-mode:lr-tb;text-anchor:start;baseline-shift:baseline;color:#000000;fill:#000000;fill-opacity:1;stroke:none;stroke-width:0.89643711;marker:none;visibility:visible;display:inline;overflow:visible;enable-background:accumulate;font-family:Sans;-inkscape-font-specification:Sans"
       d="m 3.125,933.3125 0,0.4375 0,42.5625 0,0.46875 0.4375,0 170.75,0 0.4375,0 0,-0.46875 0,-42.5625 0,-0.4375 -0.4375,0 -170.75,0 -0.4375,0 z m 0.90625,0.875 169.8125,0 0,41.6875 -169.8125,0 0,-41.6875 z"
       id="rect3275"
       inkscape:connector-curvature="0" />
    <path
       style="font-size:medium;font-style:normal;font-variant:normal;font-weight:normal;font-stretch:normal;text-indent:0;text-align:start;text-decoration:none;line-height:normal;letter-spacing:normal;word-spacing:normal;text-transform:none;direction:ltr;block-progression:tb;writing-mode:lr-tb;text-anchor:start;baseline-shift:baseline;color:#000000;fill:#000000;fill-opacity:1;stroke:none;stroke-width:0.88582677;marker:none;visibility:visible;display:inline;overflow:visible;enable-background:accumulate;font-family:Sans;-inkscape-font-specification:Sans"
       d="m 54.59375,1005.3125 -0.65625,0.3437 -4.28125,2.1876 -0.25,0.125 0,0.2812 c 0.02672,0.9242 0.0021,1.8441 0,2.7812 -0.0037,0.7883 0.0025,1.5856 0,2.375 l 0,0.031 c 0.02128,0.4655 -0.182909,0.9567 -0.34375,1.5625 l 0,0.031 0,0.031 c -0.132451,0.8266 -0.330214,1.6635 -0.46875,2.5313 -0.0033,0.021 0.0032,0.042 0,0.062 -0.187723,0.7116 -0.422174,1.4257 -0.65625,2.125 -0.0032,0.01 0.0032,0.022 0,0.031 -0.383678,1.0663 -0.613768,2.1384 -0.96875,3.125 -0.405698,0.761 -0.628744,1.5293 -0.9375,2.2187 l 0,0.031 c -0.32431,0.8369 -0.739142,1.6573 -1.09375,2.5313 -0.0037,0.01 0.0037,0.022 0,0.031 -0.325401,0.6793 -0.581816,1.3628 -0.875,2 -0.382047,0.8283 -0.902468,1.6075 -1.34375,2.5 l -0.03125,0.031 c -0.313138,0.6641 -0.714142,1.2565 -1.15625,1.9063 l -0.03125,0.031 c -0.581097,0.9126 -1.28047,1.7653 -1.875,2.75 l 0.03125,0 c -0.07438,0.118 -0.16444,0.2596 -0.25,0.4062 -0.192684,0.33 -0.192247,0.3801 -0.375,0.5938 -0.164498,0.1922 -0.367972,0.4043 -0.5625,0.6874 -0.01928,0.028 -0.04346,0.032 -0.0625,0.063 -0.417276,0.4534 -0.746138,0.915 -1.125,1.25 L 37.25,1040 l -0.03125,0.031 c -0.393078,0.4759 -0.715958,0.9412 -1.09375,1.3126 l -0.03125,0.031 0,0.031 c -0.35353,0.01 -0.216285,0 -0.625,0 l -0.125,0 -0.125,0.094 -3.90625,2.8438 -1.09375,0.7812 1.375,0 c 0.432157,0 0.224987,4e-4 0.65625,0 0.614463,-0.01 1.263486,0.011 1.9375,-0.1562 l 0.0625,-0.031 0.0625,-0.031 c 2.171556,-1.236 3.891008,-1.9089 5.59375,-3.5312 0.01138,-0.011 0.01987,-0.02 0.03125,-0.031 0.468993,-0.3754 0.92479,-0.7893 1.3125,-1.2813 0.366668,-0.4554 0.711606,-0.9064 1.09375,-1.3125 0.408473,-0.4633 0.834137,-0.9186 1.21875,-1.4375 0.465886,-0.5635 0.86699,-1.1406 1.21875,-1.7813 0.0042,-0.01 -0.0042,-0.023 0,-0.031 0.582699,-0.908 1.227934,-1.7934 1.84375,-2.7188 0.440317,-0.6545 0.906235,-1.3238 1.25,-2.0937 0.0038,-0.01 -0.0038,-0.023 0,-0.031 0.445813,-0.8291 0.926026,-1.649 1.34375,-2.5312 0.309451,-0.6855 0.580039,-1.3658 0.875,-2.0312 l 0,-0.031 c 0.356174,-0.8505 0.733464,-1.6746 1.09375,-2.5313 0.325915,-0.7688 0.625563,-1.5334 0.9375,-2.2812 l 0,-0.031 0,-0.031 c 0.304703,-1.0649 0.592998,-2.1112 0.96875,-3.125 l 0,-0.031 0.03125,0 c 0.227128,-0.7442 0.487298,-1.5032 0.625,-2.3437 0.139245,-0.8423 0.332512,-1.6992 0.53125,-2.5313 l -0.03125,0 c 0.186106,-0.5984 0.377906,-1.2448 0.34375,-1.9374 -5.35e-4,-0.011 6.29e-4,-0.02 0,-0.031 -0.0025,-0.7753 -0.0275,-1.5383 -0.03125,-2.3125 -0.0021,-0.943 0.0047,-1.8823 0.03125,-2.8125 l 0,-0.031 0,-0.7187 z m -0.90625,1.4687 c -0.0086,0.6986 -0.0015,1.402 0,2.0938 0.0038,0.7853 -0.0024,1.5597 0,2.3438 l 0,0.031 c 0.03164,0.5463 -0.100282,1.1096 -0.28125,1.6875 l 0,0.031 c -0.203124,0.8503 -0.388261,1.6975 -0.53125,2.5624 -0.118388,0.7227 -0.359836,1.4556 -0.59375,2.2188 -0.0035,0.01 0.0035,0.022 0,0.031 -0.388089,1.052 -0.699563,2.1063 -1,3.1563 -0.31441,0.7563 -0.595865,1.5178 -0.90625,2.25 -0.353949,0.8416 -0.738099,1.6826 -1.09375,2.5313 -0.0037,0.01 0.0037,0.022 0,0.031 -0.299228,0.6768 -0.580201,1.3469 -0.875,2 -0.400742,0.8463 -0.853892,1.677 -1.3125,2.5312 l -0.03125,0 0,0.031 c -0.303318,0.6862 -0.710461,1.3061 -1.15625,1.9687 -0.605184,0.9094 -1.268048,1.8021 -1.875,2.75 L 44,1035.0625 c -0.329382,0.6029 -0.689858,1.1612 -1.125,1.6875 l -0.03125,0.031 c -0.353065,0.4764 -0.745867,0.9096 -1.15625,1.375 -0.416114,0.4422 -0.791992,0.9226 -1.15625,1.375 -0.339383,0.4308 -0.739621,0.8004 -1.1875,1.1563 l -0.03125,0.031 c -0.428816,0.4118 -0.897507,0.6563 -1.34375,0.9687 l -0.3125,-0.5625 c -0.05929,0.03 -0.155441,0.01 -0.21875,0.031 0.139873,-0.1808 0.301683,-0.365 0.4375,-0.5312 0.01228,-0.011 0.01915,-0.02 0.03125,-0.031 0.49184,-0.4448 0.814791,-0.9499 1.1875,-1.3438 l 0.03125,-0.031 0.03125,-0.031 c 0.133151,-0.2116 0.330538,-0.3539 0.5625,-0.625 0.254791,-0.2978 0.283036,-0.4854 0.4375,-0.75 0.06528,-0.1118 0.164839,-0.2398 0.25,-0.375 0.555854,-0.9206 1.229947,-1.786 1.84375,-2.75 0.437832,-0.6436 0.894644,-1.2777 1.25,-2.0313 0.406664,-0.8224 0.953697,-1.6177 1.375,-2.5312 0.316945,-0.6888 0.568451,-1.3953 0.875,-2.0312 0.338206,-0.8369 0.750221,-1.6805 1.09375,-2.5626 0.0035,-0.01 -0.0035,-0.022 0,-0.031 0.342342,-0.7711 0.553811,-1.5374 0.90625,-2.1875 l 0.03125,-0.031 0,-0.031 c 0.386516,-1.0742 0.638816,-2.1602 1,-3.1562 0.249932,-0.7448 0.456851,-1.5196 0.65625,-2.2813 l 0.03125,-0.031 c 0.129022,-0.8261 0.32714,-1.6652 0.46875,-2.5312 0.0034,-0.021 -0.0033,-0.042 0,-0.062 0.139486,-0.5022 0.366144,-1.0955 0.34375,-1.7813 -3.79e-4,-0.012 5.34e-4,-0.019 0,-0.031 0.0025,-0.7774 0.02757,-1.5652 0.03125,-2.3438 0.0019,-0.8403 -0.01258,-1.6808 -0.03125,-2.5312 l 3.40625,-1.7188 z"
       id="path4053"
       inkscape:connector-curvature="0" />
    <path
       style="font-size:medium;font-style:normal;font-variant:normal;font-weight:normal;font-stretch:normal;text-indent:0;text-align:start;text-decoration:none;line-height:normal;letter-spacing:normal;word-spacing:normal;text-transform:none;direction:ltr;block-progression:tb;writing-mode:lr-tb;text-anchor:start;baseline-shift:baseline;color:#000000;fill:#000000;fill-opacity:1;stroke:none;stroke-width:0.88582677;marker:none;visibility:visible;display:inline;overflow:visible;enable-background:accumulate;font-family:Sans;-inkscape-font-specification:Sans"
       d="m 55.375,1005.6562 0,1.3126 -3.96875,2.25 -0.40625,0.25 0.28125,0.375 c 0.429606,0.5915 0.720096,1.2989 1.0625,2.0312 l 0,0.031 0.03125,0 c 0.282675,0.5314 0.556946,1.0899 0.875,1.625 0.0073,0.012 0.0239,0.019 0.03125,0.031 0.251365,0.4708 0.473051,1.006 0.78125,1.5313 0.353524,0.592 0.644594,1.2388 1.03125,1.875 0.356633,0.6518 0.716858,1.2931 1.125,1.9374 0.0042,0.01 -0.0042,0.024 0,0.031 0.278623,0.5125 0.563644,1.0616 0.875,1.5937 0.335971,0.4939 0.670806,0.9941 0.90625,1.5 l 0,0.031 c 0.28829,0.5435 0.600145,1.0564 0.9375,1.5625 0.0079,0.012 0.02328,0.019 0.03125,0.031 0.331131,0.615 0.757602,1.1056 1.09375,1.5938 0.01056,0.021 0.02058,0.042 0.03125,0.062 0.291646,0.5589 0.644034,1.088 1.03125,1.5937 l -0.03125,0 c 0.335143,0.5152 0.667022,1.0366 1.03125,1.5626 0.302789,0.3972 0.584484,0.854 0.875,1.3124 0.008,0.013 0.02322,0.019 0.03125,0.031 0.266053,0.4996 0.612422,0.8336 0.8125,1.1563 l 0,0.031 0.03125,0 c 0.327624,0.4827 0.703289,0.8393 0.9375,1.2188 0.296169,0.4705 0.622665,0.8552 0.875,1.25 0.311772,0.4704 0.660565,0.8844 1,1.2812 0.336466,0.3971 0.627901,0.8791 0.9375,1.375 l 0,0.031 0.03125,0.031 c 0.289939,0.3544 0.526277,0.7923 0.875,1.25 l 0,0.031 c 0.393474,0.4664 0.787268,0.9817 1.21875,1.5 0.004,0.01 -0.004,0.026 0,0.031 0.401111,0.5519 0.925106,0.9722 1.53125,1.25 0.397926,0.1619 0.810276,0.156 1.15625,0.094 l 0.09375,-0.031 0.09375,-0.062 3.40625,-2.7188 0.375,-0.2812 -0.03125,-0.031 c 0.01495,-0.015 0.04805,-0.017 0.0625,-0.031 l -0.3125,-0.3125 -0.28125,-0.3438 -0.21875,0.1876 c -0.01261,0.01 -0.04436,-0 -0.0625,0 -0.418827,-0.1419 -0.736849,-0.3756 -1,-0.75 l -0.03125,-0.031 c -0.399665,-0.4433 -0.744554,-0.9721 -1.15625,-1.5 -0.25676,-0.3107 -0.478212,-0.7588 -0.84375,-1.1875 -0.01182,-0.019 -0.01944,-0.044 -0.03125,-0.062 -0.29938,-0.4781 -0.585396,-0.9867 -0.96875,-1.4687 l 0,-0.031 -0.03125,0 c -0.335114,-0.4035 -0.658884,-0.7479 -0.90625,-1.125 -0.285813,-0.4601 -0.610597,-0.8275 -0.875,-1.2187 -0.0048,-0.01 0.0048,-0.024 0,-0.031 l -0.03125,0 c -0.293054,-0.4671 -0.635742,-0.8525 -0.90625,-1.2187 -0.009,-0.015 -0.02215,-0.017 -0.03125,-0.031 -0.289262,-0.4604 -0.632185,-0.7935 -0.8125,-1.125 l 0,-0.031 c -0.294092,-0.445 -0.580442,-0.9331 -0.9375,-1.4062 -0.356913,-0.5094 -0.699977,-1.0035 -1.03125,-1.5312 l 0,-0.031 C 65.61503,1023.4686 65.289571,1022.942 65,1022.4062 l 0,-0.031 c -0.39535,-0.5913 -0.851266,-1.0688 -1.125,-1.5938 l 0,-0.031 -0.03125,0 c -0.309359,-0.469 -0.577484,-0.9749 -0.84375,-1.4688 -0.0063,-0.013 -0.02485,-0.018 -0.03125,-0.031 -0.278313,-0.5661 -0.634629,-1.098 -0.96875,-1.5938 -0.0045,-0.01 0.0045,-0.024 0,-0.031 -0.290578,-0.494 -0.533862,-1.0183 -0.84375,-1.5625 l -0.03125,-0.031 c -0.404003,-0.6153 -0.770504,-1.252 -1.09375,-1.9062 L 60,1014.0938 c -0.359251,-0.5662 -0.650866,-1.2064 -1.03125,-1.8438 -0.263524,-0.4646 -0.46621,-1.0124 -0.78125,-1.5625 -0.306419,-0.4914 -0.586725,-1.028 -0.875,-1.5625 l 0.03125,0 c -0.346315,-0.7069 -0.67763,-1.4442 -1.125,-2.1562 l -0.84375,-1.3126 z m 0.28125,2.1563 c 0.310022,0.5468 0.582928,1.1226 0.875,1.7187 0.279577,0.5184 0.58131,1.07 0.90625,1.5938 0.0042,0.01 -0.0042,0.024 0,0.031 0.25847,0.4576 0.473988,0.9895 0.78125,1.5313 0.343435,0.5755 0.637044,1.218 1.03125,1.8437 0.004,0.01 -0.004,0.023 0,0.031 0.333121,0.6713 0.719324,1.3172 1.125,1.9375 0.0067,0.012 0.02462,0.019 0.03125,0.031 0.28236,0.5004 0.524753,1.0554 0.84375,1.5938 0.342141,0.5072 0.685333,1.011 0.9375,1.5312 l 0,0.031 c 0.277764,0.5179 0.583623,1.0086 0.90625,1.5 0.0079,0.012 0.02331,0.019 0.03125,0.031 0.335124,0.627 0.758957,1.1319 1.09375,1.625 0.0074,0.011 0.02393,0.02 0.03125,0.031 0.287807,0.5303 0.595524,1.0626 0.96875,1.5625 0.0088,0.012 0.02243,0.02 0.03125,0.031 0.331539,0.5269 0.673565,1.0519 1.03125,1.5624 0.303185,0.4017 0.569849,0.8789 0.875,1.3438 0.0082,0.013 0.02295,0.019 0.03125,0.031 0.275253,0.4869 0.641684,0.8245 0.84375,1.1563 l 0,0.031 c 0.330879,0.4561 0.698871,0.7977 0.9375,1.1874 l 0,0.031 c 0.300692,0.4485 0.627032,0.8195 0.875,1.2187 l 0,0.031 c 0.307102,0.4681 0.692772,0.8176 1,1.1875 l -0.03125,0 c 0.343825,0.4323 0.644931,0.9551 0.96875,1.4688 l 0.03125,0.031 0.03125,0.031 c 0.270905,0.3027 0.482289,0.743 0.84375,1.1876 0.0048,0.01 -0.0048,0.025 0,0.031 0.369338,0.4759 0.739144,0.9988 1.1875,1.5 0.0037,0.01 -0.0037,0.026 0,0.031 0.257998,0.3562 0.65439,0.545 1.03125,0.75 l -2.71875,2.1876 c -0.199629,0.029 -0.367076,0.03 -0.53125,-0.031 -0.0078,-0 -0.02348,0 -0.03125,0 -0.486383,-0.227 -0.880975,-0.5361 -1.1875,-0.9687 l 0,-0.031 -0.03125,0 c -0.397249,-0.4746 -0.745782,-1.0076 -1.1875,-1.5313 -0.275001,-0.3609 -0.49008,-0.808 -0.84375,-1.25 -0.0073,-0.012 -0.02398,-0.019 -0.03125,-0.031 -0.290362,-0.4672 -0.57231,-0.9697 -0.96875,-1.4375 -0.342695,-0.4006 -0.668124,-0.781 -0.9375,-1.1875 -0.298189,-0.4665 -0.626337,-0.8549 -0.875,-1.25 -0.313141,-0.5073 -0.711438,-0.8709 -0.96875,-1.25 -0.29657,-0.4782 -0.643352,-0.7927 -0.8125,-1.125 l 0,-0.031 c -0.283455,-0.4456 -0.590228,-0.916 -0.9375,-1.375 -0.0049,-0.01 0.0049,-0.024 0,-0.031 -0.339865,-0.4925 -0.660956,-1.0101 -1,-1.5313 l -0.03125,-0.031 c -0.365424,-0.4773 -0.659063,-0.9905 -0.9375,-1.5312 l -0.03125,0 0,-0.031 c -0.395165,-0.5868 -0.84775,-1.0666 -1.125,-1.5937 l 0,-0.031 0,-0.031 c -0.328546,-0.4909 -0.66296,-0.9847 -0.9375,-1.5 -0.0039,-0.01 0.004,-0.023 0,-0.031 -0.267227,-0.5679 -0.606776,-1.076 -0.9375,-1.5625 -0.0046,-0.01 0.0045,-0.023 0,-0.031 C 57.554891,1019.535 57.290831,1019.0333 57,1018.5 l 0,-0.031 -0.03125,0 c -0.393326,-0.6188 -0.732502,-1.2773 -1.09375,-1.9376 l -0.03125,0 c -0.3567,-0.5868 -0.650548,-1.2374 -1.03125,-1.875 -0.271347,-0.4624 -0.489445,-0.9922 -0.78125,-1.5312 l 0,-0.031 c -0.308356,-0.5157 -0.582584,-1.0442 -0.875,-1.5938 -0.26862,-0.5745 -0.577223,-1.1631 -0.9375,-1.75 l 3.4375,-1.9375 z"
       id="path4055"
       inkscape:connector-curvature="0" />
    <path
       style="font-size:medium;font-style:normal;font-variant:normal;font-weight:normal;font-stretch:normal;text-indent:0;text-align:start;text-decoration:none;line-height:normal;letter-spacing:normal;word-spacing:normal;text-transform:none;direction:ltr;block-progression:tb;writing-mode:lr-tb;text-anchor:start;baseline-shift:baseline;color:#000000;fill:#000000;fill-opacity:1;stroke:none;stroke-width:0.88582677;marker:none;visibility:visible;display:inline;overflow:visible;enable-background:accumulate;font-family:Sans;-inkscape-font-specification:Sans"
       d="m 78.34375,998.1875 -0.6875,0.34375 -4.28125,2.18755 -0.25,0.125 0,0.2812 c 0.04076,1.1196 0.04103,2.2712 0.03125,3.4062 -9e-5,0.01 8.9e-5,0.021 0,0.031 -0.03339,0.9277 0.03234,1.8319 -0.0625,2.6563 -0.0011,0.01 0.0012,0.022 0,0.031 -0.101143,0.8036 -0.266471,1.6132 -0.40625,2.4375 -0.184862,0.8753 -0.139541,1.6971 -0.25,2.4375 -0.0014,0.01 0.0015,0.022 0,0.031 -0.137297,0.7151 -0.207074,1.4382 -0.25,2.1563 -6.14e-4,0.01 5.99e-4,0.021 0,0.031 -0.128479,0.7931 -0.358832,1.5802 -0.5,2.4374 l 0,0.031 c -0.06262,0.7657 -0.203429,1.5332 -0.34375,2.3125 -0.145268,0.6827 -0.321721,1.3775 -0.40625,2.125 -0.0607,0.7725 -0.218583,1.5612 -0.3125,2.4062 l 0,0.031 c -0.0412,0.7502 -0.198591,1.5339 -0.28125,2.3437 -0.0022,0.021 0.0021,0.041 0,0.063 -0.193449,0.9883 -0.46126,1.9909 -0.625,3.0312 -0.0032,0.021 0.0032,0.042 0,0.062 -0.203147,0.6641 -0.363952,1.3334 -0.4375,2.0313 -0.0022,0.02 0.002,0.042 0,0.062 -0.175325,0.6392 -0.289314,1.2663 -0.34375,1.9063 -0.04627,0.6738 -0.02955,1.3454 -0.03125,2 -2e-4,0.6513 -7.62e-4,1.3186 0,1.9687 l 0,0.7188 0.65625,-0.3438 4.28125,-2.1874 0.25,-0.125 0,-0.25 c -8.39e-4,-0.6399 -0.033,-1.2998 -0.03125,-1.9376 2.8e-5,-0.01 -3e-5,-0.021 0,-0.031 0.004,-0.6313 0.03705,-1.2711 0.09375,-1.875 0.06841,-0.6083 0.19275,-1.2019 0.3125,-1.8438 l 0,-0.031 c 0.08624,-0.6497 0.269521,-1.2952 0.40625,-2 l 0,-0.031 c 0.162758,-1.0248 0.454478,-2.0627 0.625,-3.1563 0.09721,-0.789 0.26198,-1.5904 0.3125,-2.4375 0.09562,-0.7863 0.232358,-1.5649 0.3125,-2.4062 0.09697,-0.6529 0.29198,-1.2958 0.40625,-2.0313 0.14161,-0.7889 0.244934,-1.579 0.34375,-2.3437 0.0013,-0.01 -0.0013,-0.021 0,-0.031 0.151281,-0.8066 0.410661,-1.621 0.5,-2.5313 l 0,-0.031 c 0.05018,-0.6929 0.139118,-1.3939 0.25,-2.0938 0.08127,-0.8335 0.105545,-1.6555 0.25,-2.4062 0.14579,-0.8305 0.298261,-1.6806 0.375,-2.5625 0.05804,-0.95 0.02711,-1.9052 0.03125,-2.8125 -0.0099,-1.1516 -0.0095,-2.301 0.03125,-3.4375 l 0.03125,-0.75 z m -0.9375,1.5 c -0.01538,0.8918 -0.0077,1.8044 0,2.6875 8.9e-5,0.01 -8.9e-5,0.021 0,0.031 -0.0033,0.9237 0.02247,1.8395 -0.03125,2.7188 -0.071,0.8159 -0.22661,1.6234 -0.375,2.4688 -0.161878,0.8412 -0.176016,1.6611 -0.25,2.4374 -9.39e-4,0.01 9.59e-4,0.021 0,0.031 -0.110658,0.7008 -0.197772,1.4038 -0.25,2.125 -0.07882,0.8031 -0.336927,1.6163 -0.5,2.5 l 0,0.031 c -0.102743,0.7906 -0.176945,1.5573 -0.3125,2.3124 l -0.03125,0 c -0.1016,0.654 -0.296583,1.3242 -0.40625,2.0626 l 0,0.031 c -0.07442,0.7813 -0.242693,1.5752 -0.34375,2.4062 l 0,0.031 c -0.04628,0.7761 -0.179859,1.552 -0.28125,2.375 -0.158093,1.0139 -0.450872,2.0436 -0.625,3.125 -0.0017,0.01 0.0017,0.021 0,0.031 -0.127795,0.6504 -0.310785,1.312 -0.40625,2.0312 -0.116006,0.6218 -0.268322,1.2355 -0.34375,1.9062 l 0,0.031 c -0.06249,0.6656 -0.05849,1.2956 -0.0625,1.9375 -0.0016,0.5584 -9e-4,1.1307 0,1.6875 l -3.40625,1.75 c -6.31e-4,-0.413 -1.27e-4,-0.8375 0,-1.25 0.0017,-0.645 0.02101,-1.2821 0.0625,-1.9063 6.79e-4,-0.01 -7.01e-4,-0.021 0,-0.031 0.05349,-0.6143 0.149716,-1.237 0.3125,-1.8125 l 0,-0.031 0,-0.031 c 0.06652,-0.6725 0.202729,-1.346 0.40625,-2 l 0.03125,-0.031 0,-0.031 c 0.157469,-1.025 0.419524,-2.0306 0.625,-3.0937 l 0,-0.031 c 0.0752,-0.7697 0.232574,-1.5694 0.28125,-2.4063 6.24e-4,-0.011 -5.9e-4,-0.02 0,-0.031 0.08793,-0.7712 0.277289,-1.5918 0.34375,-2.4375 l -0.03125,0 c 0.07721,-0.6591 0.258433,-1.3053 0.40625,-2 l 0,-0.031 c 0.139067,-0.7723 0.275855,-1.5363 0.34375,-2.3437 8.86e-4,-0.01 -8.63e-4,-0.021 0,-0.031 0.133051,-0.7945 0.363334,-1.6094 0.5,-2.4687 l 0,-0.031 c 0.04128,-0.7079 0.116238,-1.4055 0.25,-2.0937 l 0,-0.031 c 0.135917,-0.8751 0.0958,-1.676 0.25,-2.4062 l 0,-0.031 c 0.13915,-0.8207 0.300277,-1.6464 0.40625,-2.5 0.116557,-0.9691 0.02868,-1.9109 0.0625,-2.7813 0.0089,-1.0406 -0.0016,-2.1033 -0.03125,-3.1563 l 3.40625,-1.7187 z"
       id="path4057"
       inkscape:connector-curvature="0" />
    <path
       style="font-size:medium;font-style:normal;font-variant:normal;font-weight:normal;font-stretch:normal;text-indent:0;text-align:start;text-decoration:none;line-height:normal;letter-spacing:normal;word-spacing:normal;text-transform:none;direction:ltr;block-progression:tb;writing-mode:lr-tb;text-anchor:start;baseline-shift:baseline;color:#000000;fill:#000000;fill-opacity:1;stroke:none;stroke-width:0.88582677;marker:none;visibility:visible;display:inline;overflow:visible;enable-background:accumulate;font-family:Sans;-inkscape-font-specification:Sans"
       d="m 79.34375,1001.625 -4.1875,2.375 -0.375,0.2188 0.1875,0.3437 c 0.352085,0.7808 0.675859,1.5876 1,2.375 0.0041,0.014 0.02703,0.017 0.03125,0.031 0.223177,0.739 0.55255,1.3686 0.8125,2 l 0,0.031 0.03125,0 c 0.261553,0.5194 0.409713,1.1566 0.71875,1.7812 0.244576,0.4893 0.431544,1.044 0.65625,1.625 0.0028,0.01 -0.0028,0.022 0,0.031 0.214557,0.713 0.466701,1.3994 0.78125,2.0937 0.253964,0.5549 0.435618,1.1919 0.75,1.8126 l 0.03125,0.031 c 0.358298,0.6044 0.600033,1.3266 1.03125,2.0312 0.330194,0.5791 0.61235,1.188 0.9375,1.8126 l 0,0.031 0.03125,0.031 c 0.335334,0.4439 0.57009,0.9735 0.84375,1.5313 l 0.03125,0 0,0.031 c 0.338647,0.586 0.694335,1.0892 0.9375,1.625 l 0.03125,0.031 c 0.279044,0.551 0.588982,1.0728 0.90625,1.5938 0.0044,0.01 -0.0045,0.024 0,0.031 0.29497,0.4937 0.631765,0.9604 0.96875,1.4062 0.0086,0.011 0.02267,0.02 0.03125,0.031 0.274127,0.4232 0.551755,0.8495 0.8125,1.2813 l 0,0.031 0.03125,0.031 c 0.373027,0.4766 0.713707,1.0195 1.15625,1.5313 0.377285,0.4264 0.729748,0.8986 1.09375,1.375 0.437263,0.4931 0.888824,1.0322 1.4375,1.5 0.435397,0.373 0.871299,0.7723 1.375,1.125 0.382671,0.2607 0.754993,0.5836 1.125,0.9063 0.01126,0.012 0.01989,0.019 0.03125,0.031 0.357751,0.3808 0.766437,0.5978 1.09375,0.8438 0.01131,0.01 0.01988,0.021 0.03125,0.031 0.432087,0.3914 0.884458,0.6943 1.34375,0.9688 0.0071,0 0.02419,-0 0.03125,0 0.580916,0.3798 1.206847,0.6728 1.8125,0.9374 0.698672,0.3037 1.40213,0.4154 2.09375,0.4688 l 0.03125,0 c 0.675673,0.043 1.31889,0.032 1.96875,0.031 0.7499,-0 1.53922,0.01 2.3125,-0.031 0.92851,-0.051 1.74985,-0.383 2.53125,-0.625 0.009,-0 0.0222,0 0.0312,0 0.72751,-0.2119 1.49804,-0.4172 2.21875,-0.8125 0.22377,-0.121 0.50858,-0.3163 0.78125,-0.4687 0.0499,-0.028 0.10526,-0.034 0.15625,-0.063 0.0131,-0.01 0.0181,-0.024 0.0312,-0.031 0.004,-0 0.0258,0 0.0312,0 0.10741,-0.047 0.23189,-0.106 0.28125,-0.125 0.0119,0 0.0194,-0 0.0312,0 1.59484,0.1651 2.64928,-0.4183 3.34375,-1.1875 0.73119,-0.8099 1.22617,-1.6957 2,-2.1563 l 0.0312,0 0,-0.031 c 0.54326,-0.424 0.76037,-0.9597 1.03125,-1.3125 l 0.0312,-0.031 c 0.26258,-0.3954 0.53478,-0.8019 0.78125,-1.25 l 0,-0.031 c 0.21441,-0.428 0.43632,-0.8745 0.625,-1.3438 0.0142,-0.035 0.0487,-0.058 0.0625,-0.094 0.29993,-0.4827 0.51735,-1.0045 0.6875,-1.5313 0.0105,-0.02 0.0209,-0.042 0.0312,-0.062 0.26484,-0.5242 0.48827,-1.0864 0.65625,-1.6563 l 0.0312,0 c 0.10675,-0.4239 0.29298,-0.8663 0.40625,-1.4063 l 0.1875,-0.875 -0.8125,0.375 -4.34375,2.0938 -0.1875,0.062 -0.0625,0.2187 c -0.11894,0.4164 -0.27892,0.8283 -0.40625,1.3126 -0.003,0.01 0.003,0.021 0,0.031 -0.19297,0.5187 -0.43585,1.0191 -0.65625,1.5625 -0.2046,0.5078 -0.45888,1.0077 -0.71875,1.5313 l 0,0.031 -0.0312,0 c -0.20126,0.4388 -0.39072,0.8737 -0.625,1.2812 -0.007,0.012 -0.0243,0.019 -0.0312,0.031 -0.25573,0.3919 -0.49683,0.7951 -0.75,1.1563 l -0.0312,0 c -0.18845,0.3115 -0.44691,0.5574 -0.71875,0.7812 -0.1687,0.059 -0.3243,0.1801 -0.5,0.2188 l -0.0312,0 c -0.84458,0.233 -1.59815,0.559 -2.34375,0.6562 -0.66393,0.089 -1.39309,0.045 -2.15625,0.062 -0.011,3e-4 -0.0202,-3e-4 -0.0312,0 -0.63977,2e-4 -1.27896,0.015 -1.90625,0 -0.61841,-0.024 -1.20067,-0.068 -1.71875,-0.25 -0.009,-0 -0.0225,0 -0.0312,0 -0.56067,-0.2255 -1.10286,-0.5011 -1.59375,-0.8125 -0.0081,-0.01 -0.02313,0.01 -0.03125,0 -0.464604,-0.3 -0.913391,-0.5368 -1.21875,-0.8438 l 0,-0.031 c -0.418575,-0.3675 -0.835554,-0.5474 -1.0625,-0.8125 l -0.03125,-0.031 -0.03125,-0.031 c -0.388756,-0.3132 -0.767515,-0.6745 -1.25,-1 l 0,-0.031 -0.03125,0 c -0.429307,-0.2659 -0.828324,-0.6264 -1.28125,-1 l 0,-0.031 c -0.445875,-0.3415 -0.809784,-0.7936 -1.25,-1.2813 -0.362009,-0.4526 -0.687042,-0.9606 -1.125,-1.4374 -0.35412,-0.4026 -0.680735,-0.8634 -1.0625,-1.3438 -0.01172,-0.02 -0.01949,-0.042 -0.03125,-0.062 -0.265112,-0.4534 -0.522629,-0.903 -0.8125,-1.3437 l -0.03125,-0.031 c -0.339012,-0.449 -0.654277,-0.8626 -0.90625,-1.3125 l 0,-0.031 -0.03125,0 c -0.306091,-0.4953 -0.574685,-0.9846 -0.84375,-1.5 -0.29248,-0.6234 -0.65848,-1.1509 -0.96875,-1.6876 -0.0038,-0.01 0.0038,-0.024 0,-0.031 -0.253557,-0.5047 -0.529864,-1.0555 -0.90625,-1.5625 -0.01649,-0.032 -0.04609,-0.062 -0.0625,-0.094 -0.298835,-0.5879 -0.602774,-1.2117 -0.9375,-1.8126 l 0,-0.031 c -0.368355,-0.5644 -0.609297,-1.2423 -1,-1.9375 -0.26038,-0.5353 -0.45519,-1.1304 -0.75,-1.75 l 0.03125,0 c -0.294707,-0.6303 -0.537971,-1.3051 -0.75,-2 l 0,-0.031 c -0.203739,-0.5756 -0.371654,-1.1761 -0.6875,-1.7812 -0.247922,-0.4942 -0.413857,-1.1116 -0.71875,-1.7188 -0.0057,-0.013 -0.02552,-0.018 -0.03125,-0.031 -0.293295,-0.6698 -0.616354,-1.3078 -0.8125,-1.9375 l 0,-0.031 c -0.347658,-0.8224 -0.716739,-1.6271 -1.03125,-2.4374 l -0.4375,0.094 -0.1875,-0.3125 z m 0.03125,1.0312 c 0.265547,0.6476 0.513744,1.3061 0.78125,1.9376 0.0043,0.014 0.02685,0.017 0.03125,0.031 0.232573,0.7297 0.569912,1.37 0.84375,2 l 0,0.031 c 0.257404,0.5017 0.407613,1.0985 0.71875,1.7188 l 0,0.031 c 0.259852,0.4978 0.447428,1.0639 0.65625,1.6563 0.0028,0.01 -0.0028,0.022 0,0.031 0.212591,0.6956 0.460193,1.407 0.78125,2.0937 0.2572,0.5406 0.449074,1.1626 0.75,1.7813 0.334716,0.5955 0.594393,1.3225 1.03125,2 0.0044,0.01 -0.0044,0.023 0,0.031 0.327578,0.5907 0.615505,1.2158 0.9375,1.8438 l 0.03125,0.031 0.03125,0.031 c 0.341185,0.4369 0.593784,0.9729 0.875,1.5313 0.335309,0.5829 0.68057,1.1087 0.9375,1.6563 l 0.03125,0.031 c 0.279573,0.5356 0.558457,1.0503 0.875,1.5625 0.288072,0.5144 0.643016,0.9444 0.96875,1.375 0.0084,0.011 0.02284,0.02 0.03125,0.031 0.283816,0.4331 0.550354,0.8934 0.8125,1.3437 l 0,0.031 0.03125,0.031 c 0.358045,0.4429 0.692929,0.9463 1.125,1.4375 0.379664,0.4134 0.702885,0.9175 1.09375,1.4063 l 0.03125,0.031 c 0.400217,0.4433 0.797647,0.9472 1.34375,1.375 l 0,0.031 c 0.0062,0 0.02496,-0 0.03125,0 0.412639,0.3421 0.816708,0.7361 1.34375,1.0626 0.37286,0.2515 0.724105,0.5772 1.125,0.9062 0.02306,0.027 0.03898,0.037 0.0625,0.062 0.362902,0.3896 0.790937,0.6158 1.0625,0.8437 0.01152,0.012 0.01964,0.02 0.03125,0.031 0.436676,0.4257 0.940762,0.6755 1.34375,0.9375 0.572768,0.3667 1.17442,0.6321 1.78125,0.875 l 0.0312,0 c 0.6829,0.2473 1.35838,0.2876 2,0.3125 0.65763,0.016 1.32377,0 1.96875,0 0.70964,-0.018 1.47997,0.076 2.28125,-0.031 0.11618,-0.015 0.20004,-0.072 0.3125,-0.094 -1.6e-4,10e-5 0.18731,0.4825 0.25,0.6563 -0.028,0.015 -0.0667,0.048 -0.0937,0.062 -0.61848,0.3393 -1.32746,0.536 -2.0625,0.75 -0.82325,0.2536 -1.58047,0.5516 -2.34375,0.5938 -0.73582,0.037 -1.48916,0.027 -2.25,0.031 -0.64649,0 -1.286208,0.01 -1.90625,-0.031 -0.01061,-8e-4 -0.02066,8e-4 -0.03125,0 -0.644748,-0.051 -1.268297,-0.1698 -1.8125,-0.4062 -0.597785,-0.2612 -1.168263,-0.5328 -1.6875,-0.875 -0.470166,-0.2808 -0.913875,-0.5361 -1.28125,-0.875 l -0.03125,-0.031 c -0.400739,-0.3066 -0.772924,-0.5596 -1.03125,-0.8437 l -0.03125,0 -0.03125,-0.031 c -0.385101,-0.3362 -0.769939,-0.663 -1.21875,-0.9687 -0.446697,-0.3128 -0.867829,-0.6816 -1.3125,-1.0626 -0.471754,-0.4022 -0.893357,-0.8983 -1.34375,-1.4062 l 0.03125,0 c -0.357834,-0.4684 -0.712989,-0.9406 -1.125,-1.4062 -0.372395,-0.4307 -0.705436,-0.9349 -1.09375,-1.4376 -0.01197,-0.02 -0.01925,-0.043 -0.03125,-0.062 -0.261744,-0.4321 -0.537599,-0.8577 -0.8125,-1.2813 l 0,-0.031 -0.03125,0 c -0.341365,-0.4503 -0.657051,-0.903 -0.9375,-1.375 -0.314028,-0.5147 -0.60553,-1.0304 -0.875,-1.5624 -0.292251,-0.6439 -0.692399,-1.1552 -1,-1.6876 l 0.03125,0 c -0.257751,-0.5253 -0.520893,-1.0676 -0.90625,-1.5937 -0.01049,-0.02 -0.0208,-0.042 -0.03125,-0.062 -0.301084,-0.5826 -0.59476,-1.1802 -0.9375,-1.7812 l 0,-0.031 c -0.360254,-0.5887 -0.621318,-1.3013 -1.03125,-2 -0.0041,-0.01 0.004,-0.023 0,-0.031 -0.264192,-0.5283 -0.469577,-1.1061 -0.75,-1.7187 -0.295141,-0.6515 -0.508167,-1.3291 -0.71875,-2.0313 l 0,-0.031 c -0.21148,-0.5427 -0.391419,-1.1577 -0.6875,-1.75 -0.254603,-0.5146 -0.444417,-1.1035 -0.75,-1.7188 -0.0039,-0.01 0.004,-0.022 0,-0.031 -0.284504,-0.6863 -0.594859,-1.304 -0.78125,-1.9375 l -0.03125,-0.031 0,-0.031 c -0.282682,-0.6883 -0.572711,-1.356 -0.875,-2.0312 l 3.4375,-1.9376 z m 38.59375,21.5 c -0.0453,0.14 -0.0854,0.253 -0.125,0.4063 -0.003,0.011 0.003,0.02 0,0.031 -0.15603,0.5222 -0.37349,1.0411 -0.625,1.5312 l 0,0.031 -0.0312,0.031 c -0.16431,0.5231 -0.36746,1.024 -0.65625,1.4687 l -0.0312,0.063 -0.0312,0.031 c -0.17493,0.451 -0.39961,0.8937 -0.625,1.3438 -0.004,0.01 0.004,0.023 0,0.031 -0.20938,0.3773 -0.46462,0.7429 -0.71875,1.125 -0.008,0.012 -0.023,0.019 -0.0312,0.031 -0.33666,0.449 -0.52407,0.8837 -0.8125,1.125 -0.009,0.01 -0.022,0.024 -0.0312,0.031 -0.42639,0.2613 -0.73664,0.5956 -1.03125,0.9375 l -0.15625,-0.2812 -0.21875,-0.4063 c -0.031,0.017 -0.0114,0.019 -0.0312,0.031 -0.17769,0.1073 -0.0188,0.046 -0.34375,0.125 l -0.0625,0 -0.0312,0.031 c -0.12,0.066 -0.37507,0.2249 -0.53125,0.3125 -0.0245,0.014 -0.0685,0.017 -0.0937,0.031 0.15146,-0.2343 0.28992,-0.4936 0.4375,-0.7188 l 0.0312,0 c 0.26353,-0.4542 0.47414,-0.9099 0.6875,-1.375 0.25309,-0.5099 0.52266,-1.0295 0.75,-1.5938 0.2147,-0.5293 0.47757,-1.0563 0.6875,-1.625 l 0,-0.031 0,-0.031 c 0.0933,-0.3626 0.24847,-0.7499 0.375,-1.1563 l 3.25,-1.5313 z m -6.59375,10.125 c -0.13903,0.09 -0.27087,0.1916 -0.4375,0.25 0.13961,-0.081 0.31918,-0.1812 0.4375,-0.25 z"
       id="path4059"
       inkscape:connector-curvature="0" />
    <path
       style="font-size:medium;font-style:normal;font-variant:normal;font-weight:normal;font-stretch:normal;text-indent:0;text-align:start;text-decoration:none;line-height:normal;letter-spacing:normal;word-spacing:normal;text-transform:none;direction:ltr;block-progression:tb;writing-mode:lr-tb;text-anchor:start;baseline-shift:baseline;color:#000000;fill:#000000;fill-opacity:1;stroke:none;stroke-width:0.88582677;marker:none;visibility:visible;display:inline;overflow:visible;enable-background:accumulate;font-family:Sans;-inkscape-font-specification:Sans"
       d="m 128.5,1004.9062 -0.15625,0.031 c -2.1364,0.6274 -3.95549,1.9553 -5.5625,3.3437 -0.017,0.015 -0.0455,0.017 -0.0625,0.031 -0.52374,0.3617 -1.03791,0.7488 -1.53125,1.1563 -0.8287,0.6109 -1.59436,1.2658 -2.34375,1.9687 -0.73553,0.6725 -1.44638,1.3577 -2.1875,1.9687 -0.67891,0.5377 -1.24121,1.1277 -1.875,1.5938 -0.0288,0.021 -0.0647,0.042 -0.0937,0.062 l -0.1875,0.125 0,0.2187 0,0.6563 0.59375,-0.25 0.0937,-0.031 4.40625,-1.75 0.0312,-0.031 0.0312,-0.031 c 0.0683,-0.044 0.19394,-0.091 0.34375,-0.2188 0.16837,-0.1425 0.27443,-0.2769 0.34375,-0.3438 0.15724,-0.1515 0.33076,-0.2957 0.5,-0.4374 -0.0701,0.1341 -0.11553,0.2707 -0.1875,0.4062 l -0.0312,0.031 0,0.031 c -0.16402,0.4837 -0.42645,0.9775 -0.5625,1.5937 -0.11903,0.4973 -0.29266,1.0344 -0.375,1.625 -0.001,0.011 0.001,0.02 0,0.031 -0.10605,0.6757 -0.0264,1.2834 -0.125,1.75 -0.002,0.01 0.002,0.023 0,0.031 -0.16124,0.6002 -0.21643,1.2041 -0.25,1.7812 -0.0292,0.6555 -0.0307,1.2961 -0.0312,1.9375 l 0,0.031 0,0.031 c 0.0875,0.5855 0.20132,1.1711 0.40625,1.75 0.17903,0.5827 0.48392,1.0683 0.75,1.5312 0.005,0.01 -0.004,0.022 0,0.031 0.27476,0.5458 0.51484,1.0887 0.65625,1.6563 l 0,0.031 c 0.19365,0.635 0.49537,1.1847 0.75,1.7188 0.007,0.025 0.0233,0.038 0.0312,0.062 0.24255,0.7372 0.73632,1.2775 1.1875,1.75 l 0,0.031 c 0.45893,0.4335 0.99392,0.781 1.59375,1.0313 l 0.0312,0.031 0.0312,0 c 1.22115,0.3788 2.33112,-0.053 3.3125,-0.6562 0.98138,-0.6032 1.89589,-1.3986 2.71875,-1.9376 l 0.0625,-0.031 0.0312,-0.062 c 0.29339,-0.3729 0.63284,-0.7546 0.9375,-1.1875 0.0177,-0.025 0.0451,-0.037 0.0625,-0.062 0.32629,-0.3232 0.54054,-0.7515 0.71875,-1.1563 0.006,-0.013 0.0258,-0.018 0.0312,-0.031 0.0176,-0.041 0.0468,-0.085 0.0625,-0.125 0.23836,-0.3362 0.33123,-0.7027 0.40625,-0.9062 0.0344,-0.093 0.13862,-0.241 0.21875,-0.4376 l -0.0312,0 c 0.22708,-0.5214 0.42714,-0.9284 0.53125,-1.5624 l 0,-0.031 0,-0.031 c 0.004,-0.5073 0.13143,-1.0335 0.25,-1.5937 0.002,-0.011 -0.002,-0.02 0,-0.031 0.0921,-0.3887 0.0688,-0.7828 -0.0937,-1.0937 -0.16722,-0.3197 -0.45196,-0.5311 -0.75,-0.7187 l -0.21875,-0.1563 -0.25,0.1563 -4.0625,2.5937 -0.5625,0.375 0.5625,0.375 c 0.24387,0.1561 0.30251,0.2519 0.25,0.1563 -0.008,0.051 -0.033,0.1015 -0.0625,0.2187 -0.13436,0.6026 -0.1979,1.2042 -0.28125,1.75 -0.11451,0.4005 -0.32061,0.798 -0.5,1.2813 -0.10088,0.2368 -0.19072,0.4132 -0.28125,0.625 -0.40632,-0.4255 -0.77034,-0.78 -0.90625,-1.25 l 0,-0.031 0,-0.031 c -0.25497,-0.5406 -0.52221,-1.0471 -0.6875,-1.5624 -0.003,-0.01 0.003,-0.022 0,-0.031 -0.19111,-0.6815 -0.46833,-1.3197 -0.78125,-1.9375 l 0,-0.031 -0.0312,0 c -0.25387,-0.4601 -0.49239,-0.8798 -0.625,-1.3126 l 0,-0.031 c -0.15386,-0.443 -0.2604,-0.8973 -0.3125,-1.375 4e-5,-0.011 -4e-5,-0.02 0,-0.031 0.002,-0.6227 0.0212,-1.2109 0.0625,-1.8126 0.0469,-0.543 0.1385,-1.0747 0.25,-1.625 l 0,-0.031 0,-0.031 c 0.052,-0.6393 0.0314,-1.2412 0.125,-1.7813 0.0934,-0.4775 0.28931,-0.9635 0.40625,-1.5313 0.1459,-0.4413 0.32615,-0.8743 0.53125,-1.3124 0.007,-0.014 0.0239,-0.018 0.0312,-0.031 0.27389,-0.5021 0.46143,-1.0209 0.71875,-1.4063 l 0,-0.031 c 0.27318,-0.4855 0.6286,-0.9421 0.96875,-1.4375 0.005,-0.01 -0.005,-0.024 0,-0.031 0.43307,-0.5983 0.88101,-1.2134 1.28125,-1.8437 l 0,-0.031 c 0.11854,-0.2124 0.32228,-0.4924 0.40625,-0.875 0.042,-0.1912 0.0626,-0.4316 -0.0312,-0.6562 -0.0939,-0.2246 -0.29414,-0.4102 -0.53125,-0.5312 l -0.15625,-0.063 z m -0.96875,2.4688 c -0.23614,0.3458 -0.47176,0.6903 -0.71875,1.0312 -0.32935,0.4806 -0.69053,0.9856 -1,1.5313 -0.004,0.01 0.004,0.023 0,0.031 -0.33153,0.5043 -0.54387,1.0094 -0.78125,1.4374 l 0,0.031 c -0.22439,0.4774 -0.4551,0.9764 -0.625,1.5 l 0,0.031 c -0.0987,0.4794 -0.29439,0.9908 -0.40625,1.5624 -0.11068,0.6385 -0.0845,1.2578 -0.125,1.8126 -0.001,0.019 0.002,0.043 0,0.062 -0.10969,0.5472 -0.20066,1.0845 -0.25,1.6563 l 0,0.031 c -0.0448,0.6516 -0.0601,1.2739 -0.0625,1.9062 l 0,0.031 0,0.031 c 0.0561,0.5341 0.16641,1.0749 0.34375,1.5937 0.003,0.01 -0.003,0.022 0,0.031 0.16886,0.5366 0.44882,1.0064 0.6875,1.4375 0.006,0.011 0.025,0.02 0.0312,0.031 0.28963,0.5762 0.5194,1.1738 0.6875,1.7813 l 0.0312,0.031 c 0.1875,0.5963 0.44411,1.1124 0.6875,1.625 0.007,0.025 0.0233,0.038 0.0312,0.062 0.22558,0.7022 0.71274,1.1943 1.125,1.625 l 0,0.031 0.0312,0 c 0.0443,0.036 0.1106,0.057 0.15625,0.094 -0.20632,0.3211 -0.43544,0.6207 -0.6875,0.9063 -0.35543,0.4184 -0.59037,0.7906 -0.90625,0.9687 l -0.0312,0 c -0.14797,0.091 -0.22158,0.1625 -0.3125,0.2188 -0.037,0.021 -0.0976,0.047 -0.125,0.062 -0.0316,0.018 -0.0451,0.053 -0.0625,0.062 9e-4,-3e-4 -0.0283,-0 -0.0312,0 -0.0135,0.01 -0.0204,0.024 -0.0312,0.031 -0.005,0 -0.0233,-0.01 -0.0312,0 -0.004,0 0.008,0.026 0,0.031 -0.008,0.01 -0.0623,0.031 -0.0625,0.031 -1.2e-4,10e-5 -0.0625,0.094 -0.0625,0.094 -1e-5,0 0.0549,0.1182 0.0937,0.2187 -0.0427,-0.01 -0.082,0.013 -0.125,0 -0.008,-0 -0.0233,0 -0.0312,0 -0.47452,-0.2018 -0.89363,-0.5088 -1.28125,-0.875 -0.44839,-0.4706 -0.84057,-0.907 -1,-1.4374 l 0,-0.031 0,-0.031 c -0.26825,-0.5685 -0.55058,-1.0913 -0.71875,-1.625 -0.003,-0.013 -0.0278,-0.018 -0.0312,-0.031 -0.16703,-0.6527 -0.42693,-1.2671 -0.71875,-1.8438 l 0,-0.031 c -0.27436,-0.4782 -0.54745,-0.9192 -0.6875,-1.375 l 0,-0.031 c -0.172,-0.486 -0.2934,-1.0009 -0.375,-1.5313 2e-5,-0.021 -2e-5,-0.041 0,-0.062 4.5e-4,-0.6215 0.004,-1.2362 0.0312,-1.8438 0.0331,-0.5682 0.0786,-1.0841 0.21875,-1.5937 l 0,-0.031 c 0.16204,-0.7098 0.0724,-1.3411 0.15625,-1.8437 l 0,-0.031 c 0.0657,-0.4941 0.21012,-0.9729 0.34375,-1.5312 0.0979,-0.4433 0.31525,-0.9174 0.5,-1.4375 l 0.0312,0 c 0.24238,-0.4565 0.46683,-0.9516 0.6875,-1.4375 0.0251,-0.034 0.0385,-0.059 0.0625,-0.094 0.29332,-0.4188 0.50813,-0.8063 0.75,-1.1562 0.30322,-0.2813 0.60013,-0.5644 0.90625,-0.8438 l 0.0312,0 c 0.70305,-0.676 1.49801,-1.2918 2.3125,-1.875 l 0.0312,-0.031 0.0312,-0.031 c 0.30375,-0.3251 0.81121,-0.6021 1.28125,-0.9688 z m -4.125,1.5625 c -0.33232,0.4483 -0.6536,0.9102 -0.96875,1.375 -0.008,0.012 -0.0231,0.019 -0.0312,0.031 -0.0528,0.066 -0.0772,0.1211 -0.125,0.1874 -0.3891,0.3614 -0.77109,0.7277 -1.15625,1.0938 -0.0107,0.01 -0.0206,0.021 -0.0312,0.031 -0.46169,0.3516 -0.93542,0.7015 -1.375,1.125 -0.14516,0.14 -0.22232,0.2627 -0.28125,0.3126 -0.0235,0.02 -0.11223,0.048 -0.1875,0.094 l -1.875,0.75 c 0.71386,-0.6033 1.39598,-1.2343 2.0625,-1.8437 0.72555,-0.6806 1.48245,-1.3174 2.28125,-1.9063 l 0.0312,-0.031 c 0.48839,-0.4033 1.00652,-0.7646 1.53125,-1.125 l 0,-0.031 0.0312,0 c 0.0282,-0.024 0.0654,-0.038 0.0937,-0.062 z m 9.5,12.1875 c 0.0867,0.078 0.21154,0.1452 0.25,0.2188 0.0667,0.1275 0.0903,0.2695 0.0312,0.5 -0.11312,0.5364 -0.26747,1.0977 -0.28125,1.7187 -0.0867,0.528 -0.23835,0.8459 -0.46875,1.375 -0.0413,0.1012 -0.11064,0.2603 -0.1875,0.4687 -0.14364,0.3899 -0.18958,0.6258 -0.3125,0.75 l -0.0625,0.063 -0.0312,0.094 c -0.13155,0.339 -0.44901,0.8101 -0.6875,1.0313 l -0.0312,0.062 -0.0312,0.031 c -0.24922,0.3646 -0.53576,0.741 -0.84375,1.125 -0.0138,0.017 -0.0488,0.014 -0.0625,0.031 -0.0121,0.01 -0.0191,0.023 -0.0312,0.031 0.002,-0.012 0,-0.031 0,-0.031 0,-1e-4 -0.0312,-0.2188 -0.0312,-0.2188 -2e-5,0 -0.1562,-0.1562 -0.15625,-0.1562 -5e-5,-1e-4 -0.15618,-0.062 -0.15625,-0.063 -1.4e-4,0 -0.15601,-0.031 -0.15625,-0.031 -2.4e-4,0 -0.0482,0.027 -0.0625,0.031 -0.0286,0.01 -0.0515,0.026 -0.0625,0.031 -0.022,0.01 -0.0213,-0.01 -0.0312,0 -0.0466,0.026 -0.0478,0.037 -0.0937,0.062 -0.006,0.01 -0.0127,0.01 -0.0312,0.031 -0.011,0.01 -0.0203,-0.01 -0.0312,0 -0.10519,0.036 -0.27653,0.063 -0.40625,0.031 -0.14692,-0.04 -0.26665,-0.1777 -0.40625,-0.25 0.10968,-0.2518 0.24696,-0.5227 0.34375,-0.75 l 0,-0.031 c 0.16055,-0.4324 0.41828,-0.8842 0.5625,-1.4374 l 0,-0.031 c 0.09,-0.5896 0.13382,-1.1352 0.25,-1.6563 0.0406,-0.1617 0.0813,-0.303 0.0937,-0.4374 0.0125,-0.1345 -0.0126,-0.2897 -0.0937,-0.4376 -0.0151,-0.027 -0.0469,-0.01 -0.0625,-0.031 l 3.28125,-2.125 z m -4.78125,7.7188 c 0.0415,0.022 0.0822,0.041 0.125,0.062 -0.10796,0.061 -0.17929,0.098 -0.28125,0.1563 0.0507,-0.074 0.10781,-0.1433 0.15625,-0.2187 z m 0.625,0.8124 c -0.38252,0.2917 -0.77523,0.5784 -1.15625,0.8126 -0.45127,0.2773 -0.90367,0.4926 -1.34375,0.5937 0.46246,-0.2677 1.52652,-0.8544 2.5,-1.4063 z"
       id="path4063"
       inkscape:connector-curvature="0" />
    <path
       style="font-size:medium;font-style:normal;font-variant:normal;font-weight:normal;font-stretch:normal;text-indent:0;text-align:start;text-decoration:none;line-height:normal;letter-spacing:normal;word-spacing:normal;text-transform:none;direction:ltr;block-progression:tb;writing-mode:lr-tb;text-anchor:start;baseline-shift:baseline;color:#000000;fill:#000000;fill-opacity:1;stroke:none;stroke-width:0.88582677;marker:none;visibility:visible;display:inline;overflow:visible;enable-background:accumulate;font-family:Sans;-inkscape-font-specification:Sans"
       d="m 156.84375,997.15625 c -0.5902,-0.15851 -1.25382,-6.7e-4 -1.875,0.28125 -0.62118,0.28192 -1.2182,0.71741 -1.6875,1.25 -0.4693,0.53259 -0.82574,1.17325 -0.84375,1.875 -0.0287,0.6054 -0.0292,1.1903 -0.0312,1.7813 0.007,0.7089 0.20418,1.3647 0.28125,1.9687 0.004,0.028 -0.003,0.066 0,0.094 -0.009,0.1033 -0.0191,0.2103 -0.0312,0.3126 -0.0781,0.5841 -0.24677,1.2223 -0.28125,1.9062 -5.5e-4,0.011 4.9e-4,0.02 0,0.031 -0.0521,0.5089 -0.15273,0.9943 -0.3125,1.4688 l 0,0.031 0,0.031 c -0.1061,0.5572 -0.23512,1.1403 -0.28125,1.75 l 0,0.031 c -7e-4,0.6451 0.009,1.283 -0.0312,1.9062 -0.0528,0.632 -0.16216,1.2236 -0.34375,1.8125 l 0,0.031 c -0.18067,0.7332 -0.40027,1.4478 -0.71875,2.0937 -0.31604,0.7521 -0.69613,1.5071 -1.0625,2.25 -0.004,0.01 0.004,0.023 0,0.031 -0.342,0.6457 -0.73196,1.2753 -1.15625,1.875 l 0,0.031 c -0.35401,0.5751 -0.68183,1.1441 -1.0625,1.625 -0.38414,0.5193 -0.65839,1.0334 -1,1.4688 -0.0661,-0.1271 -0.15283,-0.2032 -0.21875,-0.3438 l -0.0312,-0.031 c -0.29509,-0.4793 -0.60762,-0.9276 -0.84375,-1.375 -0.004,-0.01 0.004,-0.023 0,-0.031 -0.25203,-0.5076 -0.48473,-1.0561 -0.65625,-1.5937 -0.10218,-0.6394 -0.0484,-1.3224 -0.0625,-2.0626 -0.001,-0.8809 0.003,-1.7712 0,-2.6562 6e-5,-0.01 -6e-5,-0.021 0,-0.031 0.004,-0.7703 -0.0162,-1.5517 0,-2.3126 0.0238,-0.6538 0.0838,-1.2713 0.21875,-1.875 0.15861,-0.743 0.24416,-1.4867 0.34375,-2.2187 0.11248,-0.775 0.13277,-1.5351 0.21875,-2.25 0.0945,-0.713 0.23363,-1.4449 0.1875,-2.25 2.4e-4,-0.3921 0.0262,-0.7689 0.0312,-1.1563 0.0148,-0.043 0.0171,-0.081 0.0312,-0.125 l 0,-0.031 c 0.0882,-0.3535 0.0396,-0.8309 0.0312,-1.2812 0.002,-0 -0.003,-0.028 0,-0.031 0.0112,-0.015 0.0396,0.01 0.0625,-0.094 0.004,-0.016 -0.002,-0.037 0,-0.063 0.002,-0.026 9e-5,-0.1243 0,-0.125 -5e-5,-3e-4 -0.0145,-0.046 -0.0312,-0.094 -0.026,-0.1127 0.0498,-0.1989 0,-0.3125 l -0.0312,-0.031 -0.0625,-0.063 c -0.3181,-0.3812 -0.4399,-0.6108 -0.78125,-0.7812 -0.17067,-0.0852 -0.42651,-0.1121 -0.59375,-0.0312 -0.16724,0.0809 -0.25894,0.19485 -0.375,0.31245 -0.46424,0.4708 -1.18479,1.3829 -3.21875,2.7813 -0.14279,0.098 -0.13858,0.1721 -0.15625,0.2187 -0.0177,0.047 -0.026,0.066 -0.0312,0.094 -0.0105,0.056 -0.028,0.1074 -0.0312,0.1562 -0.007,0.098 2.8e-4,0.1983 0,0.3126 -5.6e-4,0.2285 0.002,0.4972 0,0.5937 -0.002,0.1056 0.001,0.207 0,0.3125 -0.2097,0.5433 -0.42911,1.1032 -0.65625,1.6562 l -0.0312,0 c -0.26619,0.5001 -0.59199,0.9864 -0.9375,1.4688 -0.48127,0.6884 -1.02769,1.3056 -1.6875,1.7812 l -1.09375,0.7813 1.375,0 0.0625,0 0.0937,-0.031 0.0937,-0.031 2.46875,-1 c -0.0337,0.4292 -0.0568,0.8716 -0.125,1.2812 l 0,0.031 c -0.0656,0.699 -0.22273,1.4041 -0.375,2.125 -0.14891,0.7266 -0.14333,1.4383 -0.15625,2.125 -0.0136,0.7874 -0.006,1.5625 0,2.3437 -0.001,0.8944 5.6e-4,1.7974 0,2.6876 -0.007,0.7581 -0.0629,1.5494 0.0937,2.375 l 0.0312,0.031 0,0.031 c 0.22084,0.6178 0.45739,1.2165 0.75,1.8126 0.26282,0.5325 0.61826,0.9886 0.90625,1.4374 0.009,0.021 0.0218,0.042 0.0312,0.063 0.24693,0.5456 0.54345,1.0707 0.96875,1.5312 0.008,0.011 0.0228,0.02 0.0312,0.031 0.31453,0.4058 0.65359,0.824 1.21875,1.0938 l 0.0312,0.031 0.0312,0 c 1.1947,0.3112 2.38814,-0.1494 3.375,-0.875 0.96222,-0.7074 1.76339,-1.6855 2.34375,-2.5312 0.008,-0.01 0.0473,-0.049 0.0625,-0.062 0.0457,-0.039 0.10841,-0.079 0.1875,-0.1875 0.12141,-0.1681 0.14565,-0.2649 0.15625,-0.2812 0.18443,-0.2847 0.4215,-0.5581 0.65625,-0.9063 0.43756,-0.5617 0.79012,-1.1445 1.15625,-1.7187 0.37302,-0.3696 0.55165,-0.7996 0.71875,-1.0313 0.0209,-0.029 0.0721,-0.092 0.15625,-0.1875 l 0,-0.031 0.0312,0 c 0.0512,-0.074 0.10581,-0.1466 0.15625,-0.2188 0.005,-0.01 -0.005,-0.024 0,-0.031 0.43024,-0.564 0.72961,-1.1587 1.0625,-1.6563 0.005,-0.01 -0.005,-0.025 0,-0.031 0.15072,-0.2054 0.2694,-0.4408 0.40625,-0.6562 0.0137,0.029 0.0177,0.065 0.0312,0.094 l 0.0312,0 c 0.28428,0.5701 0.66408,1.0508 1.03125,1.5 l 0,0.031 c 0.3935,0.4422 0.86616,0.72 1.3125,0.9688 0.42838,0.2279 0.86174,0.4115 1.21875,0.6562 l 0,0.031 c 0.59584,0.3946 1.27188,0.5023 1.9375,0.4688 l 0.0312,0 c 1.05357,-0.1643 2.11258,-0.7198 3.0625,-1.3125 0.94992,-0.5927 1.80088,-1.2268 2.3125,-1.5313 0.22837,-0.1358 0.34128,-0.2609 0.46875,-0.4062 0.009,-0.01 0.022,-0.021 0.0312,-0.031 0.0152,-0.012 0.0166,-0.02 0.0312,-0.031 0.50285,-0.403 0.69346,-0.9399 0.9375,-1.1875 l 0.0312,-0.031 0.0312,-0.031 c 0.34478,-0.5146 0.54963,-1.0754 0.6875,-1.6563 0.002,-0.01 -0.002,-0.022 0,-0.031 0.15567,-0.4471 0.41184,-0.8936 0.59375,-1.4375 l 0,-0.031 c 0.14801,-0.6138 0.24851,-1.2634 0.15625,-1.9374 l -0.0937,-0.625 -0.5625,0.2812 -4.25,2.2188 -0.25,0.1562 0,0.2812 c 0.0252,0.4775 -0.0526,0.9599 -0.21875,1.4063 -0.2074,0.4806 -0.40473,0.9827 -0.5625,1.5 -0.003,0.01 0.003,0.022 0,0.031 -0.0477,0.1405 -0.15964,0.243 -0.21875,0.375 -0.2607,-0.1707 -0.52351,-0.3652 -0.84375,-0.5 -0.038,-0.025 -0.0565,-0.039 -0.0937,-0.063 -0.36686,-0.2273 -0.72577,-0.3877 -0.9375,-0.5937 -0.01,-0.012 -0.0213,-0.019 -0.0312,-0.031 -0.33381,-0.4121 -0.64459,-0.783 -0.84375,-1.1874 -0.26863,-0.5712 -0.55622,-1.1273 -0.8125,-1.6876 l 0.0312,0 c -0.19765,-0.4677 -0.26616,-1.0352 -0.34375,-1.6562 l 0,-0.031 0,-1.9063 c 0,-0.6499 -1.5e-4,-1.2876 0,-1.9375 0,-0.6497 0.0304,-1.3192 0.0312,-1.9688 0.001,-0.6503 -0.0252,-1.283 -0.0312,-1.9374 -0.007,-0.4585 -0.0306,-0.9361 -0.0625,-1.4063 0.065,-0.6929 0.0575,-1.359 0.0625,-2.0313 0.003,-0.6549 0.0321,-1.31692 0.0312,-1.9687 l 0,-0.0312 -0.0312,0 c -0.007,-0.14831 -0.0878,-0.24293 -0.125,-0.375 0.0144,-0.0376 0.051,-0.092 0.0625,-0.125 0.0209,-0.0598 0.0183,-0.10772 0.0312,-0.1875 0.006,-0.0399 0.016,-0.0965 0,-0.1875 -0.016,-0.091 -0.088,-0.27091 -0.25,-0.34375 -0.16202,-0.0728 -0.28053,-0.0216 -0.34375,0 -0.0126,0.004 -0.0208,-0.004 -0.0312,0 -0.13429,-0.0978 -0.24761,-0.23864 -0.40625,-0.28125 z m -0.40625,0.90625 c -0.50001,0.43338 -1.50553,1.1455 -2.78125,1.875 0.10462,-0.22083 0.0949,-0.44482 0.28125,-0.65625 0.37598,-0.42668 0.90405,-0.80333 1.40625,-1.03125 0.43916,-0.19931 0.81149,-0.22068 1.09375,-0.1875 z m 0.34375,0.8125 c -0.0351,0.43646 -0.0587,0.87457 -0.0625,1.2812 -0.0213,0.734 0.13901,1.3859 0.21875,2 0.017,0.142 0.0198,0.2939 0.0312,0.4376 -9.2e-4,0.01 9.4e-4,0.021 0,0.031 7.9e-4,0.01 -7.7e-4,0.021 0,0.031 -0.0665,0.5732 -0.21515,1.1749 -0.28125,1.8126 l 0,0.031 c -0.0354,0.5608 -0.0769,1.0675 -0.25,1.5312 -0.22786,0.6176 -0.20736,1.2112 -0.34375,1.625 l -0.0312,0.063 0,0.062 c 5.9e-4,0.6556 -0.002,1.2986 -0.0312,1.9376 -0.0399,0.6665 -0.096,1.306 -0.28125,1.9062 -0.2342,0.7911 -0.34719,1.5284 -0.6875,2.125 l -0.0312,0.031 0,0.031 c -0.27802,0.7261 -0.61725,1.4405 -0.96875,2.1563 -0.009,-0.021 -0.022,-0.042 -0.0312,-0.063 -0.23049,-0.5283 -0.2963,-1.1662 -0.40625,-1.8437 l 0,-0.062 0,-1.875 c 0,-0.6499 -1e-4,-1.2876 0,-1.9375 1.4e-4,-0.65 -6.4e-4,-1.3189 0,-1.9687 8e-4,-0.6484 0.004,-1.2859 0,-1.9376 -0.006,-0.6444 0.005,-1.3008 -0.0625,-1.9687 -0.001,-0.011 0.001,-0.02 0,-0.031 0.0344,-0.4886 0.0565,-0.9936 0.0625,-1.4687 0.005,-0.6117 0.001,-1.204 0,-1.8125 1.59929,-0.8379 2.52937,-1.59308 3.15625,-2.125 z M 144.5,1000.75 c 0.0163,0.023 0.15387,0.1418 0.28125,0.2812 -1.86703,1.116 -2.76655,2.0568 -3.15625,2.4688 -0.0261,-0.051 -0.0605,-0.1201 -0.0937,-0.1875 1.59408,-1.1841 2.60924,-2.1984 2.9375,-2.5313 0.0233,-0.024 0.0124,-0.014 0.0312,-0.031 z m 0.21875,1.4688 c -0.006,0.1694 0.003,0.3314 0,0.5 -0.18521,0.518 -0.43343,1.0263 -0.625,1.625 -0.003,0.01 0.003,0.021 0,0.031 -0.22966,0.5262 -0.55106,0.9932 -0.90625,1.4688 -0.54428,0.723 -0.96173,1.4045 -1.59375,1.875 l -0.46875,0.1874 c 0.0814,-0.5345 0.19008,-1.0532 0.15625,-1.6562 -1.2e-4,-0.4718 -0.004,-0.9371 0,-1.4062 8e-5,-0.01 -8e-5,-0.021 0,-0.031 0.0295,-0.094 -7e-4,-0.2388 0.0312,-0.3437 0.0841,0.038 0.18519,0.1003 0.28125,0.094 0.12808,-0.01 0.20945,-0.08 0.28125,-0.125 0.1436,-0.091 0.23368,-0.1654 0.34375,-0.2813 0.33603,-0.3537 1.35141,-1.1489 2.5,-1.9374 z m -0.125,3 c -0.0375,0.3307 -0.0476,0.6514 -0.0937,1 -0.0926,0.7701 -0.11631,1.5129 -0.21875,2.2187 -0.0994,0.7308 -0.19408,1.4551 -0.34375,2.1563 -0.15496,0.6933 -0.19431,1.3611 -0.21875,2.0312 -0.0168,0.7853 -0.0269,1.5679 -0.0312,2.3438 l 0,0.031 c 0.003,0.8908 -0.001,1.7616 0,2.6562 l 0,0.031 c 0.0135,0.7074 -0.0459,1.452 0.0937,2.25 l 0.0312,0.031 0,0.031 c 0.18906,0.5927 0.41023,1.1638 0.6875,1.7188 l 0.0312,0 c 0.26288,0.5036 0.57098,0.9683 0.84375,1.4062 0.009,0.02 0.0219,0.043 0.0312,0.062 0.10657,0.2261 0.30327,0.4316 0.4375,0.6563 -0.21893,0.3242 -0.42085,0.672 -0.65625,0.9687 -0.36815,0.4823 -0.65864,0.9782 -1,1.375 -0.1982,0.2348 -0.35321,0.4507 -0.5,0.5625 0.0209,-0.016 -0.0752,0.034 -0.125,0.062 -0.005,0 0.005,0.029 0,0.031 -0.009,0.01 -0.024,-0 -0.0312,0 -0.007,0 -0.0269,-0 -0.0312,0 -1.2e-4,0 -0.0312,0.031 -0.0312,0.031 0,0 0.21844,0.3456 0.34375,0.5625 -0.0102,-0 -0.0211,0 -0.0312,0 -0.3445,-0.1815 -0.57677,-0.4583 -0.875,-0.8437 l 0,-0.031 -0.0312,0 c -0.37272,-0.396 -0.61251,-0.8526 -0.84375,-1.375 l -0.0312,-0.031 0,-0.031 c -0.31429,-0.4949 -0.64458,-0.9394 -0.875,-1.4062 -0.27435,-0.5588 -0.50661,-1.1566 -0.71875,-1.75 -0.11853,-0.6737 -0.10086,-1.3659 -0.0937,-2.125 5.6e-4,-0.8943 -0.001,-1.7975 0,-2.6876 -0.006,-0.7801 -0.0134,-1.5699 0,-2.3437 0.0127,-0.6741 0.034,-1.3233 0.15625,-1.9375 0.002,-0.01 -0.002,-0.021 0,-0.031 0.14755,-0.698 0.30256,-1.4097 0.375,-2.1563 0.001,-0.01 -9.9e-4,-0.021 0,-0.031 0.0981,-0.6017 0.14325,-1.1773 0.1875,-1.75 L 142,1008.5 l 0.0625,-0.031 0.0625,-0.031 c 0.80502,-0.5992 1.27015,-1.3835 1.78125,-2.0625 0.26583,-0.3559 0.47344,-0.761 0.6875,-1.1562 z m -4.25,1.75 c -0.0373,0.424 -0.0953,0.8462 -0.15625,1.3124 l -1.125,0.4376 c 0.13175,-0.167 0.31621,-0.2953 0.4375,-0.4688 0.29548,-0.4125 0.58199,-0.8268 0.84375,-1.2812 z m 16.6875,0.4687 c -4e-5,0.1857 0,0.3768 0,0.5625 -1.5e-4,0.6501 0,1.2876 0,1.9375 l 0,1.9375 0,0.031 0,0.031 c 0.0746,0.5881 0.12398,1.2695 0.40625,1.9375 l 0,0.031 c 0.2639,0.577 0.51776,1.1273 0.78125,1.6876 l 0.0312,0 c 0.2734,0.5552 0.6413,1.0004 0.96875,1.4062 l 0.0312,0.031 c 0.4031,0.4192 0.86445,0.57 1.1875,0.7813 l 0.0312,0.031 0.0625,0.031 c 0.28486,0.1089 0.55493,0.3115 0.84375,0.5 -0.0141,0.017 -0.0167,0.046 -0.0312,0.062 l -0.0312,0 0,0.031 c -0.26861,0.3985 -0.55011,0.7417 -0.875,1 -0.30196,0.2314 -0.60602,0.4701 -0.84375,0.625 -0.0156,0.01 -0.0477,0.022 -0.0625,0.031 -0.0197,0.012 -0.23603,0.1473 -0.25,0.1562 -0.001,9e-4 -0.03,-7e-4 -0.0312,0 -0.0155,0.01 -0.0184,0.023 -0.0312,0.031 -0.006,0 -0.0159,0.019 -0.0312,0.031 -0.008,0.01 -0.031,0.031 -0.0312,0.031 -1.3e-4,10e-5 -0.12498,0.1562 -0.125,0.1562 0,10e-5 0.0646,0.083 0.0937,0.125 -0.35278,-0.03 -0.70355,-0.06 -1,-0.25 -0.008,-0.01 -0.0233,0.01 -0.0312,0 -0.4203,-0.2849 -0.8478,-0.5047 -1.25,-0.7187 -0.42666,-0.2378 -0.81587,-0.469 -1.09375,-0.7813 -0.35993,-0.4402 -0.67457,-0.8478 -0.90625,-1.3124 -0.10585,-0.226 -0.20486,-0.4364 -0.3125,-0.6563 0.0757,-0.1485 0.18105,-0.2858 0.25,-0.4375 0.006,-0.012 0.0252,-0.019 0.0312,-0.031 0.36338,-0.7384 0.69573,-1.493 1,-2.2813 0.005,-0.013 0.0262,-0.018 0.0312,-0.031 0.43025,-0.7743 0.54447,-1.5869 0.75,-2.2812 0.21863,-0.7084 0.30223,-1.3999 0.34375,-2.0938 l 0,-0.031 c 0.0283,-0.6262 7.7e-4,-1.2312 0,-1.8438 0.0611,-0.1855 0.0623,-0.2963 0.0937,-0.4687 z m -4.28125,2 c -1e-4,0.2477 5e-5,0.5024 0,0.75 -1e-4,0.6499 0,1.2876 0,1.9375 l 0,1.9375 0,0.062 0,0.031 c 0.10856,0.6521 0.15374,1.3717 0.46875,2.0938 0.10083,0.2267 0.20648,0.4371 0.3125,0.6562 -0.21271,0.3792 -0.39861,0.7757 -0.65625,1.125 -0.39818,0.5892 -0.69815,1.1841 -1.0625,1.6563 l 0,0.031 c -0.0433,0.062 -0.0822,0.126 -0.125,0.1874 -0.0132,0.019 -0.0181,0.044 -0.0312,0.063 -0.0468,0.048 -0.11465,0.086 -0.1875,0.1874 -0.31246,0.4333 -0.44914,0.8288 -0.65625,1 l -0.0312,0.031 -0.0312,0.062 c -0.36761,0.5766 -0.75443,1.1404 -1.15625,1.6562 l 0,0.031 c -0.19227,0.2852 -0.45601,0.5489 -0.6875,0.9063 -0.1048,0.1616 -0.12201,0.2771 -0.125,0.2812 -7.4e-4,10e-4 -0.0614,0.029 -0.15625,0.125 l -0.0312,0.031 -0.0312,0.031 c -0.022,0.033 -0.0709,0.061 -0.0937,0.094 -0.0149,-0.029 -0.0311,-0.062 -0.0312,-0.062 -4.6e-4,-6e-4 -0.18674,-0.1248 -0.1875,-0.125 -3.8e-4,-2e-4 -0.0933,-0.031 -0.0937,-0.031 -4.5e-4,-10e-5 -0.0443,7e-4 -0.0625,0 -0.14549,-0.01 -0.15451,0.018 -0.1875,0.031 -0.066,0.027 -0.11136,0.036 -0.15625,0.062 -0.0898,0.053 -0.18842,0.1494 -0.34375,0.25 -0.003,-0 -0.0283,0 -0.0312,0 -0.0967,-0.1168 -0.19148,-0.3064 -0.375,-0.5 l -0.0312,-0.031 c -0.0268,-0.025 -0.0372,-0.068 -0.0625,-0.094 0.0486,-0.073 0.10757,-0.1467 0.15625,-0.2187 0.005,-0.01 -0.005,-0.024 0,-0.031 0.41199,-0.52 0.72576,-1.0447 1.0625,-1.5 l -0.0312,0 c 0.006,-0.01 -0.006,-0.024 0,-0.031 0.43342,-0.5522 0.79096,-1.1136 1.125,-1.6562 l -0.0312,0 c 0.44949,-0.6353 0.85395,-1.2771 1.21875,-1.9688 l 0.0312,-0.031 c 0.36873,-0.7474 0.73375,-1.5015 1.0625,-2.2813 0.004,-0.01 -0.004,-0.022 0,-0.031 0.35105,-0.7196 0.56755,-1.4501 0.75,-2.1874 0.002,-0.01 -0.002,-0.022 0,-0.031 0.2001,-0.6587 0.31944,-1.3347 0.375,-2 0.0423,-0.6523 0.0306,-1.3043 0.0312,-1.9375 1e-5,-0.01 -1e-5,-0.021 0,-0.031 0.0138,-0.1712 0.0677,-0.3566 0.0937,-0.5313 z m 14.25,3.3437 c -0.0203,0.2923 0.008,0.5784 -0.0625,0.875 -0.002,0.011 0.003,0.021 0,0.031 -0.15244,0.4451 -0.40905,0.8949 -0.59375,1.4375 l 0,0.031 0,0.031 c -0.11821,0.5083 -0.31425,0.9579 -0.59375,1.375 -0.39911,0.4383 -0.58577,0.9092 -0.84375,1.0937 l -0.0312,0 -0.0312,0.063 c -0.18228,0.205 -0.13389,0.175 -0.3125,0.2812 -0.024,0.014 -0.0691,0.047 -0.0937,0.062 -0.0799,-0.2331 -0.21872,-0.625 -0.21875,-0.625 -5e-5,0 -0.0936,0.031 -0.0937,0.031 -1e-4,0 -0.026,-0 -0.0312,0 -0.0834,0.037 -0.0426,0.02 -0.0625,0.031 -0.007,0 -0.0418,0.019 -0.0625,0.031 -0.005,0 0.005,0.029 0,0.031 -0.007,0 -0.0228,-0 -0.0312,0 -0.0879,0.051 -0.2281,0.1368 -0.375,0.2187 -0.0915,0.051 -0.14331,0.054 -0.21875,0.094 -0.28286,0.047 -0.47141,-0.038 -0.6875,-0.062 0.0481,-0.1183 0.1477,-0.2244 0.1875,-0.3437 0.14797,-0.4906 0.35191,-0.9826 0.5625,-1.4688 0.17331,-0.4656 0.20996,-0.9745 0.21875,-1.4688 l 3.375,-1.75 z m -20.625,11.875 c 0.0649,0.069 0.15073,0.2134 0.25,0.3438 -0.19165,0.123 -0.58884,0.3416 -0.84375,0.5 0.0289,-0.04 0.0644,-0.087 0.0937,-0.125 0.18658,-0.2351 0.33343,-0.4784 0.5,-0.7188 z m 1.09375,0.8438 c -0.37344,0.4099 -0.65972,0.8684 -1.09375,1.1875 -0.69857,0.5136 -1.40215,0.7282 -2.09375,0.7187 1.53457,-0.8614 2.57585,-1.5104 3.1875,-1.9062 z"
       id="path4067"
       inkscape:connector-curvature="0" />
    <g
       transform="scale(0.72538961,1.3785695)"
       style="font-size:29.46788406px;font-style:normal;font-weight:normal;line-height:125%;letter-spacing:0px;word-spacing:0px;fill:#000000;fill-opacity:1;stroke:none;font-family:sans-serif"
       id="text4073">
      <path
         d="m 14.197681,663.57672 0,-21.09371 7.913738,0 c 1.611514,2e-5 2.90409,0.21345 3.877732,0.64029 0.973615,0.42689 1.736211,1.08397 2.28779,1.97124 0.551547,0.88732 0.827328,1.81539 0.827345,2.7842 -1.7e-5,0.9017 -0.244623,1.75063 -0.733819,2.54679 -0.489229,0.79618 -1.227844,1.43887 -2.215847,1.92807 1.275775,0.37412 2.256598,1.01201 2.942472,1.91369 0.68584,0.90169 1.028768,1.96645 1.028786,3.19427 -1.8e-5,0.98802 -0.208653,1.9065 -0.625905,2.75542 -0.417287,0.84893 -0.932878,1.50361 -1.546776,1.96405 -0.613929,0.46043 -1.38372,0.80816 -2.309373,1.04317 -0.92568,0.23501 -2.059981,0.35252 -3.402907,0.35252 z m 2.791391,-12.23032 4.561191,0 c 1.237411,10e-6 2.124708,-0.0815 2.661894,-0.24461 0.709826,-0.21102 1.244602,-0.56114 1.604331,-1.05037 0.359701,-0.4892 0.539559,-1.10311 0.539573,-1.84174 -1.4e-5,-0.70023 -0.167881,-1.31654 -0.503602,-1.84894 -0.335748,-0.53236 -0.815368,-0.89687 -1.438861,-1.09353 -0.623519,-0.19663 -1.693071,-0.29495 -3.208661,-0.29497 l -4.215865,0 z m 0,9.74109 5.251845,0 c 0.901675,0 1.534774,-0.0336 1.899297,-0.10072 0.642679,-0.11511 1.179853,-0.30695 1.611525,-0.57554 0.431644,-0.26859 0.786563,-0.65948 1.064758,-1.17268 0.278164,-0.51319 0.417254,-1.10552 0.417269,-1.77699 -1.5e-5,-0.78657 -0.201455,-1.47003 -0.604321,-2.05038 -0.402896,-0.58033 -0.961653,-0.98801 -1.676274,-1.22303 -0.714647,-0.235 -1.743432,-0.35251 -3.086358,-0.35252 l -4.877741,0 z"
         style="font-weight:bold;baseline-shift:baseline;-inkscape-font-specification:Sans Bold"
         id="path3034" />
      <path
         d="m 34.053971,663.57672 0,-21.09371 15.251932,0 0,2.48923 -12.460541,0 0,6.46049 11.669167,0 0,2.47484 -11.669167,0 0,7.17992 12.949754,0 0,2.48923 z"
         style="font-weight:bold;baseline-shift:baseline;-inkscape-font-specification:Sans Bold"
         id="path3036" />
      <path
         d="m 53.651265,663.57672 0,-21.09371 2.863334,0 11.079234,16.5613 0,-16.5613 2.676283,0 0,21.09371 -2.863335,0 -11.079234,-16.57568 0,16.57568 z"
         style="font-weight:bold;baseline-shift:baseline;-inkscape-font-specification:Sans Bold"
         id="path3038" />
      <path
         d="m 90.025685,656.18097 2.791391,0.70505 c -0.585157,2.29259 -1.637923,4.0408 -3.158301,5.24465 -1.520413,1.20384 -3.37894,1.80577 -5.575589,1.80577 -2.27341,0 -4.122345,-0.46284 -5.546811,-1.3885 -1.424477,-0.92567 -2.508418,-2.26621 -3.251827,-4.02162 -0.743413,-1.75541 -1.115119,-3.64031 -1.115117,-5.65473 -2e-6,-2.19665 0.419666,-4.11273 1.259003,-5.74825 0.839333,-1.63549 2.033587,-2.8777 3.582766,-3.72665 1.549166,-0.84891 3.254215,-1.27337 5.115152,-1.27339 2.110317,2e-5 3.884911,0.53719 5.323788,1.61152 1.438843,1.07437 2.441249,2.58517 3.007221,4.53241 l -2.748226,0.64749 c -0.489229,-1.53477 -1.199067,-2.65228 -2.129515,-3.35255 -0.930478,-0.70022 -2.100751,-1.05034 -3.510822,-1.05036 -1.621127,2e-5 -2.976054,0.38851 -4.064784,1.16547 -1.088745,0.77701 -1.853739,1.82018 -2.294984,3.12953 -0.441256,1.30938 -0.661881,2.65951 -0.661876,4.05039 -5e-6,1.79379 0.261388,3.35975 0.784179,4.69789 0.522781,1.33814 1.335737,2.33815 2.43887,3.00002 1.103119,0.66188 2.297373,0.99282 3.582766,0.99282 1.56355,0 2.887301,-0.45084 3.971257,-1.35253 1.083927,-0.90169 1.817745,-2.23983 2.201459,-4.01443 z"
         style="font-weight:bold;baseline-shift:baseline;-inkscape-font-specification:Sans Bold"
         id="path3040" />
      <path
         d="m 96.356672,663.57672 0,-21.09371 2.791391,0 0,8.66195 10.964127,0 0,-8.66195 2.79139,0 0,21.09371 -2.79139,0 0,-9.94253 -10.964127,0 0,9.94253 z"
         style="font-weight:bold;baseline-shift:baseline;-inkscape-font-specification:Sans Bold"
         id="path3042" />
      <path
         d="m 125.73823,663.57672 0,-21.09371 7.9569,0 c 1.40048,2e-5 2.47003,0.0672 3.20866,0.20144 1.03597,0.17269 1.90408,0.50123 2.60434,0.98562 0.70023,0.48444 1.26379,1.1631 1.69066,2.03599 0.42685,0.87293 0.64028,1.83217 0.6403,2.87772 -2e-5,1.7938 -0.57077,3.3118 -1.71225,4.554 -1.14151,1.24223 -3.20388,1.86334 -6.1871,1.86333 l -5.41012,0 0,8.57561 z m 2.79139,-11.06484 5.45328,0 c 1.80337,10e-6 3.08395,-0.33573 3.84176,-1.00721 0.75779,-0.67145 1.13669,-1.6163 1.13671,-2.83455 -2e-5,-0.88249 -0.22304,-1.63789 -0.66908,-2.26621 -0.44606,-0.62829 -1.03359,-1.04316 -1.7626,-1.24462 -0.47004,-0.12468 -1.33815,-0.18703 -2.60434,-0.18705 l -5.39573,0 z"
         style="font-weight:bold;baseline-shift:baseline;-inkscape-font-specification:Sans Bold"
         id="path3044" />
      <path
         d="m 144.57293,653.30325 c 0,-3.50122 0.94006,-6.24224 2.82017,-8.22309 1.88011,-1.98082 4.30698,-2.97123 7.28064,-2.97125 1.94725,2e-5 3.70265,0.46525 5.26623,1.39569 1.56355,0.93049 2.7554,2.22786 3.57557,3.89212 0.82013,1.6643 1.23021,3.55161 1.23023,5.66192 -2e-5,2.13912 -0.43168,4.0528 -1.29498,5.74106 -0.86333,1.68827 -2.08636,2.96646 -3.66909,3.83457 -1.58277,0.86811 -3.29021,1.30217 -5.12235,1.30217 -1.98564,0 -3.76023,-0.47962 -5.32379,-1.43886 -1.56356,-0.95924 -2.74823,-2.26861 -3.55398,-3.9281 -0.80577,-1.65948 -1.20865,-3.41489 -1.20865,-5.26623 z m 2.87772,0.0432 c 0,2.54199 0.68346,4.54441 2.05038,6.00724 1.36691,1.46285 3.08155,2.19427 5.14393,2.19427 2.10073,0 3.82976,-0.73862 5.1871,-2.21585 1.35731,-1.47723 2.03597,-3.57317 2.03599,-6.28783 -2e-5,-1.71702 -0.29019,-3.21584 -0.87051,-4.49644 -0.58036,-1.28057 -1.42929,-2.27338 -2.54679,-2.97844 -1.11753,-0.70502 -2.37174,-1.05754 -3.76262,-1.05756 -1.97605,2e-5 -3.6763,0.67868 -5.10077,2.03599 -1.42447,1.35734 -2.13671,3.62354 -2.13671,6.79862 z"
         style="font-weight:bold;baseline-shift:baseline;-inkscape-font-specification:Sans Bold"
         id="path3046" />
      <path
         d="m 172.01202,663.57672 -5.59717,-21.09371 2.86334,0 3.20866,13.82746 c 0.34532,1.44846 0.64268,2.88732 0.89209,4.31659 0.53717,-2.25422 0.85372,-3.55399 0.94965,-3.89932 l 4.01442,-14.24473 3.36694,0 3.02161,10.67635 c 0.75778,2.64752 1.30455,5.13674 1.6403,7.4677 0.26857,-1.33335 0.61869,-2.86333 1.05037,-4.58997 l 3.30938,-13.55408 2.80578,0 -5.78422,21.09371 -2.69067,0 -4.44609,-16.07208 c -0.37411,-1.34292 -0.59474,-2.16787 -0.66187,-2.47484 -0.22064,0.96885 -0.42688,1.79379 -0.61871,2.47484 l -4.47486,16.07208 z"
         style="font-weight:bold;baseline-shift:baseline;-inkscape-font-specification:Sans Bold"
         id="path3048" />
      <path
         d="m 196.18489,663.57672 0,-21.09371 15.25193,0 0,2.48923 -12.46054,0 0,6.46049 11.66917,0 0,2.47484 -11.66917,0 0,7.17992 12.94975,0 0,2.48923 z"
         style="font-weight:bold;baseline-shift:baseline;-inkscape-font-specification:Sans Bold"
         id="path3050" />
      <path
         d="m 215.85412,663.57672 0,-21.09371 9.3526,0 c 1.8801,2e-5 3.30937,0.18947 4.28781,0.56835 0.97841,0.37892 1.76019,1.04799 2.34535,2.00721 0.58511,0.95926 0.87768,2.01922 0.8777,3.17989 -2e-5,1.49643 -0.48443,2.75783 -1.45325,3.7842 -0.96885,1.0264 -2.46526,1.67868 -4.48925,1.95685 0.73861,0.35493 1.29976,0.70506 1.68347,1.05037 0.81534,0.74822 1.58753,1.68348 2.31657,2.80578 l 3.6691,5.74106 -3.51083,0 -2.79139,-4.38853 c -0.81537,-1.26619 -1.48683,-2.23502 -2.0144,-2.9065 -0.5276,-0.67146 -1.00002,-1.14149 -1.41728,-1.41008 -0.41728,-0.26858 -0.84175,-0.45563 -1.2734,-0.56116 -0.31655,-0.0671 -0.83454,-0.10071 -1.55397,-0.10072 l -3.23743,0 0,9.36699 z m 2.7914,-11.78427 6.00005,0 c 1.27578,10e-6 2.27339,-0.13189 2.99283,-0.39569 0.71942,-0.26378 1.26618,-0.68585 1.6403,-1.2662 0.37409,-0.58033 0.56114,-1.21103 0.56116,-1.8921 -2e-5,-0.9976 -0.36213,-1.81775 -1.08634,-2.46046 -0.72424,-0.64267 -1.86814,-0.96401 -3.43169,-0.96403 l -6.67631,0 z"
         style="font-weight:bold;baseline-shift:baseline;-inkscape-font-specification:Sans Bold"
         id="path3052" />
    </g>
    <path
       style="font-size:medium;font-style:normal;font-variant:normal;font-weight:normal;font-stretch:normal;text-indent:0;text-align:start;text-decoration:none;line-height:normal;letter-spacing:normal;word-spacing:normal;text-transform:none;direction:ltr;block-progression:tb;writing-mode:lr-tb;text-anchor:start;baseline-shift:baseline;color:#000000;fill:#000000;fill-opacity:1;stroke:none;stroke-width:1px;marker:none;visibility:visible;display:inline;overflow:visible;enable-background:accumulate;font-family:Sans;-inkscape-font-specification:Sans"
       d="m 172.875,917.66559 -165.71875,0.625 0,1 165.71875,-0.625 0,-1 z"
       id="path4079"
       inkscape:connector-curvature="0" />
    <path
       style="font-size:medium;font-style:normal;font-variant:normal;font-weight:normal;font-stretch:normal;text-indent:0;text-align:start;text-decoration:none;line-height:normal;letter-spacing:normal;word-spacing:normal;text-transform:none;direction:ltr;block-progression:tb;writing-mode:lr-tb;text-anchor:start;baseline-shift:baseline;color:#000000;fill:#000000;fill-opacity:1;stroke:none;stroke-width:1px;marker:none;visibility:visible;display:inline;overflow:visible;enable-background:accumulate;font-family:Sans;-inkscape-font-specification:Sans"
       d="m 172.875,919.9375 -165.71875,0.625 0,1 165.71875,-0.625 0,-1 z"
       id="path4079-1"
       inkscape:connector-curvature="0" />
    <path
       style="font-size:medium;font-style:normal;font-variant:normal;font-weight:normal;font-stretch:normal;text-indent:0;text-align:start;text-decoration:none;line-height:normal;letter-spacing:normal;word-spacing:normal;text-transform:none;direction:ltr;block-progression:tb;writing-mode:lr-tb;text-anchor:start;baseline-shift:baseline;color:#000000;fill:#000000;fill-opacity:1;stroke:none;stroke-width:0.88582677;marker:none;visibility:visible;display:inline;overflow:visible;enable-background:accumulate;font-family:Sans;-inkscape-font-specification:Sans"
       d="m 127.06882,994.94459 c -1.16162,0 -2.23885,0.42425 -3.03125,1.11455 -0.7924,0.69031 -1.3125,1.69814 -1.3125,2.84403 0,1.14593 0.5201,2.15373 1.3125,2.84403 0.7924,0.6903 1.86963,1.0761 3.03125,1.0761 1.16162,0 2.2076,-0.3858 3,-1.0761 0.7924,-0.6903 1.34375,-1.6981 1.34375,-2.84403 0,-1.14589 -0.55135,-2.15372 -1.34375,-2.84403 -0.7924,-0.6903 -1.83838,-1.11455 -3,-1.11455 z m 0,1.07612 c 0.99207,0 1.88102,0.38317 2.5,0.92239 0.61898,0.53921 0.9375,1.22979 0.9375,1.96007 0,0.73029 -0.31852,1.42083 -0.9375,1.96003 -0.61898,0.5393 -1.50793,0.884 -2.5,0.884 -0.99207,0 -1.88102,-0.3447 -2.5,-0.884 -0.61898,-0.5392 -0.96875,-1.22974 -0.96875,-1.96003 0,-0.73028 0.34977,-1.42086 0.96875,-1.96007 0.61898,-0.53922 1.50793,-0.92239 2.5,-0.92239 z"
       id="path4189"
       inkscape:connector-curvature="0" />
  </g>
</svg>
