<?xml version="1.0" encoding="UTF-8" standalone="no"?>
<!-- Created with Inkscape (http://www.inkscape.org/) -->

<svg
   xmlns:dc="http://purl.org/dc/elements/1.1/"
   xmlns:cc="http://creativecommons.org/ns#"
   xmlns:rdf="http://www.w3.org/1999/02/22-rdf-syntax-ns#"
   xmlns:svg="http://www.w3.org/2000/svg"
   xmlns="http://www.w3.org/2000/svg"
   xmlns:sodipodi="http://sodipodi.sourceforge.net/DTD/sodipodi-0.dtd"
   xmlns:inkscape="http://www.inkscape.org/namespaces/inkscape"
   width="280.59064"
   height="278.88498"
   id="svg3097"
   version="1.1"
   inkscape:version="0.48.0 r9654"
   sodipodi:docname="inkscape+unicorn.svg">
  <defs
     id="defs3099">
    <symbol
       id="*Paper_Space0" />
    <symbol
       id="*Paper_Space" />
    <symbol
       id="*Model_Space" />
    <marker
       orient="auto"
       id="DistanceX"
       style="overflow:visible"
       refX="0"
       refY="0">
      <path
         id="path3184"
         d="M 3,-3 -3,3 M 0,-5 0,5"
         style="stroke:#000000;stroke-width:0.5"
         inkscape:connector-curvature="0" />
    </marker>
  </defs>
  <sodipodi:namedview
     id="base"
     pagecolor="#ffffff"
     bordercolor="#666666"
     borderopacity="1.0"
     inkscape:pageopacity="0.0"
     inkscape:pageshadow="2"
     inkscape:zoom="1.4"
     inkscape:cx="215.90925"
     inkscape:cy="130.56871"
     inkscape:document-units="px"
     inkscape:current-layer="layer1"
     showgrid="false"
     inkscape:window-width="1280"
     inkscape:window-height="752"
     inkscape:window-x="1"
     inkscape:window-y="0"
     inkscape:window-maximized="0"
     fit-margin-top="0"
     fit-margin-left="0"
     fit-margin-right="0"
     fit-margin-bottom="0" />
  <metadata
     id="metadata3102">
    <rdf:RDF>
      <cc:Work
         rdf:about="">
        <dc:format>image/svg+xml</dc:format>
        <dc:type
           rdf:resource="http://purl.org/dc/dcmitype/StillImage" />
        <dc:title></dc:title>
      </cc:Work>
    </rdf:RDF>
  </metadata>
  <g
     inkscape:label="Layer 1"
     inkscape:groupmode="layer"
     id="layer1"
     transform="translate(-6.4228571,-27.264877)">
    <path
       id="path3193"
       d="m 259.59654,167.21607 a 112.63307,112.63307 0 0 1 -225.266124,0 112.63307,112.63307 0 1 1 225.266124,0 z"
       style="fill:none;stroke:none"
       inkscape:connector-curvature="0" />
    <g
       id="g4269">
      <path
         inkscape:connector-curvature="0"
         style="fill:none;stroke:#ff0000"
         d="m 185.39772,138.99406 27.28346,0"
         id="path3209" />
      <path
         inkscape:connector-curvature="0"
         style="fill:none;stroke:#ff0000"
         d="m 144.47252,179.91926 -40.92519,27.28346"
         id="path3195" />
      <path
         inkscape:connector-curvature="0"
         style="fill:none;stroke:#ff0000"
         d="M 103.54733,207.20272 76.263867,193.56099"
         id="path3197" />
      <path
         inkscape:connector-curvature="0"
         style="fill:none;stroke:#ff0000"
         d="M 76.263867,193.56099 130.83079,138.99406"
         id="path3199" />
      <path
         inkscape:connector-curvature="0"
         style="fill:none;stroke:#ff0000"
         d="M 130.83079,138.99406 89.905599,84.427141"
         id="path3201" />
      <path
         inkscape:connector-curvature="0"
         style="fill:none;stroke:#ff0000"
         d="M 89.905599,84.427141 144.47252,125.35233"
         id="path3203" />
      <path
         inkscape:connector-curvature="0"
         style="fill:none;stroke:#ff0000"
         d="m 144.47252,125.35233 54.56693,0"
         id="path3205" />
      <path
         inkscape:connector-curvature="0"
         style="fill:none;stroke:#ff0000"
         d="m 199.03945,125.35233 -13.64173,13.64173"
         id="path3207" />
      <path
         inkscape:connector-curvature="0"
         style="fill:none;stroke:#ff0000"
         d="M 212.68118,138.99406 199.03945,152.6358"
         id="path3211" />
      <path
         inkscape:connector-curvature="0"
         style="fill:none;stroke:#ff0000"
         d="m 199.03945,152.6358 27.28346,0"
         id="path3213" />
      <path
         inkscape:connector-curvature="0"
         style="fill:none;stroke:#ff0000"
         d="m 226.32291,152.6358 -13.64173,13.64173"
         id="path3215" />
      <path
         inkscape:connector-curvature="0"
         style="fill:none;stroke:#ff0000"
         d="m 212.68118,166.27753 27.28347,0"
         id="path3217" />
      <path
         inkscape:connector-curvature="0"
         style="fill:none;stroke:#ff0000"
         d="m 239.96465,166.27753 -13.64174,13.64173"
         id="path3219" />
      <path
         inkscape:connector-curvature="0"
         style="fill:none;stroke:#ff0000"
         d="m 226.32291,179.91926 27.28347,0"
         id="path3221" />
      <path
         inkscape:connector-curvature="0"
         style="fill:none;stroke:#ff0000"
         d="m 253.60638,179.91926 -13.64173,13.64173"
         id="path3223" />
      <path
         inkscape:connector-curvature="0"
         style="fill:none;stroke:#ff0000"
         d="m 144.47252,179.91926 27.28346,54.56694"
         id="path3225" />
      <path
         inkscape:connector-curvature="0"
         style="fill:none;stroke:#ff0000"
         d="m 171.75598,234.4862 68.20867,-40.92521"
         id="path3227" />
      <path
         inkscape:connector-curvature="0"
         style="fill:none;stroke:#ff0000"
         d="m 144.47252,152.6358 13.64173,0"
         id="path3229" />
      <path
         inkscape:connector-curvature="0"
         style="fill:none;stroke:#ff0000"
         d="m 158.11425,152.6358 -13.64173,13.64173"
         id="path3231" />
      <path
         inkscape:connector-curvature="0"
         style="fill:none;stroke:#ff0000"
         d="m 144.47252,166.27753 0,-13.64173"
         id="path3233" />
    </g>
    <g
       style="font-size:40px;font-style:normal;font-variant:normal;font-weight:normal;font-stretch:normal;text-align:start;line-height:125%;letter-spacing:0px;word-spacing:0px;writing-mode:lr-tb;text-anchor:start;fill:none;stroke:#000000;stroke-width:0.66412896;stroke-opacity:1;font-family:Designer Block;-inkscape-font-specification:Designer Block"
       id="text3336">
      <path
         d="m 258.74547,180.9663 c 0.11297,-0.87272 0.44683,-1.5824 1.00159,-2.12904 0.55477,-0.54664 1.25528,-0.76519 2.10156,-0.65565 l 22.17499,2.8704 c 0.84625,0.10954 1.45481,0.49754 1.82568,1.164 0.39727,0.66987 0.53943,1.44117 0.42649,2.31389 -0.11299,0.87271 -0.4187,1.57259 -0.91712,2.09964 -0.58808,0.5961 -1.30524,0.83938 -2.15149,0.72985 l -22.175,-2.8704 c -0.84627,-0.10955 -1.46634,-0.51248 -1.86021,-1.2088 -0.3973,-0.66988 -0.53946,-1.44118 -0.42649,-2.31389 m 24.42203,6.38795 0,0 m 0.81644,-6.30737 0,0"
         style=""
         id="path4330" />
      <path
         d="m 254.05653,202.74294 c 0.21132,-0.79922 0.62666,-1.37897 1.24601,-1.73927 0.61936,-0.36033 1.32863,-0.43482 2.12783,-0.22348 l 11.7173,3.09826 2.46429,-9.31971 -11.7173,-3.09826 c -0.7992,-0.21133 -1.37895,-0.62666 -1.73927,-1.24601 -0.36031,-0.61936 -0.4348,-1.32863 -0.22348,-2.12783 0.21132,-0.7992 0.62666,-1.37896 1.24601,-1.73927 0.61254,-0.33453 1.3184,-0.39613 2.1176,-0.18481 l 11.09857,2.93466 c 1.64995,0.43627 2.89213,1.37155 3.72655,2.80585 0.85336,1.46688 1.0619,3.0253 0.62564,4.67527 l -2.12686,8.04356 c -0.43629,1.64994 -1.38787,2.90161 -2.85474,3.755 -1.44112,0.86016 -2.98666,1.07212 -4.63661,0.63586 l -11.09856,-2.93465 c -0.77342,-0.20453 -1.35318,-0.61986 -1.73927,-1.24601 -0.36031,-0.61938 -0.43821,-1.31576 -0.23371,-2.08916"
         style=""
         id="path4332" />
      <path
         d="m 245.21683,222.67512 c 0.36147,-0.74346 0.86882,-1.23808 1.52203,-1.48385 0.67722,-0.23413 1.38755,-0.17046 2.13099,0.19102 l 4.38877,2.1338 4.21514,-8.66961 -4.38876,-2.13381 c -0.74346,-0.36147 -1.23224,-0.8808 -1.46636,-1.558 -0.21014,-0.66555 -0.13448,-1.37005 0.22698,-2.1135 0.36147,-0.74346 0.86881,-1.23807 1.52204,-1.48385 0.66554,-0.21014 1.37004,-0.13448 2.1135,0.22699 l 20.10918,9.77703 c 0.74343,0.36145 1.22605,0.86296 1.44788,1.50454 0.21011,0.66553 0.13445,1.37003 -0.22699,2.1135 -0.36149,0.74344 -0.86883,1.23805 -1.52204,1.48385 -0.65324,0.24576 -1.35158,0.18792 -2.09501,-0.17352 l -10.864,-5.28205 -1.784,3.6693 4.2089,2.04635 c 0.71946,0.34979 1.18426,0.85746 1.39441,1.52303 0.23411,0.67719 0.17627,1.37552 -0.17352,2.09501 -0.36148,0.74344 -0.86882,1.23805 -1.52203,1.48385 -0.65324,0.24576 -1.35158,0.18792 -2.09502,-0.17352 l -4.2089,-2.04635 c -0.69961,1.43891 -1.64335,2.37369 -2.8312,2.80433 -1.57993,0.56613 -3.12534,0.48192 -4.63623,-0.25265 l -4.2089,-2.04635 c -0.71946,-0.34983 -1.19625,-0.86333 -1.43038,-1.54052 -0.23412,-0.67723 -0.17628,-1.37556 0.17352,-2.09502"
         style=""
         id="path4334" />
      <path
         d="m 234.75339,237.81955 7.07551,-9.39334 c 0.49737,-0.6603 1.10083,-1.04039 1.81037,-1.14025 0.69349,-0.0786 1.37039,0.13085 2.0307,0.62822 0.639,0.48132 1.00843,1.07676 1.10829,1.7863 0.0999,0.70954 -0.0909,1.38381 -0.57219,2.02282 l -7.46057,9.90454 1.59751,1.20332 5.41492,-7.18878 c 1.02683,-1.36322 2.36984,-2.1711 4.02904,-2.42365 1.66444,-0.21522 3.17827,0.19059 4.54148,1.21743 l 0.51121,0.38506 c 1.36319,1.02682 2.16042,2.36181 2.39169,4.00497 0.2365,1.68048 -0.15866,3.20233 -1.18547,4.56555 l -7.07551,9.39334 c -0.48133,0.63898 -1.07676,1.00841 -1.7863,1.1083 -0.70955,0.0998 -1.38382,-0.0909 -2.02282,-0.5722 -0.639,-0.48136 -1.00843,-1.07679 -1.10829,-1.78631 -0.0999,-0.70956 0.0909,-1.38383 0.57219,-2.02281 l 7.46057,-9.90454 -1.56556,-1.17926 -5.39086,7.15683 c -1.02683,1.36319 -2.38049,2.16305 -4.06098,2.39958 -1.65919,0.25254 -3.17039,-0.1346 -4.5336,-1.1614 l -0.57511,-0.4332 c -1.36319,-1.02685 -2.16305,-2.38051 -2.39958,-4.06099 -0.23124,-1.64316 0.16654,-3.14634 1.19336,-4.50953"
         style=""
         id="path4336" />
      <path
         d="m 216.9988,255.65684 8.75374,-7.853 c 1.25054,-1.12186 2.72309,-1.63684 4.41765,-1.54492 1.69457,0.0919 3.11168,0.77306 4.25135,2.04344 l 5.42231,6.04425 c 1.13965,1.27038 1.66455,2.73402 1.57469,4.39094 -0.10973,1.6747 -0.79978,3.08189 -2.07016,4.22157 l -8.75374,7.853 c -0.59549,0.53419 -1.25098,0.7819 -1.96646,0.74312 -0.71548,-0.0388 -1.34033,-0.35599 -1.87455,-0.95145 -0.53422,-0.59552 -0.78192,-1.25101 -0.74312,-1.96646 0.0388,-0.71551 0.35596,-1.34036 0.95145,-1.87456 l 9.23014,-8.28037 -6.30377,-7.02681 -9.23014,8.28037 c -0.59548,0.5342 -1.25097,0.78191 -1.96646,0.74312 -0.71547,-0.0388 -1.34032,-0.35598 -1.87455,-0.95145 -0.53421,-0.59551 -0.79082,-1.26092 -0.76983,-1.99624 0.0388,-0.7155 0.35597,-1.34035 0.95145,-1.87455"
         style=""
         id="path4338" />
      <path
         d="m 201.62687,265.71033 10.06351,-6.00701 c 0.61824,-0.36903 1.31129,-0.45663 2.07917,-0.26281 0.74497,0.2075 1.30198,0.62036 1.67101,1.2386 l 3.87482,6.49148 c 0.36903,0.61823 0.46125,1.293 0.27666,2.02432 -0.19384,0.76786 -0.59987,1.33631 -1.2181,1.70536 l -6.49148,3.87482 c -0.70982,0.42369 -1.41211,0.54786 -2.10686,0.37251 -0.68107,-0.15249 -1.23346,-0.58364 -1.65716,-1.29345 -0.4237,-0.70984 -0.54787,-1.41212 -0.37251,-2.10685 0.17538,-0.69476 0.61797,-1.25398 1.32779,-1.67767 l 4.12158,-2.46021 -1.06609,-1.78601 -8.24315,4.92041 4.83841,8.10576 10.61305,-6.33503 c 0.70982,-0.42371 1.40527,-0.55933 2.08636,-0.40685 0.67183,0.18902 1.21961,0.63845 1.64332,1.34829 0.42369,0.70981 0.55247,1.39382 0.38635,2.05201 -0.17538,0.69473 -0.61798,1.25395 -1.32779,1.67767 l -10.06352,6.007 c -1.46544,0.87472 -3.02089,1.10442 -4.66634,0.6891 -1.63177,-0.39247 -2.88503,-1.32141 -3.75978,-2.78684 l -4.14134,-6.93798 c -0.87473,-1.46547 -1.10443,-3.02091 -0.6891,-4.66635 0.41536,-1.64545 1.35575,-2.90554 2.82119,-3.78027"
         style=""
         id="path4340" />
      <path
         d="m 181.64339,274.34905 8.43454,-3.02327 -1.60612,-4.48085 c -0.26993,-0.75308 -0.23485,-1.44552 0.10524,-2.07734 0.306,-0.6479 0.83554,-1.10683 1.58862,-1.37677 0.75308,-0.26993 1.45358,-0.2519 2.10149,0.0541 0.63892,0.2809 1.09334,0.79788 1.36327,1.55096 l 2.5239,7.04133 c 0.23394,0.65267 0.17731,1.32451 -0.16989,2.01553 -0.3382,0.71611 -0.83364,1.19113 -1.48631,1.42508 l -11.63514,4.17051 3.27971,9.14996 9.02351,-3.27688 -1.72759,-4.81973 c -0.26993,-0.7531 -0.2519,-1.45359 0.0541,-2.1015 0.306,-0.64792 0.84809,-1.11134 1.62627,-1.39026 0.77819,-0.27894 1.49123,-0.26541 2.13915,0.0406 0.6228,0.31498 1.06918,0.84902 1.33912,1.60211 l 1.49814,4.17961 c 0.56686,1.58146 0.48343,3.12691 -0.25029,4.63636 -0.73372,1.5094 -1.89132,2.54755 -3.47279,3.11443 l -7.83207,2.80733 c -1.60657,0.57584 -3.17262,0.51396 -4.69816,-0.18564 -1.51652,-0.67454 -2.56272,-1.81508 -3.1386,-3.42164 l -2.80732,-7.83207 c -0.57585,-1.60659 -0.49692,-3.16459 0.23678,-4.674 0.73374,-1.50944 1.90389,-2.55208 3.51045,-3.12794"
         style=""
         id="path4342" />
      <path
         d="m 155.816,289.94641 c -0.10833,-0.71181 0.0722,-1.38666 0.54149,-2.02454 0.443,-0.6339 1.02039,-1.00502 1.73217,-1.11336 l 7.51345,-1.14374 c 0.7909,-0.1204 1.47491,0.0317 2.05205,0.45638 0.58117,0.451 0.93194,1.07195 1.05233,1.86285 0.1204,0.79087 -0.0317,1.47489 -0.45638,2.05205 -0.42464,0.57713 -1.03241,0.9259 -1.8233,1.04631 l -4.78488,0.72838 0.31904,2.09586 9.53021,-1.45075 -1.42064,-9.33249 -12.25878,1.8661 c -0.79087,0.12039 -1.47489,-0.0317 -2.05205,-0.45638 -0.57713,-0.42465 -0.9259,-1.03242 -1.04631,-1.8233 -0.12038,-0.79089 0.0297,-1.48809 0.45036,-2.0916 0.42466,-0.57714 1.03243,-0.92591 1.8233,-1.0463 l 11.62607,-1.76979 c 1.68723,-0.25685 3.21431,0.11761 4.58123,1.12335 1.34056,1.00975 2.13926,2.35824 2.3961,4.04548 l 1.222,8.02752 c 0.25684,1.68721 -0.10644,3.1991 -1.08983,4.53567 -1.00976,1.34054 -2.35825,2.13924 -4.04548,2.3961 l -8.06707,1.22802 c -1.81903,0.27688 -3.39682,-0.0764 -4.73338,-1.05973 -1.33252,-0.95705 -2.1444,-2.30354 -2.43565,-4.03946 l -0.62605,-4.11263"
         style=""
         id="path4344" />
      <path
         d="m 133.50765,288.8011 4.83383,0.24431 0.24229,-4.79388 c 0.0417,-0.82562 0.3284,-1.47865 0.85998,-1.95909 0.53161,-0.48045 1.21022,-0.6998 2.03582,-0.65807 0.79899,0.0404 1.4387,0.32637 1.91914,0.85796 0.4791,0.55823 0.69846,1.23683 0.65807,2.03582 l -0.24229,4.79388 4.83383,0.24431 c 0.82562,0.0417 1.47864,0.32838 1.95909,0.85999 0.45381,0.53023 0.65985,1.20817 0.61812,2.03379 -0.0404,0.79897 -0.32637,1.43868 -0.85796,1.91914 -0.5316,0.48043 -1.19688,0.70046 -1.99587,0.66009 l -4.83383,-0.24431 -0.24431,4.83383 c -0.0404,0.79896 -0.32636,1.43867 -0.85797,1.91914 -0.53158,0.48042 -1.19687,0.70045 -1.99586,0.66009 -0.8256,-0.0417 -1.47863,-0.32841 -1.95909,-0.85998 -0.48178,-0.50499 -0.70181,-1.17027 -0.66009,-1.99587 l 0.24431,-4.83383 -4.83383,-0.24431 c -0.79896,-0.0404 -1.43867,-0.32638 -1.91914,-0.85797 -0.48042,-0.5316 -0.70046,-1.19689 -0.6601,-1.99586 0.0404,-0.79899 0.32707,-1.45202 0.85999,-1.95909 0.53162,-0.48045 1.19691,-0.70048 1.99587,-0.66009"
         style=""
         id="path4346" />
      <path
         d="m 115.50972,275.37837 8.05884,2.0682 c 1.62727,0.41762 2.87292,1.35675 3.73695,2.81738 0.86404,1.46063 1.08393,3.01749 0.65968,4.67059 l -4.68328,18.24863 c -0.20549,0.80069 -0.60036,1.37386 -1.18462,1.71949 -0.61671,0.36479 -1.32542,0.44445 -2.12615,0.23898 -0.8007,-0.20552 -1.38347,-0.61662 -1.7483,-1.2333 -0.37143,-0.59091 -0.4544,-1.28671 -0.24892,-2.0874 l 4.85232,-18.90729 -9.33741,-2.39633 -4.85232,18.90729 c -0.20547,0.80069 -0.61326,1.37054 -1.22336,1.70955 -0.61669,0.36479 -1.3254,0.44445 -2.12615,0.23898 -0.77486,-0.19889 -1.34471,-0.60667 -1.70955,-1.22336 -0.36479,-0.61674 -0.44776,-1.31254 -0.24892,-2.0874 l 4.68328,-18.24863 c 0.42427,-1.6531 1.36671,-2.91166 2.82732,-3.7757 1.46065,-0.86403 3.01751,-1.08392 4.67059,-0.65968"
         style=""
         id="path4348" />
      <path
         d="m 92.181099,265.83028 c 0.746097,0.35601 1.238676,0.87175 1.47774,1.54722 0.239094,0.67548 0.180631,1.38625 -0.175389,2.13233 l -5.219501,10.93852 8.700275,4.15148 5.219496,-10.93852 c 0.35602,-0.74608 0.87175,-1.23866 1.54722,-1.47774 0.67548,-0.23908 1.38626,-0.18061 2.13233,0.17539 0.74609,0.35601 1.23867,0.87175 1.47774,1.54722 0.21502,0.66399 0.14452,1.36902 -0.21149,2.1151 l -4.94388,10.36091 c -0.73497,1.54029 -1.88459,2.58726 -3.448847,3.14093 -1.599793,0.56623 -3.169842,0.48186 -4.710153,-0.25311 l -7.508951,-3.58302 c -1.540274,-0.73499 -2.593541,-1.90238 -3.159805,-3.50217 -0.577698,-1.57575 -0.499071,-3.13376 0.235883,-4.67406 l 4.943883,-10.3609 c 0.344541,-0.72201 0.86028,-1.21459 1.547218,-1.47774 0.67549,-0.23908 1.374233,-0.18635 2.096231,0.15816"
         style=""
         id="path4350" />
      <path
         d="m 73.814294,280.62284 c 0.693068,0.4506 1.177049,1.05155 1.451945,1.80285 0.260388,0.77362 0.172535,1.49578 -0.263558,2.1665 -0.436065,0.67068 -1.053207,1.0328 -1.851428,1.08638 -0.812725,0.0759 -1.565621,-0.11147 -2.258692,-0.56206 -0.693035,-0.45064 -1.169749,-1.06276 -1.430142,-1.83638 -0.297247,-0.76584 -0.22784,-1.48409 0.20822,-2.15477 0.436098,-0.67072 1.071686,-1.03675 1.906766,-1.09811 0.798222,-0.0536 1.543851,0.14496 2.236889,0.59559 m 12.188423,-18.74598 c 0.737769,0.47968 1.232929,1.0879 1.485481,1.82465 0.252554,0.73674 0.146255,1.46282 -0.318898,2.17823 l -8.111079,12.47497 c -0.465142,0.71539 -1.078373,1.09596 -1.839697,1.14171 -0.775836,0.0681 -1.532643,-0.13772 -2.270423,-0.61739 -0.737753,-0.4797 -1.23627,-1.0583 -1.495554,-1.73578 -0.282715,-0.78819 -0.191504,-1.53998 0.273632,-2.25538 l 8.111079,-12.47496 c 0.465158,-0.71541 1.096836,-1.09989 1.895036,-1.15345 0.775853,-0.0681 1.53266,0.13771 2.270423,0.6174"
         style=""
         id="path4352" />
      <path
         d="m 68.422957,248.20562 8.936867,7.64395 c 1.276699,1.092 1.981011,2.48395 2.112938,4.17587 0.131933,1.69192 -0.356765,3.18636 -1.466094,4.48332 l -5.277967,6.1707 c -1.109315,1.29694 -2.491138,2.00992 -4.145472,2.13893 -1.674572,0.11166 -3.160344,-0.38717 -4.457321,-1.49649 l -8.936868,-7.64395 c -0.607923,-0.52 -0.939749,-1.13718 -0.995481,-1.85154 -0.05568,-0.71437 0.17647,-1.37553 0.696439,-1.98348 0.520024,-0.60795 1.137205,-0.93978 1.851545,-0.99548 0.714391,-0.0557 1.375549,0.17644 1.983475,0.69644 l 9.423227,8.05995 6.135962,-7.17381 -9.423228,-8.05995 c -0.607932,-0.51999 -0.939759,-1.13717 -0.995481,-1.85155 -0.05569,-0.71435 0.176461,-1.37551 0.696439,-1.98347 0.520014,-0.60794 1.145862,-0.9499 1.877545,-1.02588 0.714381,-0.0557 1.375539,0.17645 1.983475,0.69644"
         style=""
         id="path4354" />
      <path
         d="m 56.443742,234.28249 5.160653,6.52611 c 1.058598,1.33869 1.489425,2.85083 1.292482,4.53642 -0.213478,1.66467 -0.989562,3.0263 -2.328254,4.0849 l -6.337854,5.01179 c -1.338676,1.05859 -2.832085,1.4916 -4.480231,1.29905 -1.685573,-0.19695 -3.057665,-0.96477 -4.116279,-2.30345 l -5.160652,-6.5261 c -1.05857,-1.33869 -1.489397,-2.85083 -1.292483,-4.53642 0.17605,-1.66905 0.933405,-3.03287 2.272068,-4.09147 l 6.337854,-5.01179 c 1.338704,-1.05858 2.850842,-1.48941 4.536418,-1.29248 1.685601,0.19696 3.057693,0.96477 4.116278,2.30344 m -12.068663,8.72763 5.954599,7.53012 7.341869,-5.80574 -5.954599,-7.53012 -7.341869,5.80574"
         style=""
         id="path4356" />
      <path
         d="m 32.316289,223.2069 3.982251,7.39606 10.671456,-5.74582 c 0.72787,-0.3919 1.434958,-0.4849 2.121265,-0.27899 0.686313,0.20592 1.22542,0.67281 1.617322,1.40067 0.379263,0.70439 0.465938,1.39974 0.260025,2.08605 -0.229391,0.69895 -0.69628,1.23805 -1.400668,1.61732 l -10.107946,5.44241 c -1.502678,0.80908 -3.048697,0.9752 -4.638064,0.49836 -1.625454,-0.48769 -2.842735,-1.48288 -3.651847,-2.98557 l -3.678841,-6.83255 c -0.379237,-0.70438 -0.465912,-1.39973 -0.260025,-2.08604 0.205937,-0.68631 0.661086,-1.21909 1.365448,-1.59836 0.704409,-0.37926 1.411497,-0.47225 2.121265,-0.27899 0.686332,0.20592 1.219117,0.66107 1.598359,1.36545"
         style=""
         id="path4358" />
      <path
         d="m 37.790841,195.72569 c 0.258017,0.78539 0.225413,1.49782 -0.09781,2.1373 -0.323214,0.6395 -0.87751,1.08825 -1.662887,1.34625 l -11.514555,3.78278 3.008747,9.15844 11.514554,-3.78278 c 0.785375,-0.258 1.497806,-0.2254 2.137296,0.0978 0.639494,0.32322 1.088246,0.87752 1.346256,1.66288 0.258012,0.78538 0.225407,1.49781 -0.09781,2.1373 -0.331542,0.61416 -0.889998,1.05024 -1.675371,1.30825 l -10.906526,3.58303 c -1.621396,0.53267 -3.172565,0.42475 -4.653512,-0.32376 -1.514568,-0.76552 -2.538195,-1.95899 -3.070885,-3.5804 l -2.596761,-7.90438 c -0.532644,-1.6214 -0.416217,-3.1894 0.34928,-4.704 0.740211,-1.50625 1.921009,-2.52571 3.542399,-3.0584 l 10.906525,-3.58303 c 0.760045,-0.24967 1.472476,-0.21706 2.137296,0.0978 0.639499,0.32323 1.084089,0.86486 1.333771,1.62488"
         style=""
         id="path4360" />
      <path
         d="m 27.744411,186.67929 c 0.577004,0.49159 0.924992,1.06536 1.043963,1.72132 0.342669,1.88918 -0.364991,2.99319 -2.122982,3.31206 l -14.680467,2.66276 c -0.865846,0.15705 -1.569401,0.0136 -2.1106665,-0.43022 -0.5412112,-0.44386 -0.8879772,-1.08561 -1.040299,-1.92525 -0.1189513,-0.65596 0.00535,-1.3154 0.3729185,-1.97831 0.3676193,-0.66291 0.958112,-1.06813 1.77148,-1.21567 l 14.680467,-2.66276 c 0.787167,-0.14277 1.482361,0.0292 2.085586,0.51607 m 8.482591,0.37209 c 0.138017,0.76092 0.0054,1.44898 -0.397999,2.06417 -0.434345,0.59372 -1.031976,0.95958 -1.792896,1.0976 -0.734676,0.13326 -1.398873,-0.0173 -1.992593,-0.45164 -0.619949,-0.42958 -0.996555,-1.01171 -1.129818,-1.7464 -0.133251,-0.73467 0.01491,-1.41199 0.444496,-2.03195 0.403354,-0.61519 0.972367,-0.98941 1.707042,-1.12267 0.760921,-0.13801 1.451356,0.008 2.071308,0.43735 0.593717,0.43435 0.957204,1.01887 1.09046,1.75354"
         style=""
         id="path4362" />
      <path
         d="m 34.683032,158.28247 c -0.07477,0.87682 -0.377347,1.6004 -0.907726,2.17073 -0.530377,0.57033 -1.220689,0.81924 -2.070938,0.74673 L 9.4252297,159.30004 c -0.8502215,-0.0725 -1.4751346,-0.43357 -1.874741,-1.08321 -0.426123,-0.6519 -0.6018118,-1.41626 -0.5270671,-2.29308 0.074799,-0.87681 0.3496711,-1.58936 0.8246159,-2.13766 0.5615059,-0.6212 1.2673689,-0.89555 2.117591,-0.82305 l 22.2791385,1.89989 c 0.850249,0.0725 1.487314,0.448 1.911198,1.12647 0.42615,0.6519 0.601839,1.41626 0.527067,2.29307 m -24.677548,-5.31603 0,0 m -0.5403989,6.337 0,0"
         style=""
         id="path4364" />
      <path
         d="m 38.419672,136.32241 c -0.17631,0.80766 -0.565997,1.40496 -1.169062,1.79189 -0.60307,0.38697 -1.308427,0.49229 -2.116073,0.31597 l -11.841149,-2.58488 -2.055958,9.41821 11.841149,2.58488 c 0.807648,0.17631 1.404946,0.566 1.791897,1.16906 0.38695,0.60307 0.492272,1.30843 0.315967,2.11607 -0.176307,0.80765 -0.565994,1.40495 -1.169062,1.7919 -0.597379,0.3609 -1.299893,0.45319 -2.107542,0.27689 l -11.215874,-2.44839 c -1.667385,-0.36398 -2.949132,-1.24426 -3.845245,-2.64085 -0.916444,-1.42831 -1.192682,-2.97617 -0.828714,-4.64358 l 1.774438,-8.12857 c 0.364003,-1.66738 1.260155,-2.95931 2.688459,-3.8758 1.402279,-0.92212 2.937111,-1.20121 4.604501,-0.83724 l 11.215873,2.44838 c 0.781592,0.17064 1.37889,0.56033 1.791897,1.16906 0.386947,0.60309 0.495113,1.29542 0.324498,2.077"
         style=""
         id="path4366" />
      <path
         d="m 46.374318,116.02082 c -0.328479,0.75862 -0.813616,1.27504 -1.455413,1.54925 -0.666279,0.26364 -1.378718,0.23122 -2.13732,-0.0973 l -4.478225,-1.93905 -3.830412,8.84633 4.478225,1.93905 c 0.758606,0.32847 1.269724,0.82585 1.533356,1.49211 0.239158,0.65569 0.194501,1.36283 -0.13397,2.12143 -0.328473,0.75861 -0.81361,1.27503 -1.455413,1.54925 -0.655677,0.23916 -1.362818,0.1945 -2.121427,-0.13397 l -20.51908,-8.88465 c -0.758582,-0.32846 -1.262763,-0.8083 -1.512542,-1.43951 -0.239135,-0.65567 -0.194478,-1.36281 0.133969,-2.12143 0.328497,-0.75859 0.813634,-1.27501 1.455413,-1.54925 0.641825,-0.27421 1.342029,-0.24709 2.100614,0.0814 l 11.085442,4.79993 1.62117,-3.74409 -4.294691,-1.85957 c -0.734122,-0.31786 -1.220769,-0.80464 -1.459942,-1.46034 -0.263616,-0.66625 -0.236493,-1.36646 0.08137,-2.10061 0.328486,-0.75859 0.813623,-1.275 1.455413,-1.54925 0.641814,-0.27421 1.342018,-0.24708 2.100614,0.0814 l 4.294691,1.85958 c 0.635758,-1.46825 1.537538,-2.44357 2.705343,-2.92594 1.553548,-0.63496 3.101161,-0.61869 4.642845,0.0488 l 4.294691,1.85958 c 0.734129,0.3179 1.233012,0.80997 1.496649,1.47622 0.263623,0.6663 0.2365,1.3665 -0.08137,2.10062"
         style=""
         id="path4368" />
      <path
         d="m 56.16937,100.4356 -6.659683,9.69259 c -0.468142,0.68134 -1.054471,1.08734 -1.75899,1.21801 -0.689418,0.10869 -1.374795,-0.071 -2.056135,-0.53918 -0.659357,-0.45303 -1.054371,-1.03181 -1.185043,-1.73634 -0.130666,-0.70451 0.03052,-1.38645 0.483555,-2.04581 l 7.022114,-10.220078 -1.648399,-1.132599 -5.096695,7.417797 c -0.966481,1.40664 -2.273032,2.27225 -3.919658,2.59682 -1.653489,0.28751 -3.183553,-0.052 -4.590197,-1.01847 l -0.527487,-0.36244 c -1.406621,-0.96647 -2.261238,-2.26547 -2.563855,-3.897 -0.309465,-1.668585 0.01904,-3.2062 0.985507,-4.612849 l 6.659683,-9.692587 c 0.453045,-0.659332 1.031824,-1.054346 1.736338,-1.185043 0.704524,-0.130642 1.386463,0.03054 2.045819,0.483556 0.659362,0.453066 1.054376,1.031845 1.185043,1.736338 0.130671,0.704544 -0.03051,1.386483 -0.483555,2.045819 l -7.022114,10.220074 1.615431,1.109952 5.074043,-7.384833 c 0.966487,-1.406613 2.284027,-2.264669 3.952626,-2.57417 1.646617,-0.324559 3.173242,-0.0036 4.579881,0.962855 l 0.593423,0.407735 c 1.406626,0.966504 2.264682,2.284045 2.574171,3.952625 0.302593,1.631534 -0.02935,3.150609 -0.995823,4.557228"
         style=""
         id="path4370" />
      <path
         d="m 73.123738,81.835789 -8.400408,8.229869 c -1.200062,1.175699 -2.648573,1.754845 -4.345539,1.73744 -1.696965,-0.0174 -3.142626,-0.635653 -4.336986,-1.854763 l -5.682529,-5.800282 c -1.194346,-1.219096 -1.783016,-2.658276 -1.766013,-4.317545 0.03608,-1.677903 0.663661,-3.114039 1.882757,-4.308414 l 8.400408,-8.229869 c 0.571457,-0.559827 1.215433,-0.836081 1.93193,-0.828761 0.716496,0.0074 1.354672,0.296777 1.914529,0.868206 0.559852,0.571483 0.836105,1.215459 0.828761,1.93193 -0.0074,0.716522 -0.296752,1.354697 -0.868206,1.914528 l -8.857573,8.677753 6.606289,6.743185 8.857573,-8.677753 c 0.571447,-0.559838 1.215423,-0.836091 1.931931,-0.828761 0.716485,0.0074 1.354661,0.296767 1.914528,0.868206 0.559841,0.571472 0.845426,1.224973 0.856754,1.960503 -0.0074,0.716511 -0.296763,1.354687 -0.868206,1.914528"
         style=""
         id="path4372" />
      <path
         d="m 88.043894,71.123141 -9.792397,6.439516 c -0.601582,0.395602 -1.290165,0.5133 -2.06575,0.353093 -0.753305,-0.174856 -1.327758,-0.563075 -1.723361,-1.164658 l -4.153817,-6.316597 c -0.395596,-0.601571 -0.517108,-1.271688 -0.364537,-2.010351 0.160211,-0.775575 0.541104,-1.361168 1.14268,-1.756782 l 6.316597,-4.153818 c 0.690701,-0.454192 1.386913,-0.608822 2.088637,-0.463891 0.687065,0.122684 1.257703,0.529369 1.711917,1.220057 0.454204,0.690718 0.608834,1.38693 0.463892,2.088637 -0.144954,0.701734 -0.562779,1.279698 -1.253478,1.733895 l -4.010538,2.637344 1.142849,1.7379 8.021076,-5.274689 -5.186777,-7.887391 -10.327135,6.791162 c -0.690697,0.454223 -1.379583,0.619993 -2.066659,0.497313 -0.679432,-0.159587 -1.246256,-0.584738 -1.700475,-1.275456 -0.454199,-0.690688 -0.612644,-1.368434 -0.475335,-2.033238 0.144959,-0.701704 0.562784,-1.279668 1.253478,-1.733895 l 9.792397,-6.439516 c 1.425967,-0.937697 2.969935,-1.234909 4.63191,-0.891636 1.647311,0.321043 2.93983,1.194535 3.877561,2.62048 l 4.43953,6.751072 c 0.937708,1.425984 1.234919,2.969952 0.891636,4.631909 -0.343313,1.661981 -1.227946,2.961826 -2.653901,3.89954"
         style=""
         id="path4374" />
      <path
         d="m 107.6291,61.615486 -8.293593,3.390852 1.801393,4.405972 c 0.30275,0.740497 0.29812,1.433814 -0.0139,2.079954 -0.27725,0.660722 -0.78611,1.142463 -1.526608,1.445223 -0.740504,0.302749 -1.441117,0.315507 -2.10184,0.03827 -0.650639,-0.252561 -1.127334,-0.749088 -1.430086,-1.489582 L 93.23372,64.562509 c -0.262387,-0.641763 -0.235324,-1.315443 0.08119,-2.021042 0.306422,-0.730272 0.780516,-1.226604 1.422282,-1.488998 l 11.44072,-4.677559 -3.67847,-8.99707 -8.870858,3.670081 1.93763,4.739197 c 0.302753,0.74051 0.315511,1.441123 0.03827,2.101841 -0.277239,0.660736 -0.798449,1.147523 -1.563632,1.460361 -0.765182,0.312854 -1.478136,0.330658 -2.138866,0.05341 -0.636041,-0.287322 -1.10544,-0.801236 -1.408198,-1.541744 l -1.680289,-4.109773 c -0.635778,-1.555034 -0.620316,-3.102656 0.04639,-4.642871 0.666714,-1.540178 1.777592,-2.628168 3.332637,-3.263974 l 7.701196,-3.148648 c 1.579729,-0.645852 3.146989,-0.652823 4.701779,-0.02091 1.54469,0.607274 2.63998,1.700765 3.28587,3.280474 l 3.14864,7.701196 c 0.64586,1.579744 0.63545,3.139708 -0.0312,4.679896 -0.66672,1.540205 -1.78994,2.633241 -3.36966,3.279112"
         style=""
         id="path4376" />
      <path
         d="m 132.7526,44.907648 c 0.13922,0.706421 -0.0117,1.388487 -0.45283,2.046202 -0.41499,0.652581 -0.97567,1.048486 -1.68206,1.187717 l -7.45653,1.469769 c -0.78491,0.154722 -1.4749,0.03252 -2.06998,-0.366607 -0.60025,-0.42527 -0.97772,-1.030358 -1.13243,-1.815266 -0.15472,-0.784886 -0.0325,-1.474877 0.36661,-2.069976 0.39911,-0.595072 0.99111,-0.969972 1.77602,-1.124699 l 4.74863,-0.93601 -0.40999,-2.079979 -9.45801,1.864287 1.8256,9.26179 12.16591,-2.398045 c 0.78489,-0.154704 1.47488,-0.0325 2.06998,0.366607 0.59507,0.399125 0.96997,0.991132 1.1247,1.776022 0.15469,0.784903 0.0351,1.487976 -0.35887,2.10922 -0.39914,0.595091 -0.99114,0.96999 -1.77602,1.124699 l -11.538,2.274274 c -1.67445,0.330054 -3.21638,0.02244 -4.62579,-0.922836 -1.38325,-0.950431 -2.2399,-2.262871 -2.56996,-3.937323 l -1.57033,-7.966709 c -0.33005,-1.674433 -0.0329,-3.200702 0.89133,-4.578814 0.95043,-1.383232 2.26287,-2.239884 3.93732,-2.569958 l 8.00595,-1.578068 c 1.80526,-0.355816 3.39693,-0.0716 4.77504,0.852648 1.37292,0.898129 2.24266,2.20799 2.6092,3.929588 l 0.80451,4.081467"
         style=""
         id="path4378" />
      <path
         d="m 155.08588,45.07142 -4.83989,-0.03184 -0.0316,4.799896 c -0.005,0.826653 -0.26317,1.491638 -0.77314,1.994957 -0.51,0.503324 -1.17832,0.752266 -2.00496,0.746825 -0.79999,-0.0053 -1.45164,-0.262887 -1.95496,-0.772878 -0.50315,-0.536652 -0.75209,-1.20497 -0.74682,-2.004957 l 0.0316,-4.799896 -4.8399,-0.03184 c -0.82665,-0.0054 -1.49163,-0.263143 -1.99495,-0.773142 -0.47666,-0.509803 -0.71227,-1.178033 -0.70683,-2.004694 0.005,-0.799969 0.26289,-1.451621 0.77288,-1.954957 0.50998,-0.503308 1.16497,-0.752337 1.96495,-0.747089 l 4.8399,0.03184 0.0318,-4.839896 c 0.005,-0.799962 0.26288,-1.451614 0.77288,-1.954957 0.50998,-0.5033 1.16497,-0.75233 1.96496,-0.747089 0.82664,0.0055 1.49162,0.263175 1.99496,0.773142 0.50348,0.483344 0.75251,1.138329 0.74708,1.964957 l -0.0318,4.839896 4.8399,0.03184 c 0.79996,0.0053 1.45161,0.262904 1.95495,0.772879 0.50331,0.510002 0.75233,1.164987 0.74709,1.964957 -0.005,0.799994 -0.263,1.464979 -0.77314,1.994957 -0.51001,0.503332 -1.16499,0.752361 -1.96496,0.747088"
         style=""
         id="path4380" />
      <path
         d="m 173.65462,57.698462 -8.14127,-1.715293 c -1.64391,-0.346358 -2.92928,-1.230345 -3.8561,-2.651964 -0.92682,-1.421616 -1.2143,-2.967425 -0.86245,-4.637432 l 3.88415,-18.435265 c 0.17043,-0.808882 0.53996,-1.3987 1.10862,-1.769455 0.60023,-0.391298 1.3048,-0.501746 2.11372,-0.331343 0.80889,0.170456 1.40901,0.55579 1.80035,1.156003 0.39681,0.57417 0.51,1.265696 0.33959,2.074579 l -4.02435,19.100657 9.43291,1.98743 4.02434,-19.100656 c 0.17041,-0.808886 0.553,-1.395955 1.14776,-1.761209 0.60022,-0.391301 1.30479,-0.501749 2.11372,-0.331343 0.78279,0.164955 1.36986,0.547541 1.76121,1.147757 0.3913,0.60026 0.50449,1.291786 0.33959,2.074579 l -3.88415,18.435265 c -0.35188,1.670003 -1.23861,2.968414 -2.66021,3.895238 -1.42164,0.92682 -2.96745,1.214303 -4.63743,0.862452"
         style=""
         id="path4382" />
      <path
         d="m 197.38016,66.213097 c -0.76102,-0.322899 -1.27577,-0.816504 -1.54428,-1.480818 -0.26853,-0.664325 -0.24134,-1.376984 0.0816,-2.137978 l 4.73402,-11.157216 -8.87422,-3.765341 -4.73402,11.157216 c -0.3229,0.760998 -0.81651,1.275754 -1.48082,1.544272 -0.66433,0.268515 -1.37698,0.241327 -2.13798,-0.08156 -0.761,-0.322893 -1.27576,-0.816499 -1.54427,-1.480819 -0.24397,-0.653903 -0.20451,-1.361353 0.11839,-2.122353 l 4.48403,-10.568056 c 0.66661,-1.571079 1.76913,-2.667538 3.30757,-3.289381 1.57337,-0.635943 3.14561,-0.620615 4.71672,0.04598 l 7.65908,3.249756 c 1.57107,0.666628 2.67459,1.78663 3.31058,3.360009 0.64635,1.548849 0.63623,3.108815 -0.0304,4.679901 l -4.48404,10.568056 c -0.3125,0.736444 -0.8061,1.251201 -1.48082,1.544272 -0.66434,0.268509 -1.36472,0.246529 -2.10115,-0.06594"
         style=""
         id="path4384" />
      <path
         d="m 215.08647,50.635664 c -0.71201,-0.420031 -1.22167,-0.999363 -1.52898,-1.737997 -0.29378,-0.761563 -0.23742,-1.486868 0.16909,-2.175916 0.40649,-0.689005 1.0073,-1.077626 1.80243,-1.165866 0.80866,-0.111161 1.56899,0.04327 2.281,0.463297 0.71198,0.420071 1.21486,1.010887 1.50865,1.772449 0.33027,0.752185 0.29217,1.472781 -0.11431,2.161789 -0.40652,0.689045 -1.02559,1.082375 -1.85721,1.179993 -0.79514,0.08823 -1.54869,-0.07768 -2.26067,-0.497749 m -11.36166,19.258309 c -0.75793,-0.44715 -1.27907,-1.033257 -1.56342,-1.758322 -0.28436,-0.725065 -0.20974,-1.455078 0.22386,-2.190042 l 7.56089,-12.815905 c 0.43359,-0.734947 1.02969,-1.141827 1.7883,-1.220642 0.77214,-0.101751 1.53719,0.07094 2.29513,0.518073 0.75791,0.447164 1.28112,1.003529 1.56962,1.669094 0.31673,0.775147 0.2583,1.530194 -0.17529,2.265144 l -7.56088,12.815904 c -0.43361,0.734961 -1.04797,1.14655 -1.84308,1.234769 -0.77216,0.101765 -1.5372,-0.07093 -2.29513,-0.518073"
         style=""
         id="path4386" />
      <path
         d="m 221.88369,82.786232 -9.26256,-7.245859 c -1.32323,-1.035125 -2.08773,-2.394952 -2.29352,-4.079483 -0.20579,-1.684532 0.2171,-3.19891 1.26865,-4.543141 l 5.00309,-6.395581 c 1.05155,-1.344215 2.40087,-2.116935 4.04798,-2.318162 1.66809,-0.184769 3.17425,0.248616 4.5185,1.300156 l 9.26256,7.245858 c 0.63008,0.49292 0.98858,1.095001 1.0755,1.806245 0.0868,0.711249 -0.11616,1.381926 -0.60905,2.01203 -0.49294,0.630108 -1.09502,0.988604 -1.80624,1.075492 -0.71127,0.08689 -1.38195,-0.116126 -2.01203,-0.609042 l -9.76665,-7.640191 -5.81641,7.435257 9.76665,7.640191 c 0.63009,0.492908 0.98859,1.094989 1.0755,1.806244 0.0869,0.711238 -0.11615,1.381915 -0.60905,2.012031 -0.49293,0.630096 -1.10323,0.999094 -1.83089,1.106997 -0.71126,0.08688 -1.38194,-0.116138 -2.01203,-0.609042"
         style=""
         id="path4388" />
      <path
         d="m 234.46358,96.168763 -5.4412,-6.294102 c -1.11615,-1.291101 -1.61271,-2.782944 -1.48969,-4.475534 0.14045,-1.672417 0.85622,-3.066697 2.14732,-4.182844 l 6.11255,-5.284245 c 1.29108,-1.116134 2.76412,-1.614065 4.41911,-1.493795 1.69258,0.123025 3.09694,0.83008 4.2131,2.121168 l 5.44121,6.294102 c 1.11612,1.291098 1.61268,2.782942 1.48969,4.475534 -0.10287,1.675149 -0.79983,3.070795 -2.09091,4.186945 l -6.11254,5.284244 c -1.29111,1.116132 -2.78296,1.612696 -4.47553,1.489695 -1.69261,-0.123027 -3.09697,-0.830083 -4.21311,-2.121168 m 11.67532,-9.24722 -6.27831,-7.262425 -7.08087,6.121353 6.27831,7.262425 7.08087,-6.121353"
         style=""
         id="path4390" />
      <path
         d="m 259.04915,106.18287 -4.30108,-7.21532 -10.41067,6.20583 c -0.71008,0.42328 -1.41244,0.54703 -2.10707,0.37125 -0.69464,-0.17578 -1.2536,-0.61871 -1.67688,-1.32879 -0.40963,-0.68717 -0.52655,-1.37808 -0.35077,-2.07271 0.19868,-0.7083 0.64161,-1.26726 1.32879,-1.67688 l 9.86093,-5.878134 c 1.46595,-0.87386 3.00326,-1.10726 4.61191,-0.700199 1.64518,0.416328 2.90471,1.357472 3.7786,2.823434 l 3.97337,6.665579 c 0.4096,0.68717 0.52652,1.37808 0.35077,2.07272 -0.1758,0.69463 -0.60728,1.24676 -1.29443,1.65639 -0.6872,0.40963 -1.38955,0.53338 -2.10708,0.37126 -0.69466,-0.17579 -1.24679,-0.60727 -1.65639,-1.29443"
         style=""
         id="path4392" />
      <path
         d="m 254.78596,133.87348 c -0.29223,-0.77331 -0.29092,-1.48648 0.004,-2.13953 0.29484,-0.65307 0.82891,-1.12571 1.60221,-1.41792 l 11.33748,-4.2844 -3.40773,-9.0176 -11.33747,4.2844 c -0.7733,0.29222 -1.48647,0.29091 -2.13953,-0.004 -0.65306,-0.29485 -1.1257,-0.82892 -1.41793,-1.60221 -0.29222,-0.7733 -0.29091,-1.48647 0.004,-2.13953 0.30427,-0.62812 0.84305,-1.08829 1.61635,-1.38051 l 10.73879,-4.05816 c 1.59647,-0.6033 3.15088,-0.56355 4.66324,0.11925 1.5467,0.69833 2.62171,1.84573 3.22504,3.4422 l 2.9411,7.78282 c 0.60328,1.59647 0.55577,3.16806 -0.14253,4.71479 -0.6734,1.53729 -1.80833,2.60758 -3.40478,3.2109 l -10.73879,4.05816 c -0.74836,0.28278 -1.46154,0.28147 -2.13953,-0.004 -0.65307,-0.29487 -1.121,-0.81647 -1.40379,-1.5648"
         style=""
         id="path4394" />
      <path
         d="m 265.21551,142.47498 c -0.59782,-0.46605 -0.97042,-1.02415 -1.11779,-1.67432 -0.42446,-1.8725 0.23455,-3.00623 1.97702,-3.4012 l 14.55085,-3.29833 c 0.85821,-0.19454 1.56733,-0.0819 2.12737,0.33807 0.56,0.41992 0.93433,1.04599 1.123,1.87821 0.14735,0.65018 0.0518,1.31439 -0.28658,1.99266 -0.33846,0.67826 -0.91078,1.10877 -1.71697,1.29152 l -14.55085,3.29832 c -0.78022,0.17685 -1.48224,0.0352 -2.10605,-0.42493 m -8.49075,-0.003 c -0.17096,-0.7542 -0.0683,-1.44737 0.30791,-2.07952 0.40813,-0.61203 0.98929,-1.00353 1.74349,-1.17449 0.72819,-0.16506 1.39831,-0.0435 2.01034,0.3646 0.63804,0.40224 1.03959,0.96745 1.20466,1.69565 0.16506,0.72819 0.0465,1.4113 -0.35576,2.04935 -0.37623,0.63214 -0.92844,1.03074 -1.65663,1.19581 -0.7542,0.17095 -1.45032,0.0553 -2.08836,-0.34691 -0.61204,-0.40814 -1.00058,-0.9763 -1.16565,-1.70449"
         style=""
         id="path4396" />
    </g>
  </g>
</svg>
